<?xml version="1.0" encoding="utf-8"?>
<!-- Generator: Adobe Illustrator 16.0.0, SVG Export Plug-In . SVG Version: 6.00 Build 0)  -->
<!DOCTYPE svg PUBLIC "-//W3C//DTD SVG 1.1//EN" "http://www.w3.org/Graphics/SVG/1.1/DTD/svg11.dtd">
<svg version="1.1" id="Capa_1" xmlns="http://www.w3.org/2000/svg" xmlns:xlink="http://www.w3.org/1999/xlink" x="0px" y="0px"
	 width="225px" height="150px" viewBox="0 0 225 150" enable-background="new 0 0 225 150" xml:space="preserve">
<path fill="#3C3C3B" d="M179.14,75.451v-2.247h-3.348v17.444h3.348v-9.042c-0.014-0.881,0.043-1.763,0.173-2.635
	c0.386-2.059,2.229-3.519,4.32-3.424c1.775-0.223,3.396,1.037,3.618,2.813c0.021,0.177,0.029,0.355,0.021,0.535
	c0,0.454,0,0.853,0,1.242v10.51h3.349V79.394c0.013-0.761-0.053-1.521-0.194-2.269c-0.626-2.614-2.635-4.321-6.082-4.321
	c-2.05,0.003-3.97,1.007-5.141,2.69L179.14,75.451z M115.081,73.204h-3.402v10.358c-0.007,0.723,0.043,1.445,0.15,2.159
	c0.616,3.511,3.37,5.574,7.291,5.574c3.92,0,6.664-2.053,7.29-5.574c0.113-0.714,0.171-1.437,0.174-2.159V73.204h-3.457v10.552
	c0,2.69-1.079,4.591-4.028,4.591s-4.029-1.9-4.029-4.591V73.204H115.081z M144.782,88.066h-0.14
	c-1.349,1.954-3.588,3.103-5.962,3.057c-5.336,0-8.436-4.104-8.436-9.181c0-5.077,3.424-9.115,8.436-9.115
	c2.39-0.07,4.647,1.097,5.972,3.088h0.141V59.962h3.241v30.686h-3.241v-2.582H144.782z M139.166,88.26
	c3.716,0,5.67-2.904,5.67-6.339c0-3.436-1.976-6.265-5.67-6.265c-3.467,0-5.52,3.024-5.52,6.265
	C133.646,85.344,135.407,88.26,139.166,88.26z M98.004,88.26c3.727,0,5.672-2.904,5.672-6.339c0-3.436-1.978-6.265-5.672-6.265
	c-3.467,0-5.518,3.024-5.518,6.265C92.486,85.16,94.462,88.26,98.004,88.26z M103.707,88.045h-0.13
	c-1.329,1.984-3.584,3.147-5.972,3.078c-5.336,0-8.511-4.147-8.511-9.289c0-4.773,3.434-9.007,8.511-9.007
	c2.394-0.083,4.655,1.088,5.972,3.088h0.141v-2.711h3.111v17.444h-3.122V88.045z M161.037,88.26c3.727,0,5.672-2.904,5.672-6.339
	c0-3.436-1.978-6.265-5.672-6.265c-3.467,0-5.508,3.024-5.508,6.265C155.529,85.16,157.506,88.26,161.037,88.26z M166.729,88.045
	h-0.129c-1.329,1.984-3.586,3.147-5.973,3.078c-5.325,0-8.512-4.147-8.512-9.289c0-4.773,3.435-9.007,8.5-9.007
	c2.397-0.088,4.666,1.083,5.984,3.088h0.129v-2.711h3.11v17.444h-3.11V88.045L166.729,88.045z M79.46,84.404l-4.99-11.2h-3.899
	l8.846,18.146l8.825-18.146H84.46l-4.989,11.211L79.46,84.404z M68.184,90.648V73.204h-3.348v17.444H68.184z M68.821,65.806
	c0-1.276-1.035-2.311-2.312-2.311c-1.276,0-2.311,1.035-2.311,2.311c0,1.277,1.035,2.312,2.311,2.312
	C67.786,68.117,68.821,67.083,68.821,65.806z M61.023,76.952v1.08c0,7.01-4.558,13.221-12.863,13.221
	c-8.306,0-13.782-6.719-13.782-14.301c0-7.949,5.8-14.203,13.814-14.203c4.37-0.042,8.517,1.92,11.254,5.325l-2.397,2.321
	c-2.075-2.785-5.32-4.455-8.792-4.524c-6.146,0-10.239,4.827-10.239,10.973c0,5.897,3.792,11.211,10.369,11.211
	c4.672,0.137,8.606-3.467,8.878-8.133h-7.56v-2.97H61.023z"/>
</svg>
