<?xml version="1.0" encoding="utf-8"?>
<!-- Generator: Adobe Illustrator 16.0.0, SVG Export Plug-In . SVG Version: 6.00 Build 0)  -->
<!DOCTYPE svg PUBLIC "-//W3C//DTD SVG 1.1//EN" "http://www.w3.org/Graphics/SVG/1.1/DTD/svg11.dtd">
<svg version="1.1" id="Capa_1" xmlns="http://www.w3.org/2000/svg" xmlns:xlink="http://www.w3.org/1999/xlink" x="0px" y="0px"
	 width="862.86px" height="355.93px" viewBox="0 0 862.86 355.93" enable-background="new 0 0 862.86 355.93" xml:space="preserve">
<g>
	<g>
		<path id="XMLID_12_" fill="#FFFFFF" d="M149.633,178.217c0,10.305,8.355,18.66,18.664,18.66c10.306,0,18.666-8.354,18.666-18.66
			c0-10.309-8.359-18.667-18.666-18.667C157.988,159.551,149.633,167.908,149.633,178.217z"/>
		<path fill="#FFFFFF" d="M224.139,177.802c0.037,15.278-5.897,29.667-16.696,40.501c-10.823,10.849-25.189,16.812-40.459,16.812
			h-35.612c-0.754,0-1.429-0.312-1.919-0.879c-0.481-0.57-0.698-1.314-0.584-2.057c1.041-6.605,4.444-12.652,9.589-17.028
			c5.144-4.366,11.657-6.776,18.344-6.776h10.183c15.715,0,29.03-12.266,30.299-27.935c0.068-0.81,0.103-1.682,0.103-2.788
			c-0.013-0.641-0.034-1.226-0.08-1.785c-1.097-15.872-14.571-28.298-30.688-28.298H156.8c-7.554,0-14.653-2.948-20.001-8.284
			c-4.171-4.173-6.982-9.681-7.922-15.509c-0.111-0.771,0.093-1.499,0.562-2.068c0.492-0.572,1.201-0.892,1.943-0.892h35.029
			C198.149,120.815,224.047,146.38,224.139,177.802z"/>
		<path fill="#FFFFFF" d="M529.715,211.288L529.715,211.288c-4.566-3.892-10.363-6.034-16.322-6.034h-9.072
			c-14.002,0-25.846-10.924-26.973-24.873c-0.068-0.782-0.1-1.612-0.09-2.458c0.006-0.575,0.035-1.107,0.068-1.619
			c0.979-14.122,12.979-25.189,27.33-25.189h8.738c6.727,0,13.047-2.618,17.805-7.37c3.711-3.711,6.217-8.622,7.049-13.826
			c0.109-0.655-0.078-1.323-0.51-1.828c-0.428-0.505-1.049-0.794-1.711-0.794h-31.197c-28.26,0-51.313,22.765-51.389,50.743
			c-0.043,13.595,5.24,26.402,14.869,36.055c9.629,9.657,22.416,14.975,36.01,14.975h31.713c0.658,0,1.283-0.29,1.709-0.791
			c0.432-0.506,0.617-1.167,0.512-1.825C537.329,220.571,534.295,215.188,529.715,211.288z M732.608,127.088h-22.041
			c-1.275,0-1.971,0.472-2.41,1.654c-1.906,5.294-22.814,67.763-22.814,67.763l-22.719-67.81c-0.424-1.136-1.055-1.607-2.189-1.607
			h-22.529c-0.805,0-1.133,0.693-0.865,1.292l37.242,97.483c0.467,1.221,1.637,2.026,2.943,2.026h16.336
			c1.305,0,2.475-0.803,2.941-2.021l37.445-97.441C733.948,128.427,734.499,127.088,732.608,127.088z M239.219,128.664v97.651
			c0,0.869,0.706,1.574,1.576,1.574h20.86c0.871,0,1.575-0.706,1.575-1.574v-97.651c0-0.87-0.705-1.575-1.575-1.575h-20.86
			C239.925,127.088,239.219,127.793,239.219,128.664z M626.325,126.979H550.62c-0.865,0-1.574,0.707-1.574,1.574v17.788
			c0,0.867,0.709,1.576,1.574,1.576h25.777v78.303c0,0.87,0.703,1.576,1.574,1.576h20.859c0.871,0,1.576-0.706,1.576-1.576v-78.303
			h25.916c0.867,0,1.576-0.708,1.576-1.576v-17.788C627.901,127.688,627.19,126.979,626.325,126.979z M442.098,147.996
			c0.867,0,1.576-0.709,1.576-1.576v-17.756c0-0.867-0.709-1.575-1.576-1.575h-58.86c-0.788,0-1.04,0.268-1.119,0.378
			c-0.11,0.11-0.41,0.425-0.41,1.308v97.43c0,0.871,0.706,1.576,1.576,1.576h58.641c0.961,0,1.748-0.787,1.748-1.749v-17.425
			c0-0.962-0.787-1.749-1.748-1.749h-36.237v-20.924h25.886c0.867,0,1.576-0.709,1.576-1.575v-14.416
			c0-0.867-0.709-1.576-1.576-1.576h-25.886v-20.371L442.098,147.996L442.098,147.996z M366.096,225.573l-19.883-37.528l1.292-0.725
			c2.396-1.387,4.632-3.072,6.648-4.994c2.032-1.938,3.797-4.127,5.246-6.476c1.466-2.379,2.632-4.946,3.45-7.688
			c0.804-2.694,1.229-5.593,1.229-8.618c0-4.442-0.866-8.665-2.568-12.572s-4.081-7.389-7.043-10.335
			c-2.978-2.915-6.522-5.277-10.508-6.979c-3.986-1.717-8.335-2.568-12.903-2.568h-45.154c-0.867,0-1.576,0.708-1.576,1.575v97.651
			c0,0.865,0.709,1.574,1.576,1.574h20.859c0.867,0,1.576-0.709,1.576-1.574v-80.619l18.827,0.094
			c1.781,0.268,3.419,0.851,4.9,1.749c1.448,0.882,2.71,1.985,3.75,3.293c1.023,1.275,1.843,2.726,2.409,4.27
			c0.567,1.544,0.852,3.136,0.852,4.727c0,1.639-0.252,3.276-0.772,4.853c-0.504,1.561-1.275,3.01-2.269,4.302
			c-1.008,1.292-2.252,2.378-3.718,3.245c-1.48,0.866-3.167,1.418-5.011,1.639c-0.804,0.095-1.544,0.158-2.222,0.206
			c-0.646,0.047-1.418,0.079-2.347,0.079h-5.924c-0.946,0-1.813,0.487-2.301,1.292c-0.488,0.819-0.521,1.797-0.078,2.632
			l25.41,48.55c0.408,0.779,1.215,1.268,2.095,1.268h22.77C365.892,227.89,366.646,226.629,366.096,225.573z"/>
	</g>
</g>
</svg>
