<?xml version="1.0" encoding="utf-8"?>
<!-- Generator: Adobe Illustrator 16.0.0, SVG Export Plug-In . SVG Version: 6.00 Build 0)  -->
<!DOCTYPE svg PUBLIC "-//W3C//DTD SVG 1.1//EN" "http://www.w3.org/Graphics/SVG/1.1/DTD/svg11.dtd">
<svg version="1.1" id="Capa_1" xmlns="http://www.w3.org/2000/svg" xmlns:xlink="http://www.w3.org/1999/xlink" x="0px" y="0px"
	 width="225px" height="150px" viewBox="0 0 225 150" enable-background="new 0 0 225 150" xml:space="preserve">
<g id="layer1" transform="translate(-173.35261,-356.49836)">
	<path id="path19697" fill="#3C3C3B" d="M319.456,409.898l0.024,30.081l6.517-0.023l-0.023-30.058H319.456z M240.982,409.945
		l-5.862,14.162h-0.446l-6.963-13.693h-0.421l-6.518,13.928h-0.445l-5.885-14.373h-6.963l12.426,31.395h0.422l7.174-16.366h0.445
		l7.409,16.342h0.211l11.958-31.16v-0.235H240.982z M328.741,410.344c-0.347,0.001-0.646,0.1-0.891,0.328
		c-0.247,0.229-0.375,0.5-0.375,0.821c0,0.324,0.131,0.618,0.375,0.844c0.245,0.228,0.542,0.328,0.891,0.328
		c0.35-0.002,0.645-0.098,0.891-0.328c0.246-0.229,0.375-0.52,0.375-0.844c0-0.32-0.129-0.595-0.375-0.821
		C329.385,410.444,329.091,410.344,328.741,410.344z M328.741,410.484c0.299,0,0.537,0.109,0.75,0.305
		c0.211,0.196,0.328,0.426,0.328,0.703c0,0.279-0.117,0.531-0.328,0.727c-0.21,0.198-0.447,0.282-0.75,0.282
		c-0.301,0-0.562-0.086-0.774-0.282c-0.208-0.196-0.303-0.448-0.305-0.727c0-0.277,0.094-0.507,0.305-0.703
		C328.18,410.591,328.441,410.484,328.741,410.484z M328.226,410.859v1.267h0.234v-0.492h0.211c0.129,0,0.207,0.02,0.258,0.047
		c0.087,0.047,0.141,0.132,0.141,0.281v0.117v0.023c0.002,0.005-0.001,0.02,0,0.023h0.235c-0.007-0.01-0.021-0.035-0.023-0.07
		c-0.004-0.033,0-0.065,0-0.094v-0.094c0-0.064-0.021-0.143-0.072-0.211c-0.048-0.067-0.124-0.101-0.232-0.117
		c0.084-0.014,0.139-0.042,0.187-0.071c0.091-0.053,0.142-0.121,0.142-0.234c0-0.161-0.067-0.273-0.212-0.328
		c-0.08-0.031-0.203-0.047-0.375-0.047H328.226z M328.46,411h0.211c0.136,0,0.245,0.014,0.306,0.047
		c0.061,0.031,0.093,0.094,0.093,0.188c0,0.1-0.047,0.176-0.141,0.211c-0.053,0.02-0.131,0.023-0.234,0.023h-0.234V411z
		 M318.8,415.642c-3.611,0.003-11.751,0.021-12.403,0.023c-6.788,0.003-10.224,6.366-10.222,9.285v2.204
		c0.001,2.254,2.227,5.205,2.227,5.205c-0.502,0.586-2.396,2.449-2.648,2.602v-11.769c0.066-3.59-3.59-7.224-7.832-7.222
		c-3.134,0.001-4.199,0.824-5.885,1.688v-1.547h-6.096v23.658h6.096v-13.036c-0.001-2.301,1.299-4.43,4.127-4.432
		c3.045-0.002,3.259,2.895,3.259,3.095l0.022,14.373h6.309v-4.572l0.21,0.141l4.854,3.845c0.478-0.354,1.691-3.12,4.806-3.118
		c4.416-0.094,7.008,2.928,7.01,6.752c0.003,3.097-2.721,6.21-6.354,6.214c-1.893,0-4.066-0.829-5.438-2.884l-4.338,4.432
		c4.267,4.329,7.312,4.325,7.737,4.478c0.884,0.152,3.78,0.09,5.063-0.282c3.563-0.978,7.54-3.576,9.168-9.588
		c0.212-0.763,0.299-3.087,0.211-3.752c-0.677-5.485-4.528-8.822-4.572-8.909c0.176-0.179,2.3-2.695,2.298-5.369v-1.993
		c0-0.686-0.803-3.33-0.867-3.752h1.97c0.042-1.062,0.528-2.722,1.289-5.088V415.642z M338.096,415.736
		c-8.093,0.434-11.304,7.366-11.301,10.364v2.813c0.001,2.189,2.579,11.611,12.052,11.605c5.085-0.003,9.565-3.884,9.565-4.103
		c0,0-2.376-4.712-2.438-4.712c-2.892,2.834-4.9,3.616-7.246,3.587c-1.674-0.091-2.925-0.976-4.267-2.134l15.192-10.621
		c-1.979-3.196-5.473-6.803-10.761-6.8C338.622,415.736,338.357,415.722,338.096,415.736z M256.362,415.9
		c-1.611,0-2.018,1.084-4.149,1.571v-1.336h-6.096l0.023,23.658h6.096l-0.023-14.162c-0.002-2.918,5.171-4.195,6.541-4.197V415.9
		H256.362z M350.569,416.064l0.023,23.891l5.861-0.023v-14.115c-0.002-2.793,3.808-4.145,6.776-3.915l-0.023-5.838
		c0,0-1.812,0.013-2.204,0c-3.11,0.259-3.793,1.626-4.337,1.782v-1.782H350.569z M274.627,416.111l-13.481,0.023
		c-0.521,1.989-0.722,2.676-1.524,5.087l9.354-0.023v3.33c-0.729-0.286-1.314-1.135-5.275-1.103
		c-4.965,0.001-7.746,4.414-7.62,8.159c0.124,4.416,3.135,8.128,7.877,8.23c2.803,0.058,4.365-1.195,5.252-1.501v1.454h5.439
		L274.627,416.111z M337.956,421.175c1.631,0,3.021,0.756,3.445,1.337l-8.909,6.096l-0.093-1.735
		C332.394,426.284,333.364,421.179,337.956,421.175z M306.397,422.067c2.699-0.002,3.915,2.704,3.916,3.986
		c0.002,2.343-2.263,3.986-3.916,3.986c-1.894,0.002-3.914-1.412-3.915-4.198C302.48,423.718,304.221,422.067,306.397,422.067z
		 M265.226,428.773c2.315-0.033,3.328,1.578,3.329,3.258c0,0.532-1.013,2.438-3.494,2.439c-1.676,0-3.258-1.589-3.259-2.649
		C261.802,430.847,261.967,428.803,265.226,428.773z"/>
</g>
</svg>
