<?xml version="1.0" encoding="utf-8"?>
<!-- Generator: Adobe Illustrator 16.0.0, SVG Export Plug-In . SVG Version: 6.00 Build 0)  -->
<!DOCTYPE svg PUBLIC "-//W3C//DTD SVG 1.1//EN" "http://www.w3.org/Graphics/SVG/1.1/DTD/svg11.dtd">
<svg version="1.1" id="Layer_1" xmlns="http://www.w3.org/2000/svg" xmlns:xlink="http://www.w3.org/1999/xlink" x="0px" y="0px"
	 width="113.387px" height="22.104px" viewBox="0 0 113.387 22.104" enable-background="new 0 0 113.387 22.104"
	 xml:space="preserve">
<rect x="-9.438" y="-8.625" fill="none" width="132.262" height="40.255"/>
<g>
	<g>
		<path fill="#6B6B6B" d="M29.825,13.834h3.902c0.344,0,0.573-0.25,0.573-0.615v-0.31c-0.188,0.042-0.469,0.063-1.002,0.063h-1.285
			l2.235-4.304h-4.392V9.52h1.965l-1.872,3.556C29.782,13.386,29.763,13.636,29.825,13.834"/>
		<path fill="#6B6B6B" d="M25.933,11.089l1.01,1.945c0.282,0.562,0.407,0.802,1.044,0.802h1.439
			c-0.083-0.064-0.157-0.199-0.302-0.459l-1.473-2.708l1.722-2.001h-1.533L25.933,11.089z"/>
		<path fill="#6B6B6B" d="M24.045,13.834h1.783V7.658c0-0.643-0.469-1.06-1.115-1.06h-0.668V13.834z"/>
		<path fill="#6B6B6B" d="M23.252,13.365l-1.784-5.301c-0.209-0.634-0.428-0.925-1.304-0.925h-0.845l-2.482,6.695h1.126l0.567-1.654
			h2.389l0.34,1.071c0.127,0.395,0.282,0.57,0.71,0.57h1.503C23.399,13.75,23.346,13.626,23.252,13.365z M18.808,11.369l0.958-2.801
			l0.894,2.801H18.808z"/>
		<path fill="#6B6B6B" d="M37.317,13.959c1.481,0,2.743-1.061,2.743-2.818c0-1.498-1.199-2.609-2.712-2.609
			c-1.501,0-2.755,1.092-2.755,2.849C34.592,12.929,35.845,13.959,37.317,13.959 M37.337,13.002c-0.604,0-0.825-0.696-0.825-1.79
			c0-1.038,0.209-1.746,0.825-1.746c0.605,0,0.802,0.748,0.802,1.839C38.139,12.337,37.942,13.002,37.337,13.002"/>
		<path fill="#6B6B6B" d="M40.862,13.834h1.116V9.567l2.839,3.405c0.396,0.479,0.658,0.864,1.086,0.864h0.812V7.701
			c0-0.354-0.239-0.582-0.603-0.582H45.62v4.039l-2.728-3.25c-0.407-0.487-0.615-0.789-1.21-0.789h-0.821V13.834z"/>
		<path fill="#6B6B6B" d="M50.211,13.959c1.481,0,2.744-1.061,2.744-2.818c0-1.497-1.201-2.609-2.713-2.609
			c-1.503,0-2.753,1.092-2.753,2.849C47.489,12.93,48.739,13.959,50.211,13.959 M50.232,13.002c-0.606,0-0.825-0.696-0.825-1.789
			c0-1.039,0.208-1.746,0.825-1.746c0.604,0,0.803,0.749,0.803,1.841C51.035,12.337,50.836,13.002,50.232,13.002"/>
		<path fill="#6B6B6B" d="M64.63,11.349c0.031-0.208,0.041-0.417,0.041-0.602c0-1.228-0.907-2.203-2.461-2.203
			c-1.545,0-2.672,1.08-2.672,2.722c0,1.591,0.991,2.693,2.608,2.693s2.201-0.842,2.233-1.653c-0.345,0.251-0.877,0.396-1.472,0.396
			c-0.904,0-1.488-0.515-1.573-1.352H64.63z M61.334,10.632c0.058-0.759,0.352-1.238,0.854-1.238c0.688,0,0.825,1.238,0.825,1.238
			H61.334z"/>
		<path fill="#6B6B6B" d="M56.857,8.594c-0.605,0-1.105,0.219-1.357,0.469V7.66c0-0.645-0.459-1.06-1.104-1.06h-0.667v7.234h2.086
			c1.992,0,3.099-1.039,3.099-2.974C58.913,9.562,58.026,8.594,56.857,8.594z M55.771,12.972H55.5V9.634
			c0.115-0.01,0.209-0.021,0.387-0.021c0.679,0,1.189,0.626,1.189,1.458C57.076,12.306,56.606,12.972,55.771,12.972z"/>
		<path fill="#6B6B6B" d="M65.416,13.834h1.773V7.66c0-0.645-0.47-1.06-1.116-1.06h-0.657V13.834z"/>
	</g>
	<g id="Logo_2_">
		<g>
			<path fill="#6B6B6B" d="M90.375,7.756c0.097-0.311,0.147-0.537,0.152-0.681c0.014-0.379,0.228-0.582,0.522-0.862
				c0.131-0.124,0.276-0.262,0.424-0.435l0.077-0.087C91.726,5.497,91.992,5.203,92,4.862c0.089,0.042,0.159,0.066,0.205,0.117
				c0.064,0.069,0.093,0.185,0.083,0.347c-0.009,0.166-0.185,0.354-0.313,0.492l-0.057,0.061c-0.19,0.211-0.286,0.494-0.248,0.737
				c0.021,0.246,0.354,0.323,0.551,0.347c-0.284,0.188-0.382,0.234-0.56,0.318l-0.144,0.068c-0.203,0.098-0.408,0.157-0.606,0.213
				C90.714,7.616,90.529,7.669,90.375,7.756L90.375,7.756z"/>
		</g>
		<path fill="#6B6B6B" d="M96.256,4.095c-0.154,0.034-0.326,0.156-0.479,0.37c-0.04,0.082-0.216,0.37-0.294,0.559
			c-0.126,0.103-0.197,0.183-0.291,0.279c-0.115,0.12-0.282,0.321-0.289,0.347c-0.088,0.287-0.354,0.844-0.354,0.844
			c0.039-0.249,0.273-0.925,0.292-1.048c0.029-0.176-0.028-0.389-0.044-0.564c-0.012-0.134-0.022-0.267-0.025-0.4
			c-0.001-0.061,0.063-0.445-0.073-0.435c-0.115,0.009-0.364,0.105-0.429,0.448c-0.041,0.203,0.01,0.563-0.017,0.957
			c-0.006,0.091-0.084,0.226-0.134,0.472c-0.058,0.282-0.127,0.668-0.233,0.993c0.014-0.109,0.116-0.75,0.134-1.017
			c0.018-0.267-0.217-1.103-0.233-1.238c-0.013-0.105-0.054-0.137-0.11-0.143c-0.198-0.017-0.398,0.282-0.335,0.689
			c0.021,0.122,0.173,0.473,0.159,0.675c-0.014,0.201-0.11,0.406-0.12,0.52c-0.023,0.282-0.036,0.665-0.072,0.843
			c0.029-0.142-0.021-0.846-0.034-0.996c-0.009-0.106-0.225-0.602-0.33-0.879c-0.043-0.12-0.128-0.125-0.186-0.097
			c-0.233,0.117-0.244,0.523-0.197,0.712c0.028,0.11,0.176,0.407,0.233,0.658c-0.152,1.175-0.408,1.26-0.408,1.26
			s-0.088,0.069-0.391,0.12c-0.534,0.089-1.47,0.351-1.728,0.073c-0.02-0.019-0.066-0.045-0.104-0.016
			c-0.079,0.063-0.76,0.651-1.171,0.963c-1.313,0.994-2.219,1.266-3.258,1.98c-1.198,1.881-2.346,2.69-3.827,3.098
			c-0.694,0.191-1.377,0.121-1.53-0.324c-0.281-0.807,0.93-1.255,1.67-1.378c0.04-0.007,0.042-0.063,0.001-0.083
			c-0.356-0.193-0.769-0.283-1.272-0.283c-3.723-0.094-6.658,4.348-6.344,6.759c0.006,0.049,0.013,0.097,0.02,0.143h3.284
			c0.537-0.499,1.101-1.142,1.674-1.938c0,0-1.439,0.188-2.299,0.127c0,0,1.55-0.417,3.187-1.546c2.68,0.709,4.969-2.82,5.873-1.391
			c0.023,0.036,0.073,0.004,0.087-0.007c2.157-1.463,3.004-3.319,4.513-4.61c0.678-0.579,0.809-0.817,1.983-1.131
			c0.326-0.086,0.363-0.213,0.474-0.34c0.152-0.18,0.372-0.02,0.531-0.299c0.062-0.11-0.004-0.278,0.314-0.345
			c0.322-0.068,0.354-0.365,0.507-0.535c0.399-0.442,0.35-0.414,0.693-0.783c0.129-0.15,0.65-0.783,0.7-0.883
			c0.072-0.146,0.253-0.622,0.481-0.888C96.672,4.13,96.477,4.047,96.256,4.095z"/>
		<path fill="#6B6B6B" d="M74.418,8.559c0.001,0.126,0.103,0.188,0.152,0.214c0.245,0.128,0.345,0.244,0.439,0.375
			c0.082,0.116,0.085,0.264,0.067,0.381c-0.007,0.046,0.025,0.083,0.086,0.083c0.278-0.003,0.634-0.506,0.654-1.197
			c-0.081-0.122-0.252-0.228-0.604-0.224c-0.356,0.003-0.521-0.136-0.521-0.136S74.415,8.265,74.418,8.559z"/>
		<path fill="#6B6B6B" d="M77.62,8.753c-0.03,0.023-0.07,0.039-0.114,0.039c-0.068,0-0.233-0.09-0.562-0.096
			c-0.029-0.07-0.151-0.378-0.02-0.508c0.095-0.096,0.126-0.121,0.277-0.112c0.266,0.014,0.448,0.104,0.547,0.214
			c0.024-0.299,0.015-0.588-0.036-0.887c-0.049-0.299-0.385-2.215-2.818-2.276c-2.772-0.069-3.047,1.618-2.959,2.256
			c0.016,0.108,0.046,0.408,0.188,0.701c0.063-0.227,0.239-0.384,0.515-0.333c0.075,0.014,0.291,0.122,0.515,0.346
			c-0.276-0.771-1.031-0.605-1.031-0.605s-0.039-0.283,0.009-0.528c0.14-0.723,0.747-1.437,1.655-1.437
			c1.449,0,1.096,1.346,1.298,1.564c0.118,0.128,0.357,0.159,0.606,0.268c0.193,0.083,0.513,0.33,0.669,0.585
			c0.139,0.226,0.133,1.269,0.347,1.359c0.178,0.074,0.271,0.044,0.271,0.044s-0.208,0.284-0.55,0.495
			c0.217,0.095,0.379,0.271,0.495,0.327c0.054,0.027,0.012,0.077-0.054,0.078c-0.106,0-0.29-0.014-0.608-0.098
			c-0.116-0.029-0.181,0.025-0.244,0.089c-0.052,0.054-0.008,0.096,0.026,0.121c0.162,0.118,0.537,0.21,0.537,0.21
			s-0.14,0.319-0.531,0.25c-0.128-0.023-0.209,0.04-0.234,0.174c-0.069,0.357,0.538,0.502,0.796,0.547
			c0.137,0.034,0.263-0.176,0.284-0.223c0.175-0.375,0.606-1.471,0.714-1.809c0.108-0.338,0.206-0.54,0.085-0.816
			C77.669,8.714,77.644,8.734,77.62,8.753z"/>
		<path fill="#6B6B6B" d="M67.8,17.895L67.8,17.895L67.8,17.895L67.8,17.895z"/>
		<path fill="#6B6B6B" d="M71.841,18.954c0.187-2.638,3.662-5.959,6.359-6.838c0.072-0.028,0.071-0.066,0-0.059
			c-0.728,0.083-1.459,0.292-2.163,0.58c-0.1,0.041-0.167-0.021-0.224-0.105c-0.131-0.197-0.1-0.573-0.304-0.106
			c-0.079,0.183-0.49,1.154-0.713,1.32c-1.153,0.869-3.621,3.034-4.013,5.208H71.841z"/>
		<path fill="#6B6B6B" d="M67.583,18.954c0.511-0.601,1.579-0.861,1.579-0.861c0.307-1.327,1.657-2.005,1.657-2.005
			c0.334-0.781,1.262-1.368,1.262-1.368c-0.219,0.481-0.312,0.916-0.312,1.25c0.239-0.685,0.748-1.251,1.03-1.479
			c0.161-0.131,0.676-0.5,0.677-1.22c0.001-1.235-0.71-1.495-0.486-3.553c-0.355-0.028-0.785-0.434-0.785-0.434
			c0.055,0.083,0.405,0.347,0.437,1.188c0.023,0.94,0.249,2.143,0.315,2.468c0.077,0.37-0.053,0.777-0.428,1.14
			c-0.186,0.179-1.058,0.64-1.414,0.939c-0.277,0.234-0.502,0.497-0.717,0.753c-0.37,0.105-0.92,0.34-1.663,0.862
			c-0.607,0.427-0.984,1.228-0.984,1.228s-0.629-0.055-1.544,0.021c-1.973,0.165-4.515,1.071-4.515,1.071L67.583,18.954
			L67.583,18.954z"/>
	</g>
</g>
</svg>
