<?xml version="1.0" encoding="utf-8"?>
<!-- Generator: Adobe Illustrator 16.0.0, SVG Export Plug-In . SVG Version: 6.00 Build 0)  -->
<!DOCTYPE svg PUBLIC "-//W3C//DTD SVG 1.1//EN" "http://www.w3.org/Graphics/SVG/1.1/DTD/svg11.dtd">
<svg version="1.1" id="Capa_1" xmlns="http://www.w3.org/2000/svg" xmlns:xlink="http://www.w3.org/1999/xlink" x="0px" y="0px"
	 width="225px" height="150px" viewBox="0 0 225 150" enable-background="new 0 0 225 150" xml:space="preserve">
<g id="g6349" transform="matrix(3.630265,0,0,3.630265,0,4.4018555e-5)">
	<g id="g6351">
		<path id="path6353" inkscape:connector-curvature="0" fill="#3C3C3B" d="M19.678,17.691v1.672h3.535v3.497h-3.535v4.143h-3.63
			v-12.81c0-0.012,0.006-0.019,0.019-0.019h7.697l0.247,3.516H19.678L19.678,17.691z"/>
		<path id="path6355" inkscape:connector-curvature="0" fill="#3C3C3B" d="M34.375,16.147c1.204,1.229,1.807,2.713,1.807,4.451
			c0,1.751-0.603,3.241-1.807,4.47c-1.205,1.229-2.657,1.844-4.358,1.844c-1.713,0-3.173-0.614-4.377-1.844
			c-1.204-1.229-1.807-2.719-1.807-4.47c0-1.738,0.602-3.222,1.807-4.451c1.204-1.229,2.663-1.844,4.377-1.844
			C31.717,14.303,33.17,14.917,34.375,16.147L34.375,16.147z M28.974,23.168c0,0.286,0.105,0.534,0.316,0.745
			c0.211,0.211,0.466,0.317,0.764,0.317c0.298,0,0.55-0.105,0.754-0.317c0.205-0.211,0.307-0.459,0.307-0.745v-5.196
			c0-0.298-0.102-0.552-0.307-0.764c-0.205-0.211-0.456-0.317-0.754-0.317c-0.298,0-0.553,0.106-0.764,0.317
			c-0.211,0.211-0.316,0.466-0.316,0.764V23.168L28.974,23.168z"/>
		<path id="path6357" inkscape:connector-curvature="0" fill="#3C3C3B" d="M41.845,27.041l-1.824-3.25l-1.768,3.25h-3.991
			l3.801-6.652l-3.592-6.215h4.105l1.502,2.775l1.52-2.775h3.972l-3.516,6.177l3.877,6.69H41.845L41.845,27.041z"/>
	</g>
</g>
</svg>
