<?xml version="1.0" encoding="utf-8"?>
<!-- Generator: Adobe Illustrator 16.0.0, SVG Export Plug-In . SVG Version: 6.00 Build 0)  -->
<!DOCTYPE svg PUBLIC "-//W3C//DTD SVG 1.1//EN" "http://www.w3.org/Graphics/SVG/1.1/DTD/svg11.dtd">
<svg version="1.1" id="Layer_1" xmlns="http://www.w3.org/2000/svg" xmlns:xlink="http://www.w3.org/1999/xlink" x="0px" y="0px"
	 width="728px" height="90px" viewBox="0 0 728 90" enable-background="new 0 0 728 90" xml:space="preserve">
<title>givaudan</title>
<path fill="#FFFFFF" d="M474.988,44.082v-3.744h-5.58v29.07h5.58V54.342c-0.024-1.469,0.072-2.938,0.288-4.392
	c0.642-3.431,3.713-5.865,7.199-5.706c2.96-0.371,5.659,1.729,6.029,4.688c0.037,0.296,0.05,0.594,0.037,0.893
	c0,0.756,0,1.422,0,2.07v17.514h5.58V50.652c0.021-1.268-0.087-2.535-0.324-3.78c-1.044-4.356-4.392-7.2-10.134-7.2
	c-3.418,0.002-6.618,1.676-8.568,4.482L474.988,44.082z M368.23,40.338h-5.67V57.6c-0.012,1.205,0.073,2.409,0.252,3.601
	c1.026,5.85,5.616,9.288,12.15,9.288s11.106-3.42,12.149-9.288c0.189-1.19,0.285-2.395,0.289-3.601V40.338h-5.76v17.586
	c0,4.482-1.801,7.65-6.715,7.65s-6.714-3.168-6.714-7.65V40.338H368.23z M417.73,65.105h-0.234
	c-2.247,3.259-5.979,5.172-9.937,5.095c-8.892,0-14.058-6.841-14.058-15.3c0-8.461,5.706-15.192,14.058-15.192
	c3.984-0.115,7.746,1.831,9.954,5.148h0.234V18.27h5.4v51.138h-5.4v-4.303H417.73z M408.37,65.43c6.192,0,9.45-4.842,9.45-10.565
	s-3.294-10.44-9.45-10.44c-5.778,0-9.198,5.04-9.198,10.44C399.172,60.57,402.106,65.43,408.37,65.43z M339.772,65.43
	c6.21,0,9.45-4.842,9.45-10.565s-3.294-10.44-9.45-10.44c-5.778,0-9.198,5.04-9.198,10.44
	C330.574,60.264,333.868,65.43,339.772,65.43z M349.276,65.07h-0.216c-2.215,3.308-5.975,5.246-9.954,5.13
	c-8.892,0-14.184-6.912-14.184-15.479c0-7.957,5.724-15.013,14.184-15.013c3.989-0.136,7.76,1.814,9.954,5.148h0.234v-4.518h5.184
	v29.07h-5.202V65.07z M444.82,65.43c6.21,0,9.449-4.842,9.449-10.565s-3.294-10.44-9.449-10.44c-5.778,0-9.181,5.04-9.181,10.44
	C435.64,60.264,438.934,65.43,444.82,65.43z M454.306,65.07h-0.216c-2.215,3.308-5.975,5.246-9.954,5.13
	c-8.874,0-14.184-6.912-14.184-15.479c0-7.957,5.724-15.013,14.166-15.013c3.995-0.146,7.777,1.806,9.972,5.148h0.216v-4.518h5.185
	v29.07h-5.185V65.07L454.306,65.07z M308.866,59.004l-8.316-18.666h-6.498l14.742,30.24l14.706-30.24h-6.3l-8.316,18.684
	L308.866,59.004z M290.074,69.408v-29.07h-5.58v29.07H290.074z M291.136,28.008c0-2.127-1.724-3.852-3.852-3.852
	s-3.852,1.725-3.852,3.852c0,2.127,1.725,3.852,3.852,3.852S291.136,30.135,291.136,28.008z M278.14,46.584v1.8
	c0,11.683-7.596,22.032-21.438,22.032c-13.842,0-22.968-11.195-22.968-23.832c0-13.248,9.666-23.67,23.022-23.67
	c7.281-0.07,14.192,3.2,18.756,8.874l-3.996,3.87c-3.457-4.642-8.865-7.426-14.652-7.542c-10.242,0-17.064,8.046-17.064,18.288
	c0,9.828,6.318,18.684,17.28,18.684c7.786,0.228,14.342-5.777,14.796-13.554h-12.6v-4.95H278.14z"/>
</svg>
