<?xml version="1.0" encoding="utf-8"?>
<!-- Generator: Adobe Illustrator 16.0.0, SVG Export Plug-In . SVG Version: 6.00 Build 0)  -->
<!DOCTYPE svg PUBLIC "-//W3C//DTD SVG 1.1//EN" "http://www.w3.org/Graphics/SVG/1.1/DTD/svg11.dtd">
<svg version="1.1"
	 id="svg2" xmlns:rdf="http://www.w3.org/1999/02/22-rdf-syntax-ns#" xmlns:dc="http://purl.org/dc/elements/1.1/" xmlns:cc="http://creativecommons.org/ns#" xmlns:svg="http://www.w3.org/2000/svg"
	 xmlns="http://www.w3.org/2000/svg" xmlns:xlink="http://www.w3.org/1999/xlink" x="0px" y="0px" width="265.063px"
	 height="102.719px" viewBox="0 0 265.063 102.719" enable-background="new 0 0 265.063 102.719" xml:space="preserve">
<path fill="#FFFFFF" d="M182.625,25.063c17.987,0.12,35.949,0.125,53.938,0.125V29.5v5.031l-1.405-0.688h-30.595v14.188h25.095
	l1.938-0.813V58.25l-1.469-0.75h-25.188v16.875l0.406,1.438l-11.469-0.031l-11.25,0.063l0.656-1.375V26.595L182.625,25.063
	L182.625,25.063z"/>
<polygon fill="#FFFFFF" points="24.469,25.188 45.969,25.188 59.344,43.907 72.938,25.188 83.219,25.188 94.063,25.188 92.438,26.5 
	69.657,55.22 69.657,74.47 70.563,75.845 59.313,75.845 48.094,75.845 48.657,74.47 48.657,54.5 25.844,26.188 "/>
<g>
	<g>
		<path fill="#FFFFFF" d="M165.969,31.407c-1.818-2.062-5.582-4.357-8.656-5.281c-2.396-0.721-8.613-0.929-28.813-0.938h-20.156
			l0.937,2.094V74l-1.25,1.845h23.313l-0.813-1.595l0.063-7.78l0.063-9.406l7.75-0.155c9.979-0.232,17.291-0.671,19.405-1.156
			c3.03-0.696,6.756-3.164,8.688-5.719c1.627-2.154,2.139-3.992,2.281-8.188C168.963,36.468,168.325,34.08,165.969,31.407z
			 M148.25,44.095c-0.219,0.621-0.715,1.535-1.094,2.031c-0.863,1.131-3.315,2.293-5.595,2.656c-0.938,0.149-3.812,0.28-6.375,0.281
			h-4.655V32.782h3.219c4.47,0.001,8.592,0.437,10.375,1.094c1.982,0.73,3.795,2.565,4.219,4.25
			C148.77,39.818,148.725,42.751,148.25,44.095z"/>
	</g>
</g>
</svg>
