<?xml version="1.0" encoding="utf-8"?>
<!-- Generator: Adobe Illustrator 16.0.0, SVG Export Plug-In . SVG Version: 6.00 Build 0)  -->
<!DOCTYPE svg PUBLIC "-//W3C//DTD SVG 1.1//EN" "http://www.w3.org/Graphics/SVG/1.1/DTD/svg11.dtd">
<svg version="1.1" id="Capa_1" xmlns="http://www.w3.org/2000/svg" xmlns:xlink="http://www.w3.org/1999/xlink" x="0px" y="0px"
	 width="225px" height="150px" viewBox="0 0 225 150" enable-background="new 0 0 225 150" xml:space="preserve">
<g>
	<path id="path1984" fill="#FFFFFF" d="M111.404,51.491c13.061,0.002,26.121-0.001,39.181,0.001c0,13.05,0.001,26.098,0,39.148
		c-13.061-0.002-26.121-0.002-39.182,0C111.405,77.59,111.402,64.541,111.404,51.491z"/>
	<path id="path6" fill="#3C3C3B" d="M72.228,51.499c13.06,0.002,26.121-0.001,39.179,0.001c0,13.05,0.002,26.099,0,39.148
		c-13.059-0.001-26.12-0.001-39.18,0C72.229,77.599,72.226,64.548,72.228,51.499z"/>
	<path id="path8" fill="#FEFEFE" d="M88.746,54.116c4.815-1.229,10.135-0.228,14.189,2.642c2.117,1.475,3.894,3.43,5.176,5.667
		c-2.753,1.549-5.487,3.136-8.237,4.693c-0.495,0.282-0.999,0.547-1.479,0.855c-0.758-1.301-1.979-2.341-3.408-2.826
		c-0.958-0.36-2.008-0.396-3.016-0.274c-2.922,0.383-5.366,3.1-5.323,6.068c-0.143,2.607,1.612,5.137,4.048,6.027
		c1.811,0.71,3.94,0.486,5.575-0.562c0.887-0.543,1.598-1.331,2.133-2.215c1.845,1.104,3.733,2.136,5.593,3.216
		c1.374,0.775,2.735,1.577,4.117,2.343c-2.295,4.012-6.229,7.071-10.716,8.224c-0.558,0.178-1.143,0.238-1.708,0.38
		c-1.304,0.147-2.621,0.282-3.934,0.155c-3.967-0.221-7.813-1.91-10.723-4.606c-3.019-2.774-5.005-6.648-5.474-10.723
		c-0.528-4.065,0.5-8.3,2.76-11.715C80.711,57.827,84.506,55.123,88.746,54.116z"/>
	<path id="path10" fill="#3C3C3B" d="M114.191,54.303c3.729-0.005,7.46,0.008,11.191-0.008c3.766,4.64,7.467,9.333,11.218,13.984
		c0.007-4.661-0.003-9.32,0.004-13.981c3.73,0.008,7.458,0.007,11.188,0.001c0.005,11.191,0.004,22.381,0.001,33.573
		c-3.735-0.006-7.471,0-11.207-0.003c-3.653-4.575-7.327-9.136-10.976-13.715c-0.072-0.082-0.146-0.162-0.224-0.238
		c0.022,4.651,0.004,9.301,0.01,13.951c-3.735,0.006-7.473,0.001-11.207,0.002C114.191,76.679,114.187,65.491,114.191,54.303z"/>
	<path id="path12" fill="#3C3C3B" d="M73.527,95.854c-0.05-1.09,0.759-2.148,1.814-2.411c1.067-0.351,2.301,0.189,2.852,1.149
		c-0.41,0.287-0.876,0.483-1.28,0.78c-0.193-0.218-0.405-0.467-0.712-0.509c-0.504-0.096-1.055,0.271-1.128,0.786
		c-0.078,0.257,0.043,0.509,0.113,0.752c0.417,0.568,1.356,0.541,1.721-0.071c0.426,0.267,0.871,0.498,1.297,0.765
		c-0.462,0.76-1.32,1.303-2.229,1.221C74.66,98.388,73.472,97.155,73.527,95.854z"/>
	<path id="path14" fill="#3C3C3B" d="M96.195,93.397c0.91-0.198,1.906,0.204,2.46,0.946c0.818,1.041,0.603,2.722-0.479,3.498
		c-0.607,0.513-1.453,0.549-2.199,0.422c-0.616-0.172-1.152-0.593-1.479-1.139c-0.37-0.634-0.404-1.426-0.197-2.118
		C94.588,94.184,95.335,93.54,96.195,93.397z"/>
	<path id="path16" fill="#3C3C3B" d="M101.377,93.45c1.298-0.428,2.837,0.476,3.103,1.813c0.303,1.106-0.293,2.366-1.335,2.843
		c-0.494,0.265-1.074,0.227-1.613,0.186c-0.827-0.148-1.535-0.783-1.826-1.566C99.178,95.42,99.999,93.776,101.377,93.45z"/>
	<path id="path18" fill="#3C3C3B" d="M135.955,93.448c1.429-0.485,3.131,0.671,3.164,2.188c0.111,0.909-0.35,1.828-1.117,2.316
		c-0.57,0.404-1.3,0.412-1.964,0.325c-0.837-0.196-1.531-0.866-1.791-1.68c-0.13-0.512-0.126-1.056,0.018-1.563
		C134.541,94.283,135.17,93.646,135.955,93.448z"/>
	<path id="path20" fill="#3C3C3B" d="M144.699,93.46c0.536-0.001,1.07,0,1.607-0.001c0.002,0.511-0.004,1.021,0.003,1.531
		c0.416-0.492,0.781-1.027,1.182-1.532c0.692,0.004,1.382,0,2.074,0.002c-0.64,0.756-1.233,1.551-1.884,2.298
		c0.652,0.817,1.254,1.672,1.896,2.495c-0.694,0.013-1.388,0.002-2.08,0.006c-0.39-0.603-0.792-1.194-1.192-1.79
		c0,0.598,0,1.193,0.002,1.79c-0.537-0.001-1.072,0-1.608-0.001C144.7,96.658,144.699,95.06,144.699,93.46z"/>
	<path id="path22" fill="#3C3C3B" d="M79.746,93.465c0.805-0.014,1.607,0.003,2.412-0.009c0.361,0.955,0.609,1.949,0.938,2.916
		c0.232,0.62,0.354,1.277,0.607,1.89c-0.58,0.005-1.16-0.001-1.74,0.005c-0.074-0.275-0.124-0.559-0.238-0.82
		c-0.493,0.012-0.987,0.005-1.48,0.006c-0.099,0.269-0.19,0.539-0.275,0.813c-0.564-0.002-1.128-0.002-1.692,0
		C78.742,96.658,79.303,95.078,79.746,93.465z"/>
	<path id="path24" fill="#3C3C3B" d="M84.126,93.461c1.007,0.006,2.014-0.017,3.019,0.012c1.028,0.01,1.844,1.128,1.536,2.11
		c-0.117,0.477-0.473,0.851-0.89,1.091c0.343,0.52,0.633,1.07,0.974,1.59c-0.599,0.003-1.197-0.004-1.796,0.003
		c-0.269-0.461-0.474-0.957-0.74-1.42c-0.164,0.005-0.328,0.009-0.491,0.016c0.001,0.468,0,0.934,0.002,1.401
		c-0.538,0-1.076,0.002-1.613-0.002C84.127,96.662,84.126,95.062,84.126,93.461z"/>
	<path id="path26" fill="#3C3C3B" d="M89.138,94.861c-0.001-0.468,0-0.936,0-1.402c1.606,0.002,3.213,0.001,4.818,0
		c0,0.467,0,0.935,0,1.4c-0.498-0.003-0.997-0.001-1.495-0.003c0,1.136-0.001,2.272,0.001,3.409
		c-0.599-0.002-1.196-0.001-1.794-0.002c0.002-1.135,0-2.271,0.001-3.406C90.158,94.858,89.648,94.855,89.138,94.861z"/>
	<path id="path28" fill="#3C3C3B" d="M105.016,98.266c-0.001-1.602-0.001-3.204,0-4.807c0.529,0.01,1.06-0.014,1.588,0.009
		c0.585,0.606,1.063,1.319,1.612,1.962c-0.012-0.655,0.003-1.311-0.022-1.968c0.535-0.004,1.073-0.002,1.609-0.002
		c0,1.602-0.001,3.203,0.001,4.805c-0.522,0-1.047-0.001-1.569,0.001c-0.546-0.662-1.075-1.34-1.611-2.009
		c-0.013,0.668-0.003,1.338-0.005,2.007C106.084,98.265,105.549,98.262,105.016,98.266z"/>
	<path id="path30" fill="#3C3C3B" d="M113.017,93.461c0.545-0.002,1.089,0,1.635-0.002c0.531,0.658,1.045,1.328,1.589,1.973
		c0.005-0.656,0-1.313,0.002-1.971c0.532-0.002,1.063-0.001,1.594-0.001c-0.001,1.6,0.001,3.2-0.001,4.8
		c-0.525-0.002-1.05-0.003-1.576,0c-0.556-0.633-1.061-1.306-1.586-1.964c-0.017,0.655-0.005,1.309-0.009,1.961
		c-0.549,0.002-1.099,0.002-1.647,0.001C113.018,96.658,113.017,95.06,113.017,93.461z"/>
	<path id="path32" fill="#3C3C3B" d="M118.491,93.46c1.399-0.001,2.799,0,4.198,0c-0.001,0.465,0,0.929-0.001,1.395
		c-0.862-0.004-1.724-0.001-2.585-0.001c-0.001,0.102-0.001,0.307-0.002,0.409c0.735,0.002,1.473,0,2.209,0.001
		c-0.001,0.4-0.001,0.803,0,1.205c-0.736-0.001-1.473-0.001-2.207,0c-0.001,0.163-0.002,0.324-0.001,0.488
		c0.861,0.001,1.723,0.001,2.586-0.001c0.001,0.434,0,0.869,0.001,1.303c-1.399-0.001-2.8,0-4.198-0.001
		C118.492,96.658,118.491,95.06,118.491,93.46z"/>
	<path id="path34" fill="#3C3C3B" d="M123.215,94.851c0.001-0.463,0.001-0.926,0.001-1.391c1.606-0.001,3.211,0.002,4.816-0.001
		c0,0.466,0.001,0.931,0,1.397c-0.503-0.007-1.007-0.003-1.509-0.006c0.002,1.138-0.002,2.274,0.002,3.408
		c-0.603-0.002-1.205,0-1.806-0.001c0.001-1.135-0.002-2.27,0.001-3.404C124.219,94.851,123.717,94.854,123.215,94.851z"/>
	<path id="path36" fill="#3C3C3B" d="M128.402,93.46c0.541,0,1.08-0.001,1.622,0c0.167,0.682,0.228,1.383,0.406,2.063
		c0.259-0.639,0.531-1.272,0.778-1.917c0.304,0.635,0.515,1.309,0.839,1.933c0.044-0.706,0.286-1.377,0.352-2.08
		c0.542,0.003,1.082,0.003,1.621,0c-0.263,1.605-0.621,3.195-0.89,4.799c-0.441,0.003-0.881-0.001-1.321,0.005
		c-0.23-0.415-0.384-0.865-0.598-1.289c-0.181,0.429-0.375,0.853-0.545,1.285c-0.443,0.001-0.886,0-1.329,0.001
		C128.994,96.666,128.731,95.058,128.402,93.46z"/>
	<path id="path38" fill="#3C3C3B" d="M139.609,98.26c0.001-1.602-0.007-3.202,0.004-4.804c0.735,0.008,1.473,0.002,2.21,0.004
		c0.425,0.002,0.859-0.03,1.273,0.094c0.621,0.244,1.132,0.857,1.107,1.549c0.055,0.649-0.363,1.248-0.922,1.543
		c0.285,0.551,0.635,1.067,0.937,1.609c-0.597,0.01-1.191-0.003-1.787,0.009c-0.242-0.472-0.478-0.943-0.719-1.415
		c-0.166-0.004-0.332-0.005-0.497-0.007c-0.002,0.473-0.001,0.945-0.001,1.417C140.679,98.258,140.144,98.257,139.609,98.26z"/>
	<path id="path40" fill="#FFFFFF" d="M81.016,94.789c0.046,0.5,0.28,0.956,0.363,1.449c-0.277,0-0.557,0-0.835,0
		C80.752,95.771,80.786,95.249,81.016,94.789z"/>
	<path id="path42" fill="#3C3C3B" d="M85.737,94.859c0.396,0.009,0.796-0.033,1.189,0.023c0.293,0.189,0.259,0.646-0.077,0.767
		c-0.37,0.024-0.741,0.005-1.111,0.009C85.738,95.391,85.737,95.125,85.737,94.859z"/>
	<path id="path44" fill="#FFFFFF" d="M141.215,94.851c0.384,0.011,0.771-0.025,1.153,0.023c0.292,0.116,0.244,0.469,0.138,0.701
		c-0.414,0.147-0.861,0.064-1.29,0.084C141.215,95.39,141.214,95.121,141.215,94.851z"/>
	<path id="path46" fill="#FFFFFF" d="M96.252,95.064c0.447-0.288,1.113,0.009,1.246,0.511c0.113,0.279,0.003,0.571-0.105,0.832
		c-0.321,0.345-0.896,0.496-1.275,0.156C95.606,96.215,95.675,95.311,96.252,95.064z"/>
	<path id="path48" fill="#FFFFFF" d="M101.438,95.207c0.439-0.465,1.312-0.239,1.463,0.384c0.14,0.284-0.021,0.575-0.131,0.837
		c-0.229,0.185-0.486,0.377-0.8,0.32C101.236,96.724,100.875,95.679,101.438,95.207z"/>
	<path id="path50" fill="#FFFFFF" d="M136.276,95.041c0.536-0.307,1.296,0.188,1.244,0.806c0.063,0.684-0.825,1.173-1.365,0.753
		C135.576,96.269,135.643,95.274,136.276,95.041z"/>
	<path id="path52" fill="#3C3C3B" d="M150.295,96.961c0.348,0,0.694-0.017,1.043,0.001c0.022,0.054,0.068,0.16,0.091,0.213
		c-0.154,0.008-0.308,0.017-0.461,0.023c0.001,0.356,0.001,0.711,0.003,1.066c-0.073,0.005-0.221,0.011-0.295,0.014
		c-0.003-0.363-0.002-0.724-0.001-1.086c-0.126-0.001-0.254-0.002-0.379-0.002C150.296,97.133,150.296,97.019,150.295,96.961z"/>
	<path id="path54" fill="#3C3C3B" d="M151.518,96.95c0.133,0.001,0.267,0.006,0.401,0.015c0.089,0.32,0.15,0.649,0.24,0.971
		c0.074-0.331,0.145-0.661,0.244-0.983c0.121,0.002,0.246,0.004,0.37,0.007c-0.001,0.438-0.001,0.875,0,1.313
		c-0.063,0-0.188,0.001-0.251,0.002c0.005-0.351-0.01-0.702-0.009-1.053c-0.053,0.356-0.137,0.708-0.232,1.055
		c-0.094-0.003-0.189-0.005-0.281-0.006c-0.052-0.347-0.11-0.693-0.211-1.028c-0.024,0.345-0.015,0.689-0.012,1.034
		c-0.067-0.001-0.199-0.004-0.265-0.006C151.516,97.83,151.513,97.389,151.518,96.95z"/>
</g>
</svg>
