<svg xmlns="http://www.w3.org/2000/svg" xmlns:xlink="http://www.w3.org/1999/xlink" version="1.1" width="260" height="52" enable-background="new 0 0 728 90" xml:space="preserve" style=""><rect id="backgroundrect" width="100%" height="100%" x="0" y="0" fill="none" stroke="none"/>
<title>givaudan</title>

<g class="currentLayer" style=""><title>Layer 1</title><path fill="#FFFFFF" d="M241.25397595214844,25.81199954223633 v-3.744 h-5.58 v29.07 h5.58 V36.07199954223633 c-0.024000000000000004,-1.469 0.07200000000000001,-2.938 0.28800000000000003,-4.392 c0.6420000000000001,-3.431 3.713,-5.865 7.199,-5.706 c2.96,-0.37100000000000005 5.659,1.729 6.029,4.688000000000001 c0.037000000000000005,0.29600000000000004 0.05000000000000001,0.5940000000000001 0.037000000000000005,0.8930000000000001 c0,0.7560000000000001 0,1.4220000000000002 0,2.07 v17.514 h5.58 V32.38199954223633 c0.021000000000000005,-1.268 -0.08700000000000002,-2.535 -0.32400000000000007,-3.7800000000000002 c-1.044,-4.356 -4.392,-7.2 -10.134,-7.2 c-3.418,0.0020000000000000005 -6.618,1.6760000000000002 -8.568,4.482 L241.25397595214844,25.81199954223633 zM134.49597595214846,22.06799954223633 h-5.67 V39.32999954223633 c-0.012000000000000002,1.205 0.07300000000000001,2.409 0.252,3.601 c1.026,5.85 5.616,9.288 12.15,9.288 s11.106,-3.42 12.149000000000001,-9.288 c0.18900000000000003,-1.19 0.28500000000000003,-2.395 0.28900000000000003,-3.601 V22.06799954223633 h-5.76 v17.586 c0,4.482 -1.8010000000000002,7.65 -6.715,7.65 s-6.714,-3.168 -6.714,-7.65 V22.06799954223633 H134.49597595214846 zM183.99597595214846,46.83499954223633 h-0.234 c-2.247,3.259 -5.979,5.172 -9.937,5.095 c-8.892,0 -14.058,-6.841 -14.058,-15.3 c0,-8.461 5.706,-15.192 14.058,-15.192 c3.984,-0.11500000000000002 7.746,1.831 9.954,5.148 h0.234 V-4.5776367230132564e-7 h5.4 v51.138 h-5.4 v-4.303 H183.99597595214846 zM174.63597595214844,47.159999542236335 c6.192,0 9.45,-4.8420000000000005 9.45,-10.565 s-3.294,-10.44 -9.45,-10.44 c-5.7780000000000005,0 -9.198,5.04 -9.198,10.44 C165.43797595214846,42.29999954223633 168.37197595214843,47.159999542236335 174.63597595214844,47.159999542236335 zM106.03797595214843,47.159999542236335 c6.21,0 9.45,-4.8420000000000005 9.45,-10.565 s-3.294,-10.44 -9.45,-10.44 c-5.7780000000000005,0 -9.198,5.04 -9.198,10.44 C96.83997595214845,41.99399954223633 100.13397595214843,47.159999542236335 106.03797595214843,47.159999542236335 zM115.54197595214845,46.79999954223632 h-0.21600000000000003 c-2.215,3.308 -5.975,5.246 -9.954,5.13 c-8.892,0 -14.184,-6.912 -14.184,-15.479 c0,-7.957 5.724,-15.013 14.184,-15.013 c3.989,-0.136 7.76,1.814 9.954,5.148 h0.234 v-4.518 h5.184 v29.07 h-5.202 V46.79999954223632 zM211.08597595214843,47.159999542236335 c6.21,0 9.449,-4.8420000000000005 9.449,-10.565 s-3.294,-10.44 -9.449,-10.44 c-5.7780000000000005,0 -9.181,5.04 -9.181,10.44 C201.90597595214842,41.99399954223633 205.19997595214846,47.159999542236335 211.08597595214843,47.159999542236335 zM220.57197595214842,46.79999954223632 h-0.21600000000000003 c-2.215,3.308 -5.975,5.246 -9.954,5.13 c-8.874,0 -14.184,-6.912 -14.184,-15.479 c0,-7.957 5.724,-15.013 14.166,-15.013 c3.995,-0.14600000000000002 7.777,1.806 9.972,5.148 h0.21600000000000003 v-4.518 h5.185 v29.07 h-5.185 V46.79999954223632 L220.57197595214842,46.79999954223632 zM75.13197595214842,40.733999542236326 l-8.316,-18.666 h-6.498 l14.742,30.24 l14.706,-30.24 h-6.3 l-8.316,18.684 L75.13197595214842,40.733999542236326 zM56.33997595214845,51.13799954223633 v-29.07 h-5.58 v29.07 H56.33997595214845 zM57.40197595214846,9.737999542236327 c0,-2.127 -1.7240000000000002,-3.8520000000000003 -3.8520000000000003,-3.8520000000000003 s-3.8520000000000003,1.725 -3.8520000000000003,3.8520000000000003 c0,2.127 1.725,3.8520000000000003 3.8520000000000003,3.8520000000000003 S57.40197595214846,11.86499954223633 57.40197595214846,9.737999542236327 zM44.405975952148424,28.31399954223633 v1.8 c0,11.683 -7.596,22.032 -21.438,22.032 c-13.842,0 -22.968,-11.195 -22.968,-23.832 c0,-13.248 9.666,-23.67 23.022,-23.67 c7.281,-0.07 14.192,3.2 18.756,8.874 l-3.996,3.87 c-3.457,-4.642 -8.865,-7.426 -14.652000000000001,-7.542 c-10.242,0 -17.064,8.046 -17.064,18.288 c0,9.828 6.318,18.684 17.28,18.684 c7.786,0.22800000000000004 14.342,-5.777 14.796,-13.554 h-12.6 v-4.95 H44.405975952148424 z" id="svg_1" class=""/></g></svg>