<?xml version="1.0" encoding="utf-8"?>
<!-- Generator: Adobe Illustrator 16.0.0, SVG Export Plug-In . SVG Version: 6.00 Build 0)  -->
<!DOCTYPE svg PUBLIC "-//W3C//DTD SVG 1.1//EN" "http://www.w3.org/Graphics/SVG/1.1/DTD/svg11.dtd">
<svg version="1.1" id="Capa_1" xmlns="http://www.w3.org/2000/svg" xmlns:xlink="http://www.w3.org/1999/xlink" x="0px" y="0px"
	 width="225px" height="150px" viewBox="0 0 225 150" enable-background="new 0 0 225 150" xml:space="preserve">
<g id="g3844" transform="matrix(1.25,0,0,-1.25,-0.2199509,990.04428)">
	<g id="g5151" transform="matrix(8.5944527,0,0,8.5944527,-293.59374,-5747.142)">
		<path id="path3856" fill="#3C3C3B" d="M45.117,753.844c-0.129-0.055-0.12-0.093-0.538,0.004c-0.07,0.016-0.232,0.01-0.315-0.001
			c-0.032-0.004-0.069,0.016-0.039,0.101c0.046,0.128,0.108,0.133,0.158,0.205c0.022,0.032,0.02,0.105,0.094,0.152
			c0.048,0.031,0.091,0.06,0.143,0.121c0.024,0.032,0.105,0.156,0.23-0.019c0.026-0.034,0.142,0.033,0.174-0.25
			c0.013-0.115,0.107-0.114,0.107-0.202C45.13,753.922,45.175,753.869,45.117,753.844 M46.883,754.121
			c0.125,0.226,0.193,0.176,0.27,0.18c0.235,0.012,0.225-0.106,0.354-0.209c0.048-0.038,0.106-0.297,0.042-0.292
			c-0.118,0.008-0.217-0.024-0.253-0.024c-0.181,0-0.296,0.074-0.444,0.077c-0.077,0.001-0.116,0.015-0.116,0.076
			C46.763,754.004,46.851,754.062,46.883,754.121 M47.994,752.834c-0.069-0.005-0.271-0.112-0.355-0.219
			c-0.109-0.14-0.168-0.212-0.379-0.203c-0.181,0.008-0.245,0.128-0.339,0.179c-0.116,0.063-0.149,0.196-0.166,0.258
			c-0.047,0.17-0.119,0.145-0.119,0.28c0,0.095-0.01-0.008,0.022,0.08c0.045,0,0.086,0.022,0.131,0.021
			c0.104-0.001,0.085-0.033,0.169-0.033c0.084,0,0.159,0.081,0.316,0.05c0.131-0.026,0.135,0.031,0.289-0.07
			c0.11-0.075,0.204,0.018,0.462-0.002c0.137-0.011,0.209,0.071,0.203,0.232c-0.008,0.222-0.028,0.269-0.028,0.336
			c0,0.142,0.036,0.359-0.03,0.54c-0.117,0.32-0.208,0.282-0.299,0.368c-0.13,0.122-0.076,0.153-0.199,0.235
			c-0.11,0.075-0.138,0.118-0.203,0.118c-0.097,0.027-0.164,0.019-0.235-0.008c-0.065-0.025-0.107-0.046-0.243-0.046
			c-0.103,0-0.136,0.028-0.214-0.005c-0.09-0.041-0.26-0.141-0.318-0.236c-0.123-0.203-0.024-0.087-0.121-0.222
			c-0.084-0.108-0.175-0.113-0.214-0.235c-0.052-0.142-0.005-0.191-0.033-0.236c-0.017-0.027-0.068-0.06-0.068-0.148
			c-0.052-0.027-0.059-0.035-0.099-0.031c-0.064,0.007-0.141-0.005-0.143,0.03c-0.006,0.084-0.036,0.172-0.051,0.205
			c-0.079,0.174,0.001,0.327-0.075,0.466c-0.092,0.166-0.151,0.162-0.326,0.352c-0.116,0.129-0.182,0.218-0.305,0.218
			c-0.116,0-0.277,0.051-0.4,0.003c-0.2-0.068-0.182-0.038-0.253-0.12c-0.109-0.127-0.166-0.097-0.241-0.116
			c-0.163-0.041-0.239-0.182-0.263-0.23c-0.039-0.079-0.052-0.208-0.204-0.318c-0.1-0.073-0.101-0.21-0.113-0.326
			c-0.014-0.142-0.006-0.24-0.002-0.24c-0.033,0-0.088-0.001-0.146-0.003c-0.42-0.013-0.514-0.145-0.514-0.396
			c0-0.244-0.044-0.24-0.088-0.337c-0.16-0.359-0.108-0.452-0.123-0.511c-0.059-0.226-0.188-0.084-0.377-0.086
			c-0.19-0.002-0.262-0.046-0.262,0.273c0,0.156,0.042,0.235,0.003,0.384c-0.039,0.163-0.014,0.38,0.049,0.522
			c0.076,0.173,0.068,0.238,0.029,0.442c-0.032,0.142-0.049,0.176-0.049,0.23c0,0.095-0.021,0.313-0.033,0.371
			c-0.005,0.025-0.065,0.242-0.003,0.321c0.034,0.043,0.194,0.148,0.222,0.245c0.044,0.149-0.108,0.3-0.142,0.367
			c-0.075,0.146-0.187,0.168-0.317,0.149c-0.051-0.008-0.109-0.022-0.161-0.022c-0.071,0-0.116-0.049-0.188-0.049
			c-0.084,0-0.119-0.042-0.201-0.072c-0.024-0.009-0.125-0.117-0.151-0.192c-0.032-0.095-0.03-0.125,0.003-0.22
			c0-0.061,0.061-0.088,0.1-0.142c0.041-0.051,0.06-0.039,0.081-0.112c0.008-0.026,0.014-0.06,0.014-0.094
			c0.026-0.068,0.013-0.115,0.022-0.197c0.007-0.066,0.061-0.157,0.061-0.205c0-0.081,0-0.041,0-0.122
			c0-0.068-0.013-0.102-0.013-0.163c0-0.047,0.045-0.106,0.045-0.153c0-0.054,0-0.095,0-0.149c0-0.095-0.017-0.14-0.032-0.213
			c-0.023-0.106-0.064-0.17-0.071-0.279c-0.013-0.211,0.022-0.257,0.022-0.329c0-0.142-0.008-0.126-0.008-0.268
			c0-0.088,0.048-0.164,0.039-0.315c-0.005-0.081-0.02-0.145-0.052-0.22c-0.026-0.068-0.074-0.121-0.084-0.176
			c-0.006-0.033,0.007-0.054,0.007-0.088c0-0.081,0.062-0.118,0.12-0.166c0.045-0.034,0.1-0.078,0.145-0.084
			c0.077-0.011,0.129,0.024,0.214,0.024c0.065,0,0.111,0.037,0.175,0.05c0.045,0.01,0.074,0.024,0.12,0.024
			c0.084,0,0.145-0.038,0.229-0.038c0.071,0,0.11,0.008,0.181,0.008c0.097,0,0.089,0.024,0.186,0.024
			c0.084,0,0.242-0.014,0.299-0.028c0.055-0.013,0.175-0.023,0.259,0.045c0.077,0.061,0.118,0.15,0.135,0.254
			c0.01,0.061,0.013,0.196,0.013,0.318c0,0.102,0.003,0.196,0.036,0.269c0.03,0.066,0.036,0.092,0.069,0.153
			c0.07,0.126,0.042,0.146,0.061,0.221l0.042,0.059c0.026,0,0.055,0.007,0.075-0.002c0.029-0.014,0.057-0.032,0.052-0.098
			c-0.012-0.161,0.019-0.198,0.019-0.273c0-0.054,0.017-0.101,0.055-0.149c0-0.027,0.042-0.031,0.064-0.055
			c0.018-0.02,0.022-0.049,0.032-0.081c0.026-0.085,0.035-0.149,0.067-0.231c0-0.01,0.061-0.11,0.077-0.129
			c0.042-0.051,0.062-0.071,0.101-0.105c0.026,0,0.045-0.03,0.077-0.03c0.032,0,0.065-0.03,0.097-0.03
			c0.032,0,0.052-0.045,0.084-0.045c0.039,0,0.062-0.046,0.094-0.046c0.045,0,0.078-0.059,0.122-0.066
			c0.149-0.023,0.144-0.046,0.256,0.031c0.089,0.062,0.283,0.028,0.443,0.106c0.188,0.092,0.289,0.079,0.372,0.464
			c0.02,0.094-0.02,0.463-0.153,0.48c-0.061,0.008-0.103,0.003-0.168-0.076c-0.004-0.005-0.116-0.053-0.177-0.14
			c-0.088-0.126-0.073-0.112-0.181-0.163c-0.101-0.048-0.338,0.008-0.375,0.021c-0.088,0.032-0.104,0.047-0.123,0.101
			c-0.016,0.045-0.058,0.129-0.097,0.19c-0.071,0.109-0.046,0.101-0.065,0.262c-0.006,0.053-0.065,0.163-0.02,0.19
			c0,0,0.039,0.009,0.071,0.017c0.102,0.023,0.363-0.153,0.64-0.042c0.132,0.053,0.262,0.071,0.489,0.04
			c0.171-0.023,0.196-0.052,0.416,0c0.075,0.018,0.11,0.017,0.174,0.017c-0.014,0-0.009-0.027-0.013-0.118
			c-0.004-0.116,0.01-0.21,0.042-0.332c0.032-0.095,0.1-0.17,0.126-0.241c0.019-0.052,0.072-0.188,0.084-0.207
			c0.045-0.081,0.121-0.092,0.213-0.258c0.045-0.082,0.091-0.094,0.233-0.216c0.037-0.032,0.136-0.084,0.206-0.114
			c0.215-0.091,0.207-0.038,0.304-0.03c0.123,0.011,0.209-0.03,0.33,0.062c0.114,0.087,0.107,0.067,0.175,0.088
			c0.09,0.028,0.166,0.098,0.277,0.192C48.425,752.419,48.086,752.841,47.994,752.834"/>
		<path id="path3858" fill="#3C3C3B" d="M47.951,755.876c-0.017,0.009-0.044,0.014-0.082,0.014h-0.058v-0.135h0.061
			c0.028,0,0.05,0.003,0.064,0.008c0.026,0.01,0.04,0.03,0.04,0.058C47.976,755.848,47.968,755.866,47.951,755.876 M47.878,755.936
			c0.047,0,0.082-0.005,0.104-0.014c0.039-0.016,0.059-0.048,0.059-0.096c0-0.034-0.012-0.059-0.037-0.075
			c-0.013-0.008-0.031-0.015-0.054-0.018c0.029-0.005,0.051-0.017,0.064-0.037c0.014-0.02,0.02-0.039,0.02-0.058v-0.028
			c0-0.009,0-0.018,0.001-0.028c0.001-0.01,0.002-0.016,0.003-0.02l0.002-0.005h-0.062c0,0.001-0.001,0.002-0.001,0.004
			s-0.001,0.003-0.001,0.004l-0.001,0.012v0.03c0,0.043-0.012,0.072-0.036,0.086c-0.014,0.008-0.039,0.012-0.075,0.012h-0.053
			v-0.148h-0.067v0.377H47.878z M47.675,755.955c-0.058-0.058-0.086-0.127-0.086-0.209c0-0.082,0.029-0.152,0.086-0.21
			c0.058-0.058,0.128-0.087,0.21-0.087c0.082,0,0.152,0.029,0.21,0.087c0.058,0.058,0.086,0.128,0.086,0.21
			c0,0.082-0.029,0.151-0.086,0.209c-0.058,0.058-0.128,0.087-0.21,0.087C47.803,756.042,47.733,756.013,47.675,755.955
			 M48.128,755.503c-0.067-0.067-0.148-0.101-0.243-0.101c-0.095,0-0.176,0.034-0.243,0.101c-0.066,0.067-0.1,0.148-0.1,0.244
			c0,0.094,0.034,0.175,0.101,0.242c0.067,0.067,0.148,0.1,0.242,0.1c0.095,0,0.176-0.033,0.243-0.1
			c0.067-0.067,0.101-0.147,0.101-0.242C48.228,755.652,48.195,755.57,48.128,755.503"/>
	</g>
</g>
</svg>
