<?xml version="1.0" encoding="utf-8"?>
<!-- Generator: Adobe Illustrator 16.0.0, SVG Export Plug-In . SVG Version: 6.00 Build 0)  -->
<!DOCTYPE svg PUBLIC "-//W3C//DTD SVG 1.1//EN" "http://www.w3.org/Graphics/SVG/1.1/DTD/svg11.dtd">
<svg version="1.1" id="svg3130" xmlns:svg="http://www.w3.org/2000/svg"
	 xmlns="http://www.w3.org/2000/svg" xmlns:xlink="http://www.w3.org/1999/xlink" x="0px" y="0px" width="462px" height="288.571px"
	 viewBox="287.5 0 462 288.571" enable-background="new 287.5 0 462 288.571" xml:space="preserve">
<path id="path363" fill="#494949" d="M537,279.774c75.682,0,137.035-61.354,137.035-137.036C674.035,67.056,612.682,5.703,537,5.703
	c-75.682,0-137.036,61.354-137.036,137.035C399.964,218.42,461.318,279.774,537,279.774"/>
<path id="path365" fill="#FFFFFF" d="M422.93,114.091c0,0,53.597,151.698,53.212,151.506c1.59,0.77,5.64,2.531,8.577,3.827
	l40.515-127.922c4.921-16.252,12.009-27.259,26.854-27.259l21.508,0.051v110.96h-22.146c0,0-4.303,0.031-4.303,4.83
	c0,4.456,4.303,4.74,4.303,4.74h68.037c0,0,4.364-0.284,4.364-4.801c0-4.627-4.364-4.77-4.364-4.77h-21.902v-110.96h21.902
	c0,0,4.364-0.203,4.364-4.83c0-4.749-4.364-4.759-4.364-4.759h-21.902V52.404c0.455-10.46,7.574-14.379,13.902-14.379
	c5.863,0,13.943,1.549,14.643,14.723c0,0-0.264-1.661-4.617-1.661c-5.124,0-10.329,4.03-9.975,12.577
	c0.232,5.69,4.861,10.439,11.604,10.439c6.237,0,11.007-6.156,11.473-10.389c1.489-13.7-4.83-20.444-6.937-23.188
	c-1.428-2.258-5.701-5.58-8.313-6.916c-2.613-1.276-5.55-2.106-9.56-2.106c-18.49,0-36.14,15.503-36.14,37.547
	c0,9.468,0.01,35.654,0.01,35.654h-72.127c0,0-4.334,0.132-4.334,4.638c0,4.749,4.334,4.8,4.334,4.8
	c18.357,0.101,20.971,6.592,13.063,30.489l-26.642,85.393l-38.448-115.852l12.921-0.081c0,0,4.395,0,4.395-4.749
	c0-4.506-4.395-4.739-4.395-4.739h-57.101c-0.962,2.602-2.086,7.655-2.41,9.488H422.93z"/>
</svg>
