<?xml version="1.0" encoding="utf-8"?>
<!-- Generator: Adobe Illustrator 16.0.0, SVG Export Plug-In . SVG Version: 6.00 Build 0)  -->
<!DOCTYPE svg PUBLIC "-//W3C//DTD SVG 1.1//EN" "http://www.w3.org/Graphics/SVG/1.1/DTD/svg11.dtd">
<svg version="1.1" id="Capa_1" xmlns="http://www.w3.org/2000/svg" xmlns:xlink="http://www.w3.org/1999/xlink" x="0px" y="0px"
	 width="1200px" height="1200px" viewBox="0 0 1200 1200" enable-background="new 0 0 1200 1200" xml:space="preserve">
<g transform="matrix(1.25 0 0 -1.25 -279.62 519.24)">
	<g transform="matrix(.25 0 0 .25 224.45 297.78)">
		<path fill="#606060" d="M5539.44-712.265c0,0,50.629-207.494,58.71-241.169c9.443-39.311,26.44-53.772,75.438-44.022
			l31.612,128.639c8.019,31.95,13.388,54.728,18.541,87.236h0.902c3.613-32.822,8.778-55.381,15.359-87.341
			c0,0,12.885-58.4,19.473-89.077c6.609-30.655,25-49.995,72.99-39.458l75.347,285.158h-60.831l-25.719-123.286
			c-6.916-35.894-13.193-63.941-18.037-96.753h-0.854c-4.391,32.497-9.979,59.419-17.016,94.388l-26.778,125.651h-63.368
			l-28.66-122.477c-8.097-37.239-15.69-67.284-20.531-98.992h-0.868c-4.938,29.856-11.522,67.642-18.663,103.661
			c0,0-17.016,87.605-22.984,117.808h-64.05L5539.44-712.265z M6119.281-712.265v-285.181h57.909v60.556v224.625H6119.281
			L6119.281-712.265z M6934.887-712.265V-922.64c0-29.016,5.459-49.344,17.144-61.755c10.19-10.853,27-17.898,47.144-17.898
			c17.116,0,33.966,3.259,41.895,6.205l-0.741,45.264c-5.909-1.441-12.7-2.609-21.997-2.609c-19.719,0-26.344,12.631-26.344,38.681
			v80.483h50.438v54.561h-50.438v67.444H6934.887L6934.887-712.265z M5989.859-778.383c-35.984,0-64.553-10.097-80.131-19.109
			l11.409-39.026c14.244,8.992,36.928,16.438,58.419,16.438c35.578,0.095,41.384-20.119,41.384-33.075v-3.07
			c-77.496,0.125-126.478-26.703-126.478-81.389c0-33.38,24.925-64.677,68.274-64.677c26.679,0,48.997,10.653,62.363,27.7h1.315
			c0,0,8.859-37.019,57.641-22.863c-2.563,15.406-3.391,31.844-3.391,51.636v76.183
			C6080.666-821.091,6059.931-778.383,5989.859-778.383L5989.859-778.383z M6336.275-778.383c-36.234,0-52.519-18.372-62.4-33.938
			h-0.862v29.089h-55.253v-214.224h58.216v125.642c0,5.878,0.672,12.114,2.734,17.531c4.815,12.652,16.584,27.448,35.371,27.448
			c23.494,0,34.484-19.856,34.484-48.523v-122.099h58.156v127.167c0,5.627,0.77,12.389,2.429,17.363
			c4.781,14.387,17.469,26.102,34.928,26.102c23.813,0,35.247-19.528,35.247-53.245v-117.386h58.209v126.189
			c0,66.528-33.797,92.883-71.94,92.883c-16.891,0-30.225-4.237-42.281-11.631c-10.128-6.227-19.203-15.07-27.122-26.691h-0.862
			c-9.225,23.094-30.865,38.322-59.068,38.322H6336.275z M6655.978-778.383c-35.994,0-64.554-10.097-80.138-19.109l11.416-39.026
			c14.228,8.992,36.94,16.438,58.418,16.438c35.547,0.095,41.369-20.119,41.369-33.075v-3.07
			c-77.503,0.125-126.463-26.703-126.463-81.389c0-33.38,24.926-64.677,68.294-64.677c26.659,0,48.976,10.653,62.322,27.7h1.325
			c0,0,8.85-37.019,57.652-22.863c-2.578,15.406-3.387,31.844-3.387,51.636v76.183c0,48.545-20.744,91.253-90.822,91.253H6655.978z
			 M6897.734-778.383c-22.29,0-47.662-14.387-58.3-45.231h-1.625v40.403H6785.4v-214.244h59.743v109.698
			c0,5.92,0.363,11.084,1.288,15.817c4.428,22.978,21.997,37.67,47.222,37.67c6.932,0,11.888-0.745,17.247-1.514v56.075
			C6906.403-778.793,6903.334-778.383,6897.734-778.383L6897.734-778.383z M6022.819-894.182v-26.733
			c0-3.955-0.338-8.036-1.438-11.611c-4.484-14.828-19.859-27.386-39.085-27.386c-16.021,0-28.753,9.097-28.753,28.342
			C5953.543-902.133,5985.934-893.993,6022.819-894.182L6022.819-894.182z M6688.918-894.182v-26.733
			c0-3.955-0.341-8.036-1.428-11.611c-4.476-14.828-19.851-27.386-39.088-27.386c-16.021,0-28.763,9.097-28.763,28.342
			c0,29.436,32.413,37.577,69.291,37.387H6688.918z"/>
		<path fill="#C2C2C2" d="M7355.531-609.14c-18.693,0-33.553-10.444-33.553-23.158l11.353-128.555
			c1.257-7.741,10.747-13.725,22.216-13.725c11.497,0.011,20.94,5.984,22.219,13.725l11.403,128.555
			c0,12.714-14.885,23.158-33.622,23.158H7355.531z M7170.518-712.265c-9.712-0.233-20.734-7.572-27.753-19.752
			c-9.381-16.184-7.716-34.273,3.253-40.636l117.004-54.486c7.315-2.714,17.243,2.481,22.984,12.387l0,0
			c5.777,9.97,5.331,21.17-0.757,26.134l-105.672,74.12C7176.837-712.907,7173.756-712.193,7170.518-712.265L7170.518-712.265z
			 M7540.562-712.265c-3.24,0.072-6.325-0.642-9.06-2.231l-105.688-74.12c-6.043-4.964-6.49-16.164-0.746-26.123l0.009-0.011
			c5.76-9.895,15.65-15.102,22.963-12.367l117.063,54.466c11.024,6.362,12.597,24.452,3.281,40.636
			c-7.047,12.158-18.091,19.519-27.791,19.752H7540.562z M7267.393-881.888c-1.509,0.02-2.972-0.22-4.359-0.716l-116.993-54.433
			c-10.984-6.373-12.647-24.474-3.26-40.691c9.359-16.162,25.838-23.85,36.807-17.509l105.685,74.069
			c6.078,5.026,6.524,16.216,0.746,26.166l0.051-0.022C7281.4-886.915,7273.95-881.972,7267.393-881.888L7267.393-881.888z
			 M7443.725-881.888c-6.557-0.084-13.988-5.027-18.663-13.136l0.038,0.022c-5.754-9.95-5.307-21.139,0.734-26.166l105.688-74.069
			c10.959-6.341,27.459,1.347,36.85,17.509c9.318,16.217,7.74,34.317-3.281,40.691l-117.019,54.412
			C7446.7-882.108,7445.228-881.868,7443.725-881.888L7443.725-881.888z M7355.515-935.175c-11.453,0-20.915-5.953-22.162-13.692
			l-11.362-128.545c0-12.736,14.859-23.158,33.556-23.158c18.737,0,33.622,10.422,33.622,23.158l-11.378,128.545
			c-1.278,7.739-10.737,13.692-22.229,13.692H7355.515L7355.515-935.175z"/>
	</g>
</g>
</svg>
