<?xml version="1.0" encoding="utf-8"?>
<!-- Generator: Adobe Illustrator 16.0.0, SVG Export Plug-In . SVG Version: 6.00 Build 0)  -->
<!DOCTYPE svg PUBLIC "-//W3C//DTD SVG 1.1//EN" "http://www.w3.org/Graphics/SVG/1.1/DTD/svg11.dtd">
<svg version="1.1" id="Capa_1" xmlns="http://www.w3.org/2000/svg" xmlns:xlink="http://www.w3.org/1999/xlink" x="0px" y="0px"
	 width="500px" height="500px" viewBox="0 0 500 500" enable-background="new 0 0 500 500" xml:space="preserve">
<g>
	<path fill="#DADADA" stroke="#FFFFFF" stroke-width="0.6238" stroke-miterlimit="10" d="M188.945,107.451
		c-0.858-1.179-3.114,0.211-5.479-1.396c-0.618-0.424-1.386-0.774-2.182-1.071c-0.056,0.036-0.104,0.079-0.182,0.107
		c-0.506,0.146-2.063,1.545-3.567,2.976c1.698,1.336,8.017,3.326,9.745,3.326c0.813,0,1.25-0.367,1.618-0.668
		C189.142,109.161,189.234,107.848,188.945,107.451z"/>
	<path fill="#DADADA" stroke="#FFFFFF" stroke-width="0.6238" stroke-miterlimit="10" d="M194.208,110.78
		c0.214-0.43-1.288-2.9,1.611-3.118c2.9-0.211,5.047-0.536,5.479-2.362c0.428-1.824,3.866-0.964,4.833-1.072
		c0.797-0.089,3.358-2.449,5.86-2.353c0.037-2.445-3.282-1.654-5.574-3.948c-2.449-2.444-7.788-1.333-10.682-0.219
		c-2.894,1.111-6.229-1.226-9.345,0.555c-0.038,0.019-0.07,0.032-0.11,0.051c-0.679,0.858-1.615,1.916-2.706,2.798
		c-2.096,1.701-1.521,3.382-2.289,3.87c0.795,0.297,1.564,0.647,2.182,1.071c2.364,1.608,4.62,0.217,5.479,1.396
		c0.289,0.397,0.197,1.71-0.046,3.272c0.437-0.354,0.771-0.604,1.496,0c0.652,0.543,0.534,1.222,0.45,1.889l1.858-0.436
		C192.703,112.176,193.994,111.211,194.208,110.78z"/>
	<path fill="#DADADA" stroke="#FFFFFF" stroke-width="0.6238" stroke-miterlimit="10" d="M168.97,96.6
		c0.535-0.108,6.12,0.647,6.656-0.752c0.54-1.394-4.186-4.507-3.651-4.832c0.537-0.321,0.752-3.76,1.611-3.76
		c0.859,0,8.7,0.217,9.129,0c0.43-0.211,1.934-3.007,3.223-3.114c0.589-0.046,1.509,0.67,2.342,1.459
		c1.443-1.34,1.954-4.36,2.229-6.808c0.333-3.005-0.67-4.007,0.889-5.674c1.558-1.672,3.227-1.781,2.78-4.119
		c-0.444-2.337-2.558,0-4.339-1.11c-1.779-1.114-3.336-0.333-7.899,0.334c-4.562,0.665-6.674,2.558-6.455,5.783
		c0.224,3.228-1.556,1.781-1.445,4.561c0.111,2.784-3.56,2.893-3.337,4.564c0.224,1.667-2.893,0-3.784-0.558
		c-0.888-0.556-10.459,2.336-11.794,2.559s-3.783-2.78-5.674-2.668c-1.891,0.109-2.668-2.783-2.894-5.121
		c-0.222-2.334-3.781-4.45-5.337-6.563c-1.559-2.115-1.782-6.79-1.891-9.793c-0.114-3.002-0.447-8.123,1.666-14.018
		c0.285-0.792,0.416-1.479,0.452-2.093c-0.77-0.476-1.521-0.816-2.089-0.782c-1.899,0.119-6.18-2.496-7.013-2.496
		c-0.831,0-0.713-2.021-1.425-3.092c-0.714-1.07-0.239-3.093-1.189-3.804c-0.952-0.712-3.804-3.445-4.752-6.775
		c-0.952-3.328-6.776-4.991-8.915-5.108c-2.14-0.121-3.331,4.399-3.924,4.633c-0.592,0.239-4.634-2.376-5.824-2.971
		s-1.782-1.783-1.782-3.208c0-1.429-2.498-3.688-3.21-3.922c-0.714-0.239-5.705-5.113-5.705-5.113h-7.847l-1.663,2.138
		l-14.261,0.119c0,0-10.936-4.041-12.958-4.514c-2.02-0.475-5.586-2.973-5.586-2.973L41.766,8.524
		c0.592,1.267,1.417,2.642,2.654,4.18c2.337,2.892,4.007,8.009,4.23,9.789c0.222,1.782,3.447,3.229,6.231,5.01
		c2.781,1.777,2.781,5.673,2.445,6.672c-0.333,1.002-3.783-0.666-4.002,0.333c-0.224,1.002,4.449,4.897,6.228,4.674
		c1.781-0.224,2.671,0.89,5.453,3.339c2.78,2.447,2.56,5.339,1.445,6.229c-1.112,0.892,2.227,2.783,5.787,5.118
		c3.559,2.336,5.007,5.229,5.341,6.453c0.333,1.226,1.891,0.115,2.447-1.558c0.557-1.667-1.111-2.113-1.111-4.004
		c0-1.894-2.895-1.56-4.23-1.779c-1.335-0.224,0.113-3.116-1.222-4.451c-1.337-1.335-2.56-4.675-3.227-7.122
		c-0.668-2.449-4.118-4.893-5.563-7.563c-1.447-2.673-3.002-4.784-4.005-5.454c-1.002-0.667,1.446-1.669,0.556-2.668
		c-0.891-1.001-2.226-0.892-3.895-1.671c-1.668-0.777-2.78-2.111-2.78-3.893c0-1.781-1.114-6.006-1.669-7.454
		c-0.557-1.448,1.225-1.223,1.78-0.559c0.556,0.667,1,1.335,1.781,0.892c0.777-0.443,2.112-0.112,2.669,1.114
		c0.556,1.221,2.448,0.109,3.337,0.667c0.891,0.554-2.002,1.223,0.891,6.341c2.895,5.117,0.89,2.225,0.89,5.673
		c0,3.451,1.782,1.893,2.336,1.335c0.558-0.556,2.115,1.111,3.563,2.893c1.444,1.781,4.227,1.891,4.227,2.893
		s0.556,3.004,2.449,3.339c1.89,0.333,2.223,2.446,3.447,2.67c1.225,0.222,1.446,1.558,0.779,3.002c-0.667,1.447,0,2.67,3.116,3.895
		c3.113,1.225,1.667,1.446,4.116,3.784c2.447,2.337,9.345,9.901,10.792,12.017c1.447,2.113,1.891,3.891,2.448,5.449
		c0.557,1.557-1.113,2.338-0.222,3.672c0.887,1.337-1.669,0.779-1.558,1.781c0.111,1.002,1.558,6.007,4.004,6.231
		c2.448,0.222,5.23,3.224,7.233,4.896c2.001,1.667,5.005,1.333,8.012,2.447c3.002,1.111,5.56,3.782,9.9,5.007
		c4.338,1.224,8.567,3.115,11.349,4.896c2.784,1.779,6.231,1.002,10.125-0.558c3.895-1.557,6.899,0.444,9.125,1.335
		c1.096,0.438,3.247,2.281,5.398,4.201C166.829,99.199,168.718,96.653,168.97,96.6z"/>
	<path fill="#DADADA" stroke="#FFFFFF" stroke-width="0.6238" stroke-miterlimit="10" d="M183.574,101.113
		c1.091-0.883,2.027-1.94,2.706-2.798c-1.743,0.945-2.274,0.042-2.02-1.187l-2.51,0.334l0.257-10.136
		c-2.026,0.085-7.696-0.071-8.421-0.071c-0.858,0-1.074,3.439-1.611,3.76c-0.535,0.325,4.19,3.438,3.651,4.832
		c-0.537,1.399-6.122,0.644-6.656,0.752c-0.251,0.053-2.141,2.599-4.104,5.418c2.217,1.969,4.432,4.021,5.503,4.701
		c2.114,1.333,5.563-0.113,7.009,1.223c0.043,0.037,0.105,0.08,0.159,0.123c1.504-1.431,3.061-2.83,3.567-2.976
		C182.18,104.766,181.32,102.94,183.574,101.113z"/>
	<path fill="#DADADA" stroke="#FFFFFF" stroke-width="0.6238" stroke-miterlimit="10" d="M182.715,87.256
		c-0.066,0.037-0.332,0.059-0.708,0.071l-0.257,10.136l2.51-0.334c0.181-0.871,0.751-1.898,1.575-2.537
		c2.001-1.557-1.003-7.788,1.335-8.344c0.428-0.107,0.787-0.349,1.112-0.65c-0.832-0.79-1.755-1.501-2.345-1.455
		C184.648,84.249,183.145,87.044,182.715,87.256z"/>
	<path fill="#DADADA" stroke="#FFFFFF" stroke-width="0.6238" stroke-miterlimit="10" d="M262.383,75.678
		c-2.227,1.557,3.338,4.896,3.338,6.896c0,2.001-8.931-0.378-9.794,1.782c-0.443,1.11,3.116,2.668,6.456,1.557
		c3.107-1.036,5.241,0.044,6.961,0.916c0.25-3.369,0.633-7.172,0.987-9.752C267.51,76.354,264,74.54,262.383,75.678z"/>
	<path fill="#DADADA" stroke="#FFFFFF" stroke-width="0.6238" stroke-miterlimit="10" d="M275.955,84.799
		c4.007-1.334,10.46,1.114,10.46-2.001c0-3.116-10.683-6.454-13.352-5.563c-0.728,0.239-1.684,0.115-2.732-0.158
		c-0.354,2.58-0.737,6.383-0.987,9.752c0.128,0.068,0.258,0.135,0.38,0.195C271.505,87.915,271.949,86.135,275.955,84.799z"/>
	<path fill="#DADADA" stroke="#FFFFFF" stroke-width="0.6238" stroke-miterlimit="10" d="M202.221,122.601
		c1.103,0.553,3.86,0,4.965,0.826c0.535,0.402,1.441,0.412,2.482,0.275c-0.319-0.465-0.568-0.843-0.69-1.075
		c-0.778-1.445,0.556-4.336,1.224-6.453c0.667-2.116-0.557-7.23,0.667-8.566c1.225-1.334,0.556-2.114,1.112-5.229
		c0.035-0.202,0.012-0.34,0.012-0.504c-2.501-0.096-5.063,2.264-5.86,2.353c-0.967,0.107-4.404-0.752-4.833,1.072
		c-0.432,1.826-2.58,2.15-5.479,2.362c-2.899,0.217-1.396,2.688-1.611,3.118c-0.215,0.432-1.505,1.396-1.505,1.396l-1.858,0.436
		c-0.086,0.695-0.135,1.382,0.774,1.896c1.779,0.998,4.228,4.895,6.119,5.896c0.909,0.479,1.472,1.269,1.717,2.034
		C200.546,122.354,201.652,122.315,202.221,122.601z"/>
	<path fill="#DADADA" stroke="#FFFFFF" stroke-width="0.6238" stroke-miterlimit="10" d="M364.518,354.052
		c3.116-2.228,2.34-3.559,3.782-6.23c1.446-2.674,0.225-3.783,2.672-6.122c2.449-2.335-0.445-3.893,2.67-5.337
		c3.117-1.446,2.671,1.335,0.111,4.559c-2.56,3.229-3.005,4.118,0.335,1.673c3.336-2.449,4.563-5.897,6.451-9.794
		c1.893-3.894,3.34-5.115,5.009-5.341c1.667-0.221,1.667-4.338,1.445-7.229c-0.223-2.896-1.111-5.564,0.109-7.454
		c1.226-1.891,0-3.673,1.561-3.673c1.559,0,3.894-2.337,6.342-4.786c2.448-2.446,4.005-2.667,6.563-2.894
		c2.56-0.221,1.113-1.111,2.784-1.558c1.665-0.442,2.779-2,3.894-3.002c1.111-1.003,5.673,0.11,8.343,0.11
		c2.671,0,4.45,0.225,4.45-1.444c0-1.668,1.224-3.008,2.784-3.008c1.554,0,2.226-0.442,2.226-2.668s0.664-3.559,2-4.562
		c1.334-1.002,1.559-3.226,2.002-4.674c0.445-1.446,1.892-0.556,1.892-2.669c0-2.112,0.778-4.449,0.778-6.119
		s1.779-1.447,2.561-2.671c0.78-1.224-0.668-2.782,0.555-6.231c1.224-3.448,0-6.673,0-9.789c0-3.115,0-6.343,1.113-7.345
		c1.115-0.998,0.556-1.557-0.333-2.003c-0.891-0.443,0.112-1.669,0.889-1.444c0.778,0.222,1.67,1.89,3.117,1.001
		c1.446-0.891,2.781-4.674,4.003-7.788c1.227-3.118,3.229-3.005,4.785-3.674c1.56-0.667,4.899-4.45,7.012-9.902
		c2.11-5.449-0.113-10.791-1.002-14.575c-0.892-3.785-2.116-3.006-4.338-2.891c-2.229,0.109-6.457-0.447-12.019-6.456
		c-5.563-6.007-11.015-5.561-14.686-4.562c-3.672,1.004-7.454-1.78-9.903-2.334c-2.445-0.556-4.783,2.559-6.563,3.227
		c-1.78,0.665,0.892-2.672,1.003-4.784c0.111-2.115-6.679-5.12-11.796-7.122c-5.117-2.003-7.342-1-7.342,2.225
		c0,3.228-2.003-1.001-3.561,2.447c-1.56,3.451-4.452,1.223-2.56,0.112c1.892-1.11,3.671-3.672,4.338-5.785
		c0.669-2.115-7.342-3.785-10.123-2.671c-2.781,1.113-1.003,5.12-3.229,3.894c-2.224-1.223-0.446-4.228,1.336-4.117
		c1.781,0.114,3.785-3.559,5.009-6.229c1.223-2.67-2.116-3.117-4.119-5.342c-1.979-2.201-1.571-8.623-3.601-9.633
		c-2.177,2.152-5.104,5.524-5.928,7.996c-1.06,3.166-2.412,1.356-5.272,2.262c-2.863,0.904-4.221-0.305-4.972-1.506
		c-0.751-1.212-3.616,0-5.573-0.154c-1.957-0.151-0.752,2.41-2.108,3.166c-1.354,0.753-4.82-1.505-6.024-0.152
		c-1.204,1.355-1.957,0-2.56,1.205c-0.605,1.207-2.712,0.452-3.314,1.207c-0.604,0.75-2.708,1.202-5.423-1.808
		c-2.713-3.009-2.262-7.984-1.054-8.888c1.204-0.9,1.204-3.462-0.452-4.218c-1.656-0.749,0-3.914-2.108-4.215
		s-1.808,2.409-3.161,2.861c-1.356,0.453-4.67,2.712-6.179,2.412c-1.505-0.302-3.465,0.3-3.465,1.955
		c0,1.661-1.654,1.206-1.955-0.15c-0.301-1.351-3.463-0.601-4.368-1.505c-0.903-0.904-5.12-0.454-3.313,0.603
		c1.806,1.052,1.958,2.11,1.958,3.765c0,1.656,1.355,1.206,1.355,3.163c0,1.957,1.506,0.602,2.56,0.602
		c1.055,0,1.055,1.811-0.602,2.111c-1.657,0.302-2.411,1.201-2.861,2.712c-0.452,1.505-1.957,0.45-3.314,1.654
		c-1.354,1.209-2.561,2.411-3.464,1.808c-0.902-0.599-1.656-0.149-2.709,0.45c-1.055,0.602-1.506,0-3.016-1.203
		c-1.128-0.902-1.834-3.078-3.831-5.062c-1.194,0.563-3.613,1.436-4.912,1.436c-1.759,0-7.276-0.4-7.578,0.556
		c-0.3,0.95,0.402,2.559,1.304,2.757c0.905,0.201,2.81,0.753,1.005,2.057c-1.807,1.302-3.412-0.452-3.412,2.708
		c0,3.161,4.054,5.214,3.212,8.132c-0.436,1.501-1.03,5.361-1.03,6.845c0,1.479-0.59,6.523-1.926,6.818
		c-1.337,0.302-2.524-1.182-4.305,0.302c-1.78,1.481-4.004,0.59-6.081,2.226c-2.077,1.629-4.301,1.035-4.45,2.964
		c-0.147,1.93-2.075,2.968-1.63,4.747c0.445,1.78-0.893,1.333-2.227,2.67c-1.335,1.334,0.147,2.226-0.743,3.265
		c-0.89,1.038,0.298,2.669,1.335,4.298c1.038,1.637,2.228,2.821,2.08,4.306c-0.152,1.484,1.037,2.078,2.521,1.927
		c1.482-0.147,0.293,2.82,2.669,2.82c2.375,0,4.746,0.598,5.339-0.741c0.597-1.334,2.228-2.373,2.228-0.444
		c0,1.925-0.445,7.122,1.187,6.526c1.633-0.596,4.896-0.446,6.528,0.149c1.63,0.591,3.26,0,4.301-1.04
		c1.04-1.039,2.223-1.036,4.302-2.224c2.078-1.186,4.006-2.67,5.935-2.67s5.191-1.188,4.744,0.295
		c-0.443,1.485-0.738,6.973,1.636,9.788c2.371,2.822,3.708,3.86,5.932,3.565c2.226-0.299,1.93,0.888,3.56,0.743
		c1.635-0.15,0.596,1.777,2.079,1.777c1.482,0,4.152,0.298,4.152,1.928c0,1.633,4.451,0.299,5.49,1.188
		c1.039,0.891,2.225,1.632,1.928,3.41c-0.298,1.782,2.228,3.115,0.743,3.857c-1.485,0.744,0.444,2.225,0.593,4.155
		c0.146,1.927,2.225,2.671,5.488,2.521c3.265-0.145,4.154,0.15,4.154,2.526c0,2.367,2.224,2.668,2.965,4.894
		c0.745,2.226-0.888,4.743-0.591,6.526c0.229,1.366-0.599,2.813-1.527,3.414c1.144,1.455,1.236,2.111,0.213,2.677
		c-1.354,0.75,1.658,2.863,0.903,6.175c-0.749,3.315-0.9,3.915,2.564,4.068c3.463,0.15,3.162,1.204,4.366,0.447
		c1.206-0.75,3.011,2.563,3.462,4.224c0.455,1.651,1.81,5.567,2.41,5.567c0.606,0,2.41-1.808,4.218-0.902
		c1.683,0.841-0.413,6.5-0.472,8.979c1.255-0.044,2.794-0.042,3.3,0.216c0.9,0.449,1.352,6.536,0.903,7.663
		c-0.453,1.127-4.175,2.14-6.091,3.381c-1.914,1.242-6.536,5.636-8.678,9.132c-1.27,2.07-3.121,3.779-4.428,5.279
		c0.621,0.087,1.146,0.063,1.498-0.092c1.015-0.453,2.591-0.453,4.284,1.573c1.689,2.031,1.577,3.609,2.252,3.498
		c0.679-0.114,1.469-2.706,2.821-0.79s4.844,3.383,5.634,4.286c0.79,0.901,3.382,1.577,3.382,3.94c0,1.696-0.799,4.897,0.527,7.615
		C362.813,355.553,363.537,354.752,364.518,354.052z"/>
	<path fill="#DADADA" stroke="#FFFFFF" stroke-width="0.6238" stroke-miterlimit="10" d="M361.651,348.756
		c0-2.363-2.592-3.039-3.382-3.94c-0.79-0.903-4.281-2.37-5.634-4.286s-2.143,0.676-2.821,0.79
		c-0.675,0.111-0.563-1.467-2.252-3.498c-1.693-2.026-3.27-2.026-4.284-1.573c-0.353,0.154-0.877,0.179-1.498,0.092
		c-0.897,1.031-1.548,1.964-1.548,2.838c0,2.142-1.58,4.505-1.688,8.567c-0.115,4.059-1.241,3.38-1.354,6.534
		c-0.11,3.157,1.015,2.594,1.463,3.047c0.252,0.247-0.053,1.254-0.373,2.104c0.475,0.419,0.947,1.077,1.985,0.961
		c2.002-0.221,4.004,0.56,6.453,1.673c2.447,1.111,1.558-0.335,3.895,0c2.336,0.333,5.005,0.554,7.564-1.003
		c1.752-1.069,2.632-2.914,4.002-4.69C360.853,353.653,361.651,350.452,361.651,348.756z"/>
	<path fill="#789FE3" stroke="#FFFFFF" stroke-width="0.6238" stroke-miterlimit="10" d="M298.43,486.563
		c-2.781-0.113-8.233-5.229-9.901-6.563c-1.668-1.338-0.445-2.672-2.447-2.336c-2.004,0.332-0.67-1.562,0.444-2.115
		c1.021-0.516-0.399-2.413-1.759-2.721c-0.148,2.987-0.771,16.396,0.033,16.528c0.812,0.137,6.715-0.692,8.453,0.445
		c0.672,0.213,1.586,0.752,2.284-0.012c1.11-1.224,4.449-0.557,6.231-1.666C303.547,487.006,301.212,486.675,298.43,486.563z
		 M360.073,310.885c-0.506-0.258-2.045-0.26-3.3-0.216c-0.005,0.188,0,0.361,0.021,0.512c0.302,2.108-1.054,7.53-2.561,7.378
		c-1.506-0.146-2.711,2.261-3.915,1.96c-1.204-0.302-2.864,1.806-4.37,0.9c-1.505-0.9-3.612,0.304-4.817-0.45
		c-1.205-0.752-4.671-0.149-4.671-1.052c0-0.905,1.658-0.603,1.658-3.316c0-2.71,4.518-5.721,3.915-6.774
		c-0.601-1.059-8.284-3.315-9.338-4.671c-1.054-1.354-2.561-2.563-5.572-2.86c-3.014-0.303-2.86-1.807-5.571-3.466
		c-2.264-1.382-5.78-5.07-6.968-7.128c-1.836-0.192-4.436-0.578-4.954,0.044c-0.741,0.894-1.928,5.04-2.967,2.965
		c-1.039-2.071-3.561-2.071-5.786-2.375c-2.225-0.293-2.075-2.371-4.45,0.15c-1.058,1.123-2.43,2.229-3.674,3.037
		c-0.146,2.397-0.584,5.098-1.023,5.868c-0.604,1.054-5.572,3.313-5.725,4.518c-0.151,1.202,0.604,2.859-0.3,3.613
		c-0.905,0.754,2.106,4.517,0.452,5.423c-1.659,0.904,1.203,2.409,0.148,3.315c-1.054,0.9-3.01,1.353-3.01,2.407
		c0,1.056-0.151,3.615-1.509,4.218c-1.354,0.604-2.26,2.861-2.26,4.519s-2.109,0.601-1.353,2.708c0.751,2.113,1.654,4.675,0,5.122
		c-1.659,0.457-1.208,3.92-2.113,3.92c-0.904,0-1.354,3.614,0,5.42c1.356,1.808,1.66,3.313,1.66,4.974
		c0,1.652,1.806,2.556,1.204,4.367c-0.603,1.805-0.299,3.464-1.355,4.215c-1.055,0.758-0.152,3.01-1.509,3.616
		c-1.353,0.603,1.057,5.42,0,6.323c-1.053,0.908-3.764,1.661-3.764,4.972c0,3.314,0.513,5.189,0.151,6.628
		c-0.301,1.206,1.508,0.9,1.205,2.862c-0.303,1.954-2.714,0.752-2.861,1.954c-0.15,1.206,0.601,3.621-0.301,3.768
		c-0.904,0.151-1.357,1.052-1.357,3.165c0,2.104-1.203,2.408-1.353,3.464c-0.152,1.053,1.052,2.26,1.052,3.462
		c0,1.207,0.751,5.271-0.301,5.423c-1.054,0.15-1.656,4.67-0.751,5.274c0.901,0.601,0.901,1.807,0.45,2.709
		c-0.45,0.899,2.107,1.804,0.753,3.162c-1.355,1.354-0.278,3.097,1.507,2.562c1.508-0.451,2.407,2.258,0.753,2.258
		c-1.657,0-3.313,0-1.958,1.055s2.709,2.562,0.752,3.313c-1.957,0.754-0.301,2.108-0.752,3.917c-0.453,1.808,1.355,3.465-0.15,3.917
		c-1.507,0.448,0.602,3.164-1.507,3.465c-2.108,0.3-0.753,2.256-2.108,3.314c-1.356,1.052,1.806,2.86,0.149,3.913
		c-1.655,1.051-0.452,3.462-2.107,3.462c-1.659,0-2.563,2.259-2.712,3.315c-0.15,1.052-1.204,3.164,0.152,4.668
		c1.353,1.508-0.303,2.713,0.9,3.314c1.206,0.603,5.274-0.301,4.671,1.507c-0.603,1.806-0.454,5.726,0.302,5.726
		c0.753,0,1.205,2.26,2.41,2.106s6.627-0.753,8.888-0.153c1.116,0.301,2.046,0.964,2.706,1.563c1.288-0.571,4.113,1.272,4.754,0.634
		c0.78-0.78-2.781-3.673-2.669-4.672c0.111-1.005-0.559-2.673-0.559-3.785c0-1.113-0.556-3.56,1.003-4.674
		c1.558-1.111,1.669-2.225,2.671-2.002c0.999,0.223,3.003-0.891,3.113-3.562c0.111-2.668,1.336-3.669,3.563-5.563
		c2.424-2.061,6.451-4.006,5.896-4.895c-0.556-0.888,0.889-3.78,0.889-4.896c0-1.113-3.781-0.893-5.005-1.335
		c-1.224-0.446-5.674-3.562-3.448-7.677c2.225-4.114,6.897-4.563,8.232-4.674c1.336-0.112,0.11-2.002,1.223-2.67
		c1.113-0.668,1.337-1.779,1.337-3.448c0-1.892,0-4.896,2.002-5.118c2.003-0.225,2.561-1.338,1.335-1.669
		c-1.223-0.333-1.779-1.779,0.224-2.005c2.001-0.221,1.335,1.672,2.779,1.672c1.447,0,3.894-2.451,2.003-3.896
		c-1.89-1.446-2.447,0.668-3.447,0.892c-1.003,0.22-1.781-1.338-2.781-1.338c-1.004,0-0.336-2.779-0.779-3.781
		c-0.446-1.002-1.113-3.448-0.225-4.674c0.892-1.225,4.675,1.891,8.012,2.113c3.338,0.225,5.786-1.665,5.786-2.892
		c0-1.223-1.558-3.45,0.444-4.784s0.335-1.779-0.221-3.56c-0.558-1.782,0.89-2.896,1.778-2.003
		c0.892,0.889,7.453,0.334,12.908-0.777c5.452-1.116,9.233-3.117,9.565-4.674c0.334-1.559,3.786-5.229,4.563-6.565
		c0.778-1.336,0.111-3.006-2.113-3.339c-2.226-0.332-2.116-2.893-0.891-4.337c1.225-1.447-0.667-2.784-2.782-3.005
		c-2.112-0.224-5.452-1.669-3.56-3.45c0.911-0.858,1.355-0.685,1.798-0.295c0.32-0.851,0.625-1.857,0.373-2.104
		c-0.448-0.453-1.573,0.11-1.463-3.047c0.113-3.154,1.239-2.476,1.354-6.534c0.108-4.063,1.688-6.426,1.688-8.567
		c0-2.141,3.834-4.619,5.976-8.117c2.142-3.496,6.764-7.89,8.678-9.132c1.916-1.241,5.638-2.254,6.091-3.381
		C361.425,317.421,360.974,311.334,360.073,310.885z"/>
	<path fill="#DADADA" stroke="#FFFFFF" stroke-width="0.6238" stroke-miterlimit="10" d="M269.287,468.723
		c-1.205,0.153-1.657-2.106-2.41-2.106c-0.756,0-0.904-3.92-0.302-5.726c0.604-1.808-3.465-0.904-4.671-1.507
		c-1.203-0.602,0.452-1.807-0.9-3.314c-1.356-1.504-0.303-3.616-0.152-4.668c0.148-1.057,1.053-3.315,2.712-3.315
		c1.655,0,0.452-2.411,2.107-3.462c1.656-1.053-1.506-2.861-0.149-3.913c1.355-1.059,0-3.015,2.108-3.314
		c2.108-0.301,0-3.017,1.507-3.465c1.506-0.452-0.303-2.109,0.15-3.917c0.451-1.809-1.205-3.163,0.752-3.917
		c1.957-0.751,0.604-2.258-0.752-3.313s0.301-1.055,1.958-1.055c1.654,0,0.755-2.709-0.753-2.258
		c-1.785,0.535-2.862-1.207-1.507-2.562c1.354-1.358-1.203-2.263-0.753-3.162c0.451-0.902,0.451-2.108-0.45-2.709
		c-0.905-0.604-0.303-5.124,0.751-5.274c1.052-0.151,0.301-4.216,0.301-5.423c0-1.202-1.204-2.409-1.052-3.462
		c0.149-1.056,1.353-1.359,1.353-3.464c0-2.113,0.453-3.014,1.357-3.165c0.901-0.146,0.15-2.562,0.301-3.768
		c0.147-1.202,2.559,0,2.861-1.954c0.303-1.962-1.506-1.656-1.205-2.862c0.361-1.438-0.151-3.313-0.151-6.628
		c0-3.311,2.711-4.063,3.764-4.972c1.057-0.903-1.353-5.721,0-6.323c1.356-0.606,0.454-2.858,1.509-3.616
		c1.057-0.751,0.753-2.41,1.355-4.215c0.602-1.812-1.204-2.715-1.204-4.367c0-1.66-0.304-3.166-1.66-4.974
		c-1.354-1.806-0.904-5.42,0-5.42c0.905,0,0.454-3.463,2.113-3.92c1.654-0.447,0.751-3.009,0-5.122
		c-0.757-2.107,1.353-1.051,1.353-2.708s0.905-3.915,2.26-4.519c1.357-0.603,1.509-3.162,1.509-4.218
		c0-1.055,1.956-1.507,3.01-2.407c1.055-0.906-1.808-2.411-0.148-3.315c1.654-0.906-1.357-4.669-0.452-5.423
		c0.903-0.754,0.148-2.411,0.3-3.613c0.152-1.204,5.121-3.464,5.725-4.518c0.439-0.771,0.877-3.471,1.023-5.868
		c-1.551,1.005-2.903,1.548-3.15,0.969c-0.445-1.04,0.146-4.156-1.185-5.49c-1.338-1.334-0.445-4.006-1.781-4.596
		c-1.337-0.594-2.967-3.266-1.781-4.156c1.187-0.891,0-2.667,1.039-3.56c1.038-0.889-0.595-1.039-2.078-2.818
		c-1.481-1.783,0.595-4.005-1.187-5.342c-1.78-1.336-1.78-2.967-2.225-2.226c-0.443,0.745-0.593,3.265-2.075,4.005
		c-0.244,0.124-0.63,0.412-1.091,0.793c0.013,1.229-0.431,3.302,0.053,4.515c0.665,1.669,1,9.79,0.334,12.905
		c-0.669,3.117-1.338,5.672-2.005,7.564c-0.668,1.895,1.558,2.005,0.667,2.896c-0.889,0.889-0.556,3.115-0.556,6.675
		c0,3.561-2.114,9.57-2.227,11.46c-0.108,1.89-1.557,3.115-1.334,5.23c0.224,2.111-0.999,3.338-2.225,4.335
		c-1.224,1.003,2.002,4.232,1.894,6.008c-0.113,1.783-2.45,2.562-1.894,5.455c0.695,3.612,0,9.789,0,11.015
		c0,1.224-1.447,1.112-1.113,3.447c0.335,2.337-1.446,2.893-1.779,6.232c-0.335,3.338-2.895,8.121-3.894,10.679
		c-1.002,2.561-1.002,4.01-2.336,4.01c-1.338,0-1.671,1.446-0.669,3.671c1.002,2.226-0.669,4.115,0.669,6.34
		c1.334,2.225,0.888,3.006,0.221,5.119c-0.666,2.112-1.559,2.225-1.559,4.227c0,2.003-1.558,3.672-0.665,5.895
		c0.892,2.229,0.665,3.007-0.447,3.007c-1.11,0-1.67,1.781-2.113,5.452c-0.445,3.67-0.335,3.561,2.337,3.335
		c2.671-0.219,0.556-9.01,2.227-9.01c1.669,0,0.221-1.448,1.892-1.891c1.669-0.444,0.22,1.556,1.335,1.891
		c1.111,0.335,1.89,1.224,0.334,2.225c-1.56,1.004,0.332,3.005-0.446,4.23c-0.778,1.222-1.891,2.555-1.223,4.004
		c0.664,1.448-0.779,1.335-0.891,3.227c-0.113,1.891,1,2.003,0.223,2.447c-0.779,0.445,1.001,1.891-0.111,2.114
		c-1.112,0.223-0.447,1.667,0.222,3.005c0.667,1.333-1.447,0.554-2.559,1.445c-1.112,0.889,1.111,2.112,0.445,3.339
		c-0.669,1.223-2.45-0.667-3.229-1.335c-0.779-0.668,1.226-2.004,2.226-3.341c1.003-1.33-1-4.336-2.67-3.671
		c-1.668,0.667,1.67,2.558,1.67,4.006c0,1.447-2.783-0.335-2.671,1.224c0.111,1.557-1.892,1.002-2.894,2.114
		c-1,1.112,1.335,2.117,0.223,2.449s-3.002,1.892-3.115,3.004c-0.111,1.113,1.224,1.335,1.224,0.221c0-1.111,1.779-1.445,2.336,0
		c0.556,1.447,1.334,0,2.892,0.335c1.558,0.333,1.338,2.67,0.448,2.559c-0.892-0.11-1.781,1.447-1.559,3.114
		c0.222,1.67,3.336,0,4.673,0.449c1.335,0.443,0.891,2.779,0.113,1.999c-0.782-0.778-2.562-2.115-3.341-0.778
		c-0.778,1.334-2.003,0.667-3.004,0.223c-1.002-0.445-4.562,1.893-3.337,2.784c1.224,0.886,1.113,2.335,1.892,2.225
		c0.777-0.114,2.002-0.67,2.446-1.559c0.444-0.891,2.003-1.781,2.116,0.22c0.11,2.007-2.116,1.005-2.561,2.115
		c-0.445,1.113-1.337,2.006-2.67,3.005c-1.337,1.002,0,2.672,1.111,2.116c1.113-0.56-0.332,1.332,1.225,1.558
		c1.438,0.204,1.892-0.893,1.558-2.005c-0.335-1.113,0.777-3.561,2.115-2.337c1.334,1.224-0.668,2.449-0.668,3.563
		c0,1.112-0.78,2.561-0.78,3.78c0,1.222-1.446,0.555-1.336,1.894c0.112,1.334-3.113,0.443-1.666,1.334
		c1.444,0.891-0.891,2.114-0.113,3.005c0.779,0.889,1.446-1.224,2.671-0.78c1.225,0.445,1.001,0.78,2.558,0.111
		c1.558-0.667,2.45,1.223,1.002,1.67c-1.444,0.443-3.005,2.112-2.335,2.337c0.668,0.222,2.558-1.111,3.004,0.331
		c0.445,1.446,1.558,1.004,1.669-0.556c0.11-1.553,2.782-0.223,3.226,1.113c0.446,1.333-2.782,2.112-4.449,1.783
		c-1.671-0.335-2.559,1.556-1.447,3.001c1.115,1.448,2.447,0,3.672-1.225c1.226-1.224,7.23-0.888,7.677,0.449
		c0.444,1.33-2.782,0.221-3.116,0.997c-0.334,0.778-2.779,1.448-3.114,0.558c-0.336-0.892-2.671,0.333-2.781,1.778
		s-1.893,1.445,0.11,2.003c2.004,0.558,1.448-2.113,4.563-1.89c3.115,0.221,4.783-2.894,5.674-1.112
		c0.89,1.78-2.559,3.228-3.783,2.111c-1.224-1.112-2.67,0.78-2.558,2.449c0.11,1.67-3.562-0.443-5.341-0.668
		c-1.781-0.222-1.002,1.671,0.556,3.34c1.557,1.669,2.446-0.222,4.339,1.001c1.891,1.224,1.891,2.559,3.227,1.335
		c1.336-1.227,0-1.11-0.891-1.669c-0.89-0.559-0.111-2.449,2.003-1.449c2.115,1.003,4.563-0.887,3.896-3.559
		c-0.669-2.672,1.892-3.896,4.449-4.786c2.561-0.889,1.226,1.671-0.666,2.449s-2.226,1.337-0.78,2.895
		c1.446,1.559,3.338-1.005,4.563,0.222c1.223,1.223-2.225,1.002-2.783,2.227c-0.555,1.221,2.115,2.67,0.225,3.56
		c-1.892,0.89-1.003-3.673-2.115-4.116c-1.111-0.447-2.115,0.557-1,3.117c1.111,2.555-1.338,0.332-2.449-0.893
		c-1.113-1.224-2.671,0.558-1.335,1.892c1.335,1.335-2.559-0.11-2.559,2.002c0,2.113,1.669,0.333,3.671,0.779
		c2.002,0.445,1.114,3.34,2.561,4.449c1.445,1.113,0.221-3.559,1.778-3.894c1.559-0.335,0.112,3.561,3.562,4.674
		c3.449,1.111,0.222-0.668,1.779-1.782c1.558-1.109,3.562,3.341,5.231,3.784c1.668,0.444,0.555-2.002-0.671-3.338
		c-1.222-1.335,1.226-0.554,2.895,0c1.669,0.556,3.005,0.776,3.338-0.446c0.125-0.455,0.434-0.448,0.831-0.32
		c-1.738-1.138-7.642-0.309-8.453-0.445c-0.8-0.132-0.184-13.47-0.031-16.528c-0.122-0.027-0.241-0.063-0.357-0.063
		c-1.445,0-4.672,0.334-4.116-1.891c0.097-0.394,0.308-0.622,0.586-0.743c-0.66-0.599-1.59-1.262-2.706-1.563
		C275.914,467.97,270.492,468.569,269.287,468.723z"/>
	<path fill="#DADADA" stroke="#FFFFFF" stroke-width="0.6238" stroke-miterlimit="10" d="M357.245,301.689
		c-1.808-0.905-3.611,0.902-4.218,0.902c-0.601,0-1.955-3.916-2.41-5.567c-0.451-1.66-2.256-4.974-3.462-4.224
		c-1.204,0.757-0.903-0.297-4.366-0.447c-3.465-0.153-3.313-0.753-2.564-4.068c0.755-3.312-2.257-5.425-0.903-6.175
		c1.023-0.565,0.931-1.222-0.213-2.677c-0.284,0.181-0.572,0.295-0.847,0.295c-1.186,0-2.67-2.078-4.746-2.078
		c-2.08,0-4.304-0.149-5.786,0.594c-1.486,0.742-4.303-0.148-6.084,1.041c-1.78,1.187-4.006,3.702-3.856,4.743
		s-0.594,7.42-1.486,7.717c-0.267,0.087-0.928,0.038-1.719-0.044c1.188,2.058,4.704,5.746,6.968,7.128
		c2.711,1.659,2.558,3.163,5.571,3.466c3.012,0.297,4.519,1.506,5.572,2.86c1.054,1.355,8.737,3.612,9.338,4.671
		c0.603,1.054-3.915,4.064-3.915,6.774c0,2.714-1.658,2.411-1.658,3.316c0,0.902,3.466,0.3,4.671,1.052
		c1.205,0.754,3.313-0.45,4.817,0.45c1.506,0.905,3.166-1.202,4.37-0.9c1.204,0.301,2.409-2.106,3.915-1.96
		c1.507,0.152,2.862-5.27,2.561-7.378C356.493,309.072,359.055,302.592,357.245,301.689z"/>
	<path fill="#DADADA" stroke="#FFFFFF" stroke-width="0.6238" stroke-miterlimit="10" d="M213.865,133.079
		c-0.164-0.577-0.068-2.055,0.764-3.187c-1.819-1.961-3.868-4.611-4.962-6.19c-1.041,0.137-1.947,0.126-2.482-0.275
		c-1.105-0.826-3.862-0.272-4.965-0.826c-0.569-0.286-1.675-0.248-2.765-0.163c0.259,0.823,0.139,1.621-0.38,1.971
		c-1.004,0.669-1.113,3.34,1.334,4.34c2.448,0.999,1.669-0.557,2.893-0.557c1.225,0,1.113,1.89,2.224,1.89
		c1.114,0,3.673,1.335,3.562,3.118c-0.11,1.779,0.891,2.559,2.892,2.559c0.367,0,0.782,0.035,1.215,0.09
		C213.534,134.659,214.042,133.696,213.865,133.079z"/>
	<path fill="#DADADA" stroke="#FFFFFF" stroke-width="0.6238" stroke-miterlimit="10" d="M239.351,133.088
		c-1.78-2.672-5.008-2.447-7.009-3.34c-2.005-0.89-4.562,0.333-7.121,2.675c-2.559,2.334-5.786,0.998-8.011-0.225
		c-0.662-0.364-1.587-1.239-2.581-2.306c-0.833,1.131-0.928,2.61-0.764,3.187c0.176,0.617-0.331,1.581-0.67,2.77
		c2.205,0.275,5.068,1.239,6.462,2.915c1.67,2.001,2.67,0.666,3.672,2.447c1.003,1.781,3.336,0.111,3.892-1.001
		c0.56-1.114-1.222-1.558-1.444-2.782c-0.222-1.223,2.226-0.778,2.669-2.448c0.447-1.67,4.008-2.446,5.566-1.779
		c1.558,0.666,2.891,1.779,1.445,3.449c-1.076,1.241,1.119,3.478,2.954,5.222c1.287-1.326,2.767-2.835,3.383-3.283
		c0.335-0.251,0.548-0.842,0.692-1.572C241.604,136.598,240.584,134.942,239.351,133.088z"/>
	<path fill="#DADADA" stroke="#FFFFFF" stroke-width="0.6238" stroke-miterlimit="10" d="M242.449,176.687
		c1.391,0.816,3.364,0.583,3.829,0c0.463-0.581,1.736,0.696,3.594,2.788c0.082,0.091,0.15,0.168,0.229,0.255
		c1.556-0.344,3.524-0.636,4.315-0.14c1.396,0.875,1.049,4.019,2.97,4.192c1.919,0.172,3.316,2.096,3.143,3.14
		c-0.176,1.05,2.094,1.573,1.921,3.144c-0.174,1.572,5.065,1.224,5.763,0.701c0.697-0.527,2.093-0.874,2.967-0.35
		c0.874,0.522,2.444-0.523,3.319-0.177c0.874,0.353,4.365,1.749,3.666,2.971c-0.697,1.222-3.141,3.144-2.618,4.194
		c0.415,0.825,2.239,1.341,2.984,2.381c0.082-0.005,0.163,0,0.246-0.021c1.336-0.295,1.926-5.338,1.926-6.818
		c0-1.484,0.595-5.344,1.03-6.845c0.842-2.918-3.212-4.971-3.212-8.132c0-3.16,1.605-1.406,3.412-2.708
		c1.805-1.304-0.1-1.856-1.005-2.057c-0.901-0.198-1.604-1.807-1.304-2.757c0.302-0.956,5.819-0.556,7.578-0.556
		c1.754,0,5.566-1.603,5.617-1.855c0.052-0.247,0.452-1.504-0.905-2.558c-1.354-1.052-0.853-2.557,0.202-3.762
		c1.054-1.208-0.65-2.41-1.956-3.862c-1.302-1.458-0.301-6.726,1.203-9.184c1.504-2.455-3.061-1.904-5.871-1.554
		c-2.809,0.352-5.216-0.755-7.021-3.06c-1.807-2.309-4.265-0.853-8.579-0.754c-4.316,0.104-3.461-4.767-3.264-6.623
		c0.2-1.857-2.206-2.106-2.206-3.31s-1.253-1.204-2.361-1.107c-1.101,0.101,0-1.352,0.757-2.305
		c0.751-0.956,0.702-1.708,0.751-3.714c0.053-2.008,2.959-3.711,4.415-5.672c0.355-0.473,0.902-0.781,1.525-0.971
		c0.178-0.471,0.531-0.841,1.219-0.977c2.224-0.446,3.338-1.892,1.223-3.118c-2.114-1.222-3.338,2.34-5.674,2.672
		c-2.336,0.333-2.779,1.778-4.338,2.559c-1.558,0.777-4.45,0.112-4.562,1.447c-0.123,1.458-1.003,0-2.337-0.334
		c-1.337-0.336-4.785,2.668-4.674,4.341c0.112,1.667,0.668,3.226-1.78,4.783c-2.445,1.558-3.894,4.45-5.005,5.785
		c-0.342,0.407-0.705,0.441-1.093,0.256c-0.145,0.73-0.357,1.321-0.692,1.572c-0.616,0.448-2.096,1.957-3.383,3.283
		c0.626,0.6,1.211,1.138,1.608,1.564c1.558,1.669,0.555,3.005,1.001,3.898c0.445,0.886,0.89,2.22,0,2.779
		c-0.889,0.554-0.112,6.674,0.89,7.788c1.001,1.112,0,2.114-1.111,4.338c-1.113,2.226-2.116,3.227-4.118,3.337
		c-2.003,0.114-1.891,3.229-2.56,3.229c-0.531,0-0.918,1.125-0.998,2.093c1.87,1.573,5.224,3.473,6.194,3.473
		C240.361,174.368,241.058,175.88,242.449,176.687z"/>
	<path fill="#DADADA" stroke="#FFFFFF" stroke-width="0.6238" stroke-miterlimit="10" d="M341.227,269.493
		c-0.741-2.226-2.965-2.526-2.965-4.894c0-2.376-0.89-2.671-4.154-2.526c-3.264,0.15-5.342-0.594-5.488-2.521
		c-0.148-1.931-2.078-3.411-0.593-4.155c1.484-0.742-1.041-2.075-0.743-3.857c0.297-1.778-0.889-2.52-1.928-3.41
		c-1.039-0.889-5.49,0.446-5.49-1.188c0-1.63-2.67-1.928-4.152-1.928c-1.483,0-0.444-1.927-2.079-1.777
		c-1.63,0.145-1.334-1.042-3.56-0.743c-2.224,0.295-3.561-0.743-5.932-3.565c-2.374-2.815-2.079-8.303-1.636-9.788
		c0.447-1.482-2.815-0.295-4.744-0.295s-3.856,1.484-5.935,2.67c-2.079,1.188-3.262,1.185-4.302,2.224
		c-1.041,1.04-2.671,1.63-4.301,1.04c-0.454-0.168-1.044-0.292-1.678-0.38c0.877,2.18,2.988,5.764,3.458,7.058
		c0.592,1.629-0.744,2.072-1.336,2.669c-0.593,0.588,0.295,5.93,0.444,7.119c0.147,1.186-2.077,3.409-1.189,4.151
		c0.892,0.744-1.184,2.97-1.184,4.307c0,1.332,1.929,1.332,1.929,2.369c0,1.043-1.633,3.413-2.671,4.005
		c-0.544,0.313-0.556,1.153-0.424,2.06c0.312-0.103,0.53,1.248,2.055,2.392c1.781,1.337-0.295,3.559,1.187,5.342
		c1.483,1.779,3.116,1.93,2.078,2.818c-1.039,0.893,0.147,2.669-1.039,3.56c-1.186,0.891,0.444,3.563,1.781,4.156
		c1.336,0.59,0.443,3.262,1.781,4.596c1.331,1.334,0.739,4.45,1.185,5.49c0.445,1.036,4.451-1.483,6.824-4.006
		c2.375-2.521,2.226-0.443,4.45-0.15c2.226,0.304,4.747,0.304,5.786,2.375c1.039,2.075,2.226-2.071,2.967-2.965
		c0.741-0.889,5.783,0.297,6.673,0c0.893-0.297,1.636-6.676,1.486-7.717s2.076-3.557,3.856-4.743
		c1.781-1.189,4.598-0.299,6.084-1.041c1.482-0.743,3.706-0.594,5.786-0.594c2.076,0,3.561,2.078,4.746,2.078
		s2.67-1.928,2.374-3.709C340.339,274.236,341.972,271.719,341.227,269.493z"/>
	<path fill="#8663FF" stroke="#FFFFFF" stroke-width="0.6238" stroke-miterlimit="10" d="M280.405,268.304
		c0.063-0.102,0.119-0.149,0.17-0.166c-0.132-0.906-0.12-1.747,0.424-2.06c1.038-0.592,2.671-2.962,2.671-4.005
		c0-1.037-1.929-1.037-1.929-2.369c0-1.337,2.075-3.563,1.184-4.307c-0.888-0.742,1.337-2.966,1.189-4.151
		c-0.149-1.189-1.037-6.531-0.444-7.119c0.592-0.597,1.928-1.04,1.336-2.669c-0.47-1.293-2.581-4.878-3.458-7.058
		c-1.652-0.236-3.674-0.196-4.851,0.231c-1.632,0.596-1.187-4.601-1.187-6.526c0-1.929-1.631-0.891-2.228,0.444
		c-0.593,1.339-2.964,0.741-5.339,0.741c-2.376,0-1.187-2.967-2.669-2.82c-1.483,0.151-2.673-0.443-2.521-1.927
		c0.147-1.484-1.042-2.669-2.08-4.306c-1.037-1.629-2.225-3.26-1.335-4.298c0.891-1.039-0.592-1.93,0.743-3.265
		c1.334-1.337,2.672-0.891,2.227-2.67c-0.445-1.779,1.482-2.817,1.63-4.747c0.149-1.929,2.373-1.334,4.45-2.964
		c2.077-1.635,4.301-0.745,6.081-2.226c1.673-1.396,2.821-0.193,4.059-0.282c-0.745-1.04-2.569-1.556-2.984-2.381
		c-0.522-1.05,1.921-2.972,2.618-4.194c0.699-1.222-2.792-2.618-3.666-2.971c-0.875-0.346-2.445,0.699-3.319,0.177
		c-0.874-0.523-2.27-0.177-2.967,0.35c-0.697,0.523-5.937,0.871-5.763-0.701c0.173-1.571-2.097-2.094-1.921-3.144
		c0.174-1.043-1.224-2.967-3.143-3.14c-1.921-0.174-1.573-3.318-2.97-4.192c-0.791-0.497-2.76-0.204-4.315,0.14
		c1.674,1.887,2.271,2.68,1.162,3.569c-1.47,1.179,0,1.392-2.781,5.1c-2.786,3.717-7.538,4.64-9.862,5.339
		c-2.317,0.694-3.247,4.984-4.523,8.004c-1.274,3.015-2.318,1.971-3.594,0.23c-1.276-1.74-2.32,0.344-3.829-1.042
		c-1.508-1.393-0.812-1.393,0-2.554c0.439-0.624-0.047-1.619-0.973-2.581c-1.655,0.341-3.329,2.632-4.151,4.38
		c-0.892,1.892,1.556,5.564,1.892,6.899c0.333,1.334-1.336,0.111-1.558,1.334c-0.223,1.224,3.671,3.004,5.451,4.338
		c1.78,1.336,3.339,5.121,5.008,6.9c1.669,1.778,1.779,3.336,3.559,7.676c1.78,4.338,5.341,11.684,7.789,14.797
		c2.45,3.117,3.56,5.563,3.005,6.454c-0.555,0.892,0.111,3.339,1.89,4.563c1.78,1.222,3.227,3.228,7.902,5.564
		c4.672,2.333,13.237,6.783,14.463,8.897c1.223,2.114,5.229,4.118,6.008,4.563c0.212,0.123,0.276,0.472,0.282,0.938
		c0.461-0.381,0.847-0.669,1.091-0.793C279.813,271.568,279.962,269.049,280.405,268.304z"/>
	<path fill="#DADADA" stroke="#FFFFFF" stroke-width="0.6238" stroke-miterlimit="10" d="M267.982,120.572
		c-1.456,1.961-4.362,3.664-4.415,5.672c-0.049,2.007,0,2.759-0.751,3.714c-0.757,0.953-1.857,2.405-0.757,2.305
		c1.108-0.097,2.361-0.097,2.361,1.107s2.406,1.453,2.206,3.31c-0.197,1.856-1.053,6.727,3.264,6.623
		c4.314-0.099,6.772-1.555,8.579,0.754c1.806,2.304,4.213,3.411,7.021,3.06c2.811-0.351,7.375-0.901,5.871,1.554
		c-1.504,2.458-2.505,7.726-1.203,9.184c1.306,1.452,3.01,2.655,1.956,3.862c-1.055,1.205-1.556,2.71-0.202,3.762
		c1.357,1.054,0.957,2.312,0.905,2.558c-0.012,0.066-0.285,0.222-0.705,0.42c1.997,1.984,2.703,4.16,3.831,5.062
		c1.51,1.203,1.961,1.804,3.016,1.203c1.053-0.599,1.807-1.049,2.709-0.45c0.903,0.603,2.109-0.599,3.464-1.808
		c1.357-1.205,2.862-0.149,3.314-1.654c0.45-1.512,1.204-2.411,2.861-2.712c1.656-0.3,1.656-2.111,0.602-2.111
		c-1.054,0-2.56,1.355-2.56-0.602c0-1.958-1.355-1.507-1.355-3.163c0-1.655-0.152-2.712-1.958-3.765
		c-1.807-1.057,2.41-1.507,3.313-0.603c0.905,0.904,4.067,0.154,4.368,1.505c0.301,1.355,1.955,1.811,1.955,0.15
		c0-1.655,1.96-2.257,3.465-1.955c1.509,0.3,4.822-1.959,6.179-2.412c0.707-0.237,0.967-1.085,1.353-1.801
		c-0.991-1.352-2.572-3.447-3.289-4.046c-1.081-0.899,0.721-1.437,0.541-2.7c-0.182-1.263,0-2.163,2.345-2.342
		c2.343-0.182,1.982-1.985,0.719-2.707c-1.263-0.72,0.542-2.706,1.802-3.424c0.518-0.296,1.21-1.184,1.843-2.405
		c-2.396-0.904-5.836-0.825-7.276-0.739c-1.891,0.111,1.224-2.113,1.333-4.116c0.112-2.004-5.34-2.337-7.454-2.78
		c-2.114-0.446-1.559-2.67,0.669-2.781c2.224-0.115-1.225-1.673-4.229-1.226c-3.004,0.443-7.23,2.116-9.679,3.449
		c-2.449,1.334-6.676-3.896-9.458-2.782c-2.782,1.112-6.677,1.112-6.563-1.114c0.11-2.224-1.112-4.115-3.896-3.891
		c-2.781,0.219-2.114-2.783-4.228-2.783s0,2.559-1.445,3.226c-1.447,0.668-6.455,1.891-6.789,3.895
		c-0.333,2.003,2.672,5.341,1.668,7.342c-0.999,2.004-4.338,0.335-5.339-1.778c-1.002-2.114,2.893-5.342,2.226-6.563
		c-0.462-0.851-1.057-2.43-0.662-3.475C268.885,119.791,268.338,120.099,267.982,120.572z"/>
	<path fill="#DADADA" stroke="#FFFFFF" stroke-width="0.6238" stroke-miterlimit="10" d="M344.109,151.461
		c0.72,1.44-0.9,2.165-2.345,2.342c-1.441,0.18-1.08,3.428-1.979,4.327c-0.905,0.903,3.424,3.246,4.143,5.227
		c0.429,1.174,1.865,3.737,2.97,5.634c0.996,0.255,1.946,0.479,2.517,0.16c1.356-0.756,0.151-3.316,2.108-3.166
		c1.957,0.154,4.822-1.058,5.573,0.154c0.142,0.216,0.307,0.434,0.489,0.642c0.631-0.947,1.306-1.983,1.487-2.344
		c0.361-0.719,0.361-4.505-0.544-6.668c-0.903-2.163-0.177-5.049,0.905-5.948c0.229-0.192,0.579-1.172,0.98-2.574
		c-1.79-0.7-3.514-1.329-5.021-1.138c-2.667,0.333-5.448,1.556-6.448,0.108c-1.004-1.445-2.45-1.221-3.786-0.108
		c-0.152,0.122-0.317,0.161-0.495,0.14C344.207,149.547,343.746,150.733,344.109,151.461z"/>
	<path fill="#DADADA" stroke="#FFFFFF" stroke-width="0.6238" stroke-miterlimit="10" d="M328.787,138.123
		c-1.26,0.718-3.064,2.704-1.802,3.424c1.264,0.721,1.624,2.524-0.719,2.707c-2.345,0.18-2.526,1.08-2.345,2.342
		c0.18,1.263-1.622,1.801-0.541,2.7c0.717,0.599,2.298,2.694,3.289,4.046c0.349-0.656,0.802-1.205,1.809-1.06
		c2.108,0.301,0.452,3.467,2.108,4.215c1.656,0.755,1.656,3.318,0.452,4.218c-1.208,0.904-1.659,5.879,1.054,8.888
		c2.715,3.01,4.819,2.558,5.423,1.808c0.603-0.754,2.709,0,3.314-1.207c0.603-1.205,1.355,0.151,2.56-1.205
		c0.696-0.781,2.146-0.361,3.508-0.008c-1.104-1.896-2.541-4.46-2.97-5.634c-0.719-1.98-5.048-4.323-4.143-5.227
		c0.899-0.898,0.538-4.147,1.979-4.327c1.444-0.178,3.064-0.902,2.345-2.342c-0.363-0.729,0.098-1.914,0.554-3.212
		c-1.385-0.136-3.438-4.148-4.622-4.148c-1.333,0-2.891-1.111-2.558-3.003c0.334-1.892-3.114-2.114-5.008-4.227
		c-0.448-0.507-1.1-0.874-1.846-1.154C329.997,136.939,329.305,137.827,328.787,138.123z"/>
	<path fill="#DADADA" stroke="#FFFFFF" stroke-width="0.6238" stroke-miterlimit="10" d="M358.528,157.77
		c0.905,2.163,0.905,5.949,0.544,6.668c-0.182,0.361-0.856,1.397-1.487,2.344c0.82,0.929,2.142,1.599,4.482,0.864
		c2.86-0.905,4.213,0.904,5.272-2.262c0.823-2.472,3.751-5.844,5.928-7.996c-0.022-0.015-0.045-0.036-0.069-0.046
		c-2.116-0.89-5.342-6.007-8.569-6.676c-1.407-0.29-2.832-0.875-4.215-1.417c-0.401,1.402-0.751,2.382-0.98,2.574
		C358.352,152.721,357.625,155.606,358.528,157.77z"/>
	<path fill="#DADADA" stroke="#FFFFFF" stroke-width="0.6238" stroke-miterlimit="10" d="M247.473,69.446
		c-3.339,0-14.241-7.566-24.255-9.791c-10.013-2.226-18.747,4.974-17.801,6.229c1.334,1.781,6.229-2.225,8.678-4.004
		c2.448-1.779,4.672,0.89,4.894,2.003c0.225,1.112,3.338,1.779,8.458,2.001c5.115,0.225,5.785,4.452,10.679,5.563
		c4.895,1.114,0,3.118,2.447,4.007c2.448,0.89,15.354,0.667,16.244-0.443C257.709,73.896,250.81,69.446,247.473,69.446z"/>
	<path fill="#DADADA" stroke="#FFFFFF" stroke-width="0.6238" stroke-miterlimit="10" d="M236.124,84.799
		c0.889,1.557,9.345,3.782,10.237,1.782C247.249,84.576,235.02,82.868,236.124,84.799z"/>
	<path fill="#DADADA" stroke="#FFFFFF" stroke-width="0.6238" stroke-miterlimit="10" d="M293.313,85.245
		c2.002,3.118,7.732,1.256,8.232,0C302.436,83.018,291.31,82.132,293.313,85.245z"/>
	<path fill="#DADADA" stroke="#FFFFFF" stroke-width="0.6238" stroke-miterlimit="10" d="M340.041,465.76
		c-1.779-3.339-10.013,2.89-8.231,3.782C333.588,470.43,340.904,467.376,340.041,465.76z M330.918,463.311
		c-2.447-0.446-8.317,4.515-5.785,5.786C327.801,470.43,333.365,463.755,330.918,463.311z"/>
	<path fill="#DADADA" stroke="#FFFFFF" stroke-width="0.6238" stroke-miterlimit="10" d="M249.871,179.475
		c-1.857-2.092-3.13-3.369-3.594-2.788c-0.464,0.583-2.438,0.816-3.829,0c-1.391-0.806-2.087-2.318-3.132-2.318
		c-0.97,0-4.324-1.9-6.194-3.473c-0.02,0.247-0.024,0.484-0.003,0.688c0.112,1-1.557,1.668-3.449,1.78
		c-1.891,0.112-1.669,2.225-1.669,3.671c0,1.447-1.56,1.447-2.226,3.005s0.223,1.891-1.334,2.67
		c-1.559,0.778-2.002,2.115-1.113,3.452c0.891,1.332-0.111,2.556-0.335,3.333c-0.219,0.783,1.338,1.116,2.894,2.561
		c1.56,1.446,1.779-0.555,2.447,0.557c0.668,1.113-0.444,3.116-2.225,3.116c-0.135,0-0.274,0.04-0.41,0.069
		c0.926,0.961,1.413,1.957,0.973,2.581c-0.812,1.161-1.508,1.161,0,2.554c1.509,1.386,2.553-0.698,3.829,1.042
		c1.276,1.741,2.32,2.784,3.594-0.23c1.276-3.02,2.206-7.31,4.523-8.004c2.324-0.699,7.076-1.622,9.862-5.339
		c2.781-3.708,1.311-3.921,2.781-5.1C252.424,182.374,251.729,181.561,249.871,179.475z M170.703,178.038
		c-2.226,3.336,2.194,6.593,3.115,5.115C174.93,181.374,172.929,174.7,170.703,178.038z"/>
	<path fill="#DADADA" stroke="#FFFFFF" stroke-width="0.6238" stroke-miterlimit="10" d="M240.389,55.708
		c-0.318,0.659-1.97-0.855-2.015-2.012c-0.042-1.155-1.711-1.371-1.711-3.38c0-2.016,0.814-3.214,1.842-1.459
		c1.026,1.757,0.342,2.914,0.512,3.77C239.189,53.48,240.946,54.553,240.389,55.708z"/>
	<path fill="#DADADA" stroke="#FFFFFF" stroke-width="0.6238" stroke-miterlimit="10" d="M320.544,127.519
		c-0.668-0.621,0.985-1.845-0.13-2.36c-1.112-0.514,2.529-2.013,3.686-1.03c1.157,0.99,1.286,2.488,0.259,2.92
		C323.327,127.475,321.142,128.074,320.544,127.519z"/>
</g>
</svg>
