<?xml version="1.0" encoding="utf-8"?>
<!-- Generator: Adobe Illustrator 16.0.0, SVG Export Plug-In . SVG Version: 6.00 Build 0)  -->
<!DOCTYPE svg PUBLIC "-//W3C//DTD SVG 1.1//EN" "http://www.w3.org/Graphics/SVG/1.1/DTD/svg11.dtd">
<svg version="1.1" id="Capa_1" xmlns="http://www.w3.org/2000/svg" xmlns:xlink="http://www.w3.org/1999/xlink" x="0px" y="0px"
	 width="19.25px" height="34.75px" viewBox="0 0 19.25 34.75" enable-background="new 0 0 19.25 34.75" xml:space="preserve">
<g>
	<g>
		<defs>
			<rect id="SVGID_1_" x="1.86" y="3.323" width="15.427" height="28.059"/>
		</defs>
		<clipPath id="SVGID_2_">
			<use xlink:href="#SVGID_1_"  overflow="visible"/>
		</clipPath>
		<path clip-path="url(#SVGID_2_)" fill="#FFFFFF" d="M16.534,3.294L12.937,3.29c-4.042,0-6.654,2.68-6.654,6.826v3.15H2.665
			c-0.313,0-0.567,0.252-0.567,0.564v4.563c0,0.311,0.253,0.566,0.567,0.566h3.618v11.51c0,0.313,0.252,0.564,0.564,0.564h4.721
			c0.313,0,0.564-0.252,0.564-0.564V18.96h4.23c0.313,0,0.566-0.256,0.566-0.566v-4.563c0-0.148-0.059-0.293-0.166-0.4
			c-0.105-0.105-0.249-0.164-0.399-0.164h-4.231v-2.67c0-1.283,0.306-1.934,1.978-1.934l2.423-0.002
			c0.313,0,0.566-0.254,0.566-0.564V3.862C17.1,3.548,16.846,3.296,16.534,3.294L16.534,3.294z M16.534,3.294"/>
	</g>
</g>
</svg>
