<?xml version="1.0" encoding="utf-8"?>
<!-- Generator: Adobe Illustrator 16.0.0, SVG Export Plug-In . SVG Version: 6.00 Build 0)  -->
<!DOCTYPE svg PUBLIC "-//W3C//DTD SVG 1.1//EN" "http://www.w3.org/Graphics/SVG/1.1/DTD/svg11.dtd">
<svg version="1.1" id="Capa_1" xmlns="http://www.w3.org/2000/svg" xmlns:xlink="http://www.w3.org/1999/xlink" x="0px" y="0px"
	 width="34.25px" height="34.75px" viewBox="0 0 34.25 34.75" enable-background="new 0 0 34.25 34.75" xml:space="preserve">
<g>
	<path fill="#FFFFFF" d="M31.377,20.502v10.693h-6.199v-9.979c0-2.506-0.896-4.216-3.141-4.216c-1.713,0-2.732,1.152-3.182,2.267
		c-0.163,0.398-0.205,0.953-0.205,1.512v10.416h-6.202c0,0,0.083-16.898,0-18.65h6.201v2.645c-0.013,0.02-0.029,0.041-0.041,0.061
		h0.041V15.19c0.823-1.27,2.296-3.082,5.589-3.082C28.318,12.108,31.377,14.774,31.377,20.502L31.377,20.502z M5.961,3.555
		c-2.123,0-3.51,1.393-3.51,3.223c0,1.789,1.348,3.225,3.427,3.225H5.92c2.163,0,3.508-1.434,3.508-3.225
		C9.387,4.948,8.083,3.555,5.961,3.555L5.961,3.555z M2.82,31.195h6.2v-18.65h-6.2V31.195z M2.82,31.195"/>
</g>
</svg>
