<svg id="Layer_1" data-name="Layer 1" xmlns="http://www.w3.org/2000/svg" viewBox="0 0 150 50"><defs><style>.cls-1{fill:#898989;}</style></defs><title>givaudan</title><path class="cls-1" d="M136.66,24.49V22.41h-3.1V38.56h3.1V30.19a14.93,14.93,0,0,1,.16-2.44,3.89,3.89,0,0,1,4-3.17,3,3,0,0,1,3.37,3.1c0,.42,0,.79,0,1.15v9.73h3.1V28.14a10.29,10.29,0,0,0-.18-2.1c-.58-2.42-2.44-4-5.63-4a5.8,5.8,0,0,0-4.76,2.49ZM77.35,22.41H74.2V32a12.63,12.63,0,0,0,.14,2c.57,3.25,3.12,5.16,6.75,5.16s6.17-1.9,6.75-5.16A13,13,0,0,0,88,32V22.41H84.8v9.77c0,2.49-1,4.25-3.73,4.25s-3.73-1.76-3.73-4.25V22.41Zm27.5,13.76h-.13A6.55,6.55,0,0,1,99.2,39c-4.94,0-7.81-3.8-7.81-8.5s3.17-8.44,7.81-8.44a6.42,6.42,0,0,1,5.53,2.86h.13V10.15h3V38.56h-3V36.17Zm-5.2.18c3.44,0,5.25-2.69,5.25-5.87s-1.83-5.8-5.25-5.8c-3.21,0-5.11,2.8-5.11,5.8,0,3.17,1.63,5.87,5.11,5.87Zm-38.11,0c3.45,0,5.25-2.69,5.25-5.87s-1.83-5.8-5.25-5.8c-3.21,0-5.11,2.8-5.11,5.8s1.83,5.87,5.11,5.87Zm5.28-.2H66.7A6.43,6.43,0,0,1,61.17,39c-4.94,0-7.88-3.84-7.88-8.6,0-4.42,3.18-8.34,7.88-8.34a6.36,6.36,0,0,1,5.53,2.86h.13V22.41h2.88V38.56H66.82V36.15Zm53.08.2c3.45,0,5.25-2.69,5.25-5.87s-1.83-5.8-5.25-5.8c-3.21,0-5.1,2.8-5.1,5.8s1.83,5.87,5.1,5.87Zm5.27-.2h-.12A6.43,6.43,0,0,1,119.52,39c-4.93,0-7.88-3.84-7.88-8.6,0-4.42,3.18-8.34,7.87-8.34a6.35,6.35,0,0,1,5.54,2.86h.12V22.41h2.88V38.56h-2.88V36.15Zm-80.8-3.37L39.75,22.41H36.14l8.19,16.8,8.17-16.8H49L44.38,32.79ZM33.93,38.56V22.41h-3.1V38.56Zm.59-23a2.14,2.14,0,1,0-4.28,0,2.14,2.14,0,0,0,4.28,0ZM27.3,25.88v1c0,6.49-4.22,12.24-11.91,12.24S2.63,32.9,2.63,25.88c0-7.36,5.37-13.15,12.79-13.15a13.21,13.21,0,0,1,10.42,4.93l-2.22,2.15a10.41,10.41,0,0,0-8.14-4.19C9.79,15.62,6,20.09,6,25.78c0,5.46,3.51,10.38,9.6,10.38a8,8,0,0,0,8.22-7.53h-7V25.88Z"/></svg>