<?xml version="1.0" encoding="utf-8"?>
<!-- Generator: Adobe Illustrator 16.0.0, SVG Export Plug-In . SVG Version: 6.00 Build 0)  -->
<!DOCTYPE svg PUBLIC "-//W3C//DTD SVG 1.1//EN" "http://www.w3.org/Graphics/SVG/1.1/DTD/svg11.dtd">
<svg version="1.1" id="Capa_1" xmlns="http://www.w3.org/2000/svg" xmlns:xlink="http://www.w3.org/1999/xlink" x="0px" y="0px"
	 width="225px" height="150px" viewBox="0 0 225 150" enable-background="new 0 0 225 150" xml:space="preserve">
<g>
	<g>
		<rect x="145.159" y="63.6" fill="#3C3C3B" width="5.462" height="34.761"/>
	</g>
	<g>
		<rect x="145.159" y="51.126" fill="#3C3C3B" width="5.462" height="5.461"/>
	</g>
	<g>
		<path fill="#3C3C3B" d="M111.799,68.25c-3.247-3.1-7.602-5.019-12.4-5.019c-9.888,0-17.859,7.971-17.859,17.86
			s7.971,17.861,17.859,17.861c4.799,0,9.227-1.919,12.4-5.02v4.502h5.462V63.6h-5.462V68.25z M111.799,81.386
			c-0.146,6.717-5.683,12.104-12.4,12.104c-6.862,0-12.397-5.535-12.397-12.399c0-6.863,5.535-12.399,12.397-12.399
			c6.792,0,12.254,5.388,12.4,12.104V81.386z"/>
	</g>
	<g>
		<path fill="#3C3C3B" d="M72.461,68.25c-3.247-3.1-7.602-5.019-12.399-5.019c-9.89,0-17.861,7.971-17.861,17.86
			s7.971,17.861,17.861,17.861c4.797,0,9.226-1.919,12.399-5.02v4.502h5.462V51.2h-5.462V68.25z M72.461,81.386
			c-0.147,6.717-5.683,12.104-12.399,12.104c-6.864,0-12.399-5.535-12.399-12.399c0-6.863,5.535-12.399,12.399-12.399
			c6.79,0,12.251,5.388,12.399,12.104V81.386z"/>
	</g>
	<g>
		<path fill="#3C3C3B" d="M126.634,63.6h-5.757v5.461h4.871V98.36h5.461V69.061h10.333V63.6h-9.079
			c1.698-3.542,5.094-6.125,9.079-6.791v-5.46C134.531,52.159,128.699,57.031,126.634,63.6z"/>
	</g>
	<g>
		<rect x="177.337" y="63.6" fill="#3C3C3B" width="5.462" height="34.761"/>
	</g>
	<g>
		<rect x="177.337" y="51.126" fill="#3C3C3B" width="5.462" height="5.461"/>
	</g>
	<g>
		<path fill="#3C3C3B" d="M163.313,51.126h-5.461V63.6h-3.69v5.461h3.69v10.85c0,0.294,0,0.441,0,0.663
			c0,9.151,6.865,16.68,15.721,17.714v-5.462c-5.831-0.96-10.26-5.979-10.332-12.104V69.061h10.332V63.6h-10.332V51.126H163.313z"/>
	</g>
</g>
</svg>
