<?xml version="1.0" encoding="utf-8"?>
<!-- Generator: Adobe Illustrator 16.0.0, SVG Export Plug-In . SVG Version: 6.00 Build 0)  -->
<!DOCTYPE svg PUBLIC "-//W3C//DTD SVG 1.1//EN" "http://www.w3.org/Graphics/SVG/1.1/DTD/svg11.dtd">
<svg version="1.1" id="Capa_1" xmlns="http://www.w3.org/2000/svg" xmlns:xlink="http://www.w3.org/1999/xlink" x="0px" y="0px"
	 width="225px" height="150px" viewBox="0 0 225 150" enable-background="new 0 0 225 150" xml:space="preserve">
<g id="g3027" transform="translate(-58.178092,-60.827932)">
	<path id="path3008" inkscape:connector-curvature="0" sodipodi:nodetypes="ccccccccc" fill="#3C3C3B" d="M96.327,148.94h9.289
		l2.995-17.844h7.333l1.467-8.372H93.333l-1.467,8.372h7.588L96.327,148.94z"/>
	<path id="path3010" inkscape:connector-curvature="0" sodipodi:nodetypes="ccccccccc" fill="#3C3C3B" d="M119.398,122.698h9.098
		l-2.575,14.988c-0.047,5.163,6.159,4.579,7.357,0l2.769-14.953h9.003l-2.517,15.268c-2.601,15.716-28.635,15.445-25.711-0.172
		L119.398,122.698z"/>
	<path id="path3012" inkscape:connector-curvature="0" fill="#3C3C3B" d="M162.641,122.188c-3.26,0-5.902,2.653-5.902,5.93
		s2.643,5.936,5.902,5.936s5.902-2.658,5.902-5.936S165.901,122.188,162.641,122.188z M147.185,122.687l-4.376,26.355h9.187
		l4.493-26.355H147.185z"/>
	<path id="path3018" inkscape:connector-curvature="0" fill="#3C3C3B" d="M243.588,122.188c-3.26,0-5.902,2.653-5.902,5.93
		s2.643,5.936,5.902,5.936s5.902-2.658,5.902-5.936S246.848,122.188,243.588,122.188z M228.134,122.687l-4.377,26.355h9.186
		l4.494-26.355H228.134z"/>
	<path id="path3020" inkscape:connector-curvature="0" sodipodi:nodetypes="ccccccccccc" fill="#3C3C3B" d="M166.984,148.981h8.932
		l2.685-14.304c0-5.024,8.352-7.515,7.371,0l-2.374,14.304h9.119l2.686-15.99c1.762-13.424-10.712-13.066-16.302-6.87l0.938-3.373
		h-8.432L166.984,148.981z"/>
	<path id="path3022" inkscape:connector-curvature="0" fill="#3C3C3B" d="M212.185,122.027c-2.754,0.074-5.553,1.034-8.349,2.657
		c-7.465,4.669-10.786,18.22-1.614,23.515c9.6,4.376,18.699-2.351,20.236-7.372h-9.441c-1.664,1.531-4.83,2.534-7.306,0.034
		c-0.413-0.618-0.78-1.274-0.816-2.187h18.551c1.931-7.157-0.014-11.084-3.185-13.99
		C217.648,122.768,214.938,121.954,212.185,122.027z M212.118,128.845c0.804-0.003,1.591,0.194,2.302,0.677
		c1.152,0.782,1.464,1.844,1.465,3.312l-9.552-0.027c0.505-1.182,1.339-2.252,2.751-3.123
		C210.031,129.188,211.085,128.849,212.118,128.845z"/>
</g>
</svg>
