<?xml version="1.0" encoding="utf-8"?>
<!-- Generator: Adobe Illustrator 16.0.0, SVG Export Plug-In . SVG Version: 6.00 Build 0)  -->
<!DOCTYPE svg PUBLIC "-//W3C//DTD SVG 1.1//EN" "http://www.w3.org/Graphics/SVG/1.1/DTD/svg11.dtd">
<svg version="1.1" id="Capa_1" xmlns="http://www.w3.org/2000/svg" xmlns:xlink="http://www.w3.org/1999/xlink" x="0px" y="0px"
	 width="225px" height="150px" viewBox="0 0 225 150" enable-background="new 0 0 225 150" xml:space="preserve">
<g transform="matrix(1.25 0 0 -1.25 -279.62 519.24)">
	<g transform="matrix(.25 0 0 .25 224.45 297.78)">
		<path fill="#3C3C3B" d="M104.665,266.643c0,0,12.55-51.439,14.553-59.786c2.342-9.747,6.556-13.334,18.7-10.916l7.839,31.894
			c1.987,7.916,3.319,13.566,4.594,21.623h0.225c0.895-8.136,2.177-13.73,3.808-21.655c0,0,3.194-14.475,4.827-22.075
			c1.637-7.6,6.197-12.394,18.095-9.787l18.677,70.691h-15.08l-6.377-30.563c-1.713-8.894-3.27-15.85-4.47-23.981h-0.211
			c-1.089,8.053-2.475,14.728-4.219,23.397l-6.638,31.147h-15.711l-7.102-30.359c-2.008-9.234-3.891-16.681-5.092-24.537h-0.214
			c-1.223,7.4-2.856,16.766-4.627,25.694c0,0-4.217,21.719-5.697,29.203h-15.878L104.665,266.643z M248.404,266.643v-70.692h14.356
			v15.006v55.686H248.404L248.404,266.643z M450.587,266.643v-52.152c0-7.194,1.359-12.231,4.256-15.306
			c2.522-2.697,6.691-4.444,11.684-4.444c4.244,0,8.422,0.809,10.384,1.541l-0.181,11.222c-1.469-0.356-3.147-0.647-5.453-0.647
			c-4.891,0-6.531,3.131-6.531,9.588v19.953h12.506v13.527h-12.506v16.719H450.587L450.587,266.643z M216.322,250.251
			c-8.92,0-16.002-2.503-19.864-4.738l2.83-9.675c3.53,2.228,9.152,4.078,14.481,4.078c8.82,0.025,10.259-4.991,10.259-8.203v-0.759
			c-19.212,0.031-31.355-6.616-31.355-20.175c0-8.275,6.178-16.028,16.927-16.028c6.612,0,12.145,2.641,15.458,6.859h0.325
			c0,0,2.198-9.175,14.289-5.669c-0.636,3.825-0.839,7.894-0.839,12.803v18.881C238.832,239.664,233.693,250.251,216.322,250.251
			L216.322,250.251z M302.197,250.251c-8.983,0-13.017-4.555-15.47-8.409h-0.209v7.208h-13.702v-53.108h14.438v31.144
			c0,1.463,0.162,3.006,0.675,4.35c1.192,3.138,4.109,6.806,8.767,6.806c5.823,0,8.552-4.922,8.552-12.028v-30.272h14.416v31.528
			c0,1.387,0.191,3.069,0.6,4.303c1.188,3.569,4.331,6.472,8.659,6.472c5.903,0,8.734-4.841,8.734-13.2v-29.103h14.434v31.284
			c0,16.491-8.378,23.025-17.834,23.025c-4.188,0-7.494-1.052-10.481-2.881c-2.513-1.547-4.763-3.739-6.725-6.616h-0.213
			c-2.287,5.723-7.653,9.497-14.644,9.497H302.197L302.197,250.251z M381.453,250.251c-8.925,0-16.006-2.503-19.869-4.738
			l2.831-9.675c3.525,2.228,9.156,4.078,14.478,4.078c8.813,0.025,10.263-4.991,10.263-8.203v-0.759
			c-19.216,0.031-31.353-6.616-31.353-20.175c0-8.275,6.178-16.028,16.931-16.028c6.606,0,12.137,2.641,15.45,6.859h0.325
			c0,0,2.194-9.175,14.294-5.669c-0.641,3.825-0.841,7.894-0.841,12.803v18.881c0,12.037-5.144,22.625-22.513,22.625H381.453
			L381.453,250.251z M441.381,250.251c-5.525,0-11.813-3.567-14.453-11.209h-0.4v10.013h-12.994v-53.112h14.809v27.197
			c0,1.469,0.091,2.747,0.319,3.919c1.1,5.697,5.453,9.341,11.706,9.341c1.719,0,2.947-0.188,4.275-0.375v13.902
			C443.531,250.15,442.768,250.251,441.381,250.251L441.381,250.251z M224.492,221.548v-6.631c0-0.975-0.083-1.991-0.356-2.875
			c-1.111-3.675-4.922-6.791-9.688-6.791c-3.973,0-7.13,2.256-7.13,7.025C207.318,219.576,215.351,221.595,224.492,221.548
			L224.492,221.548z M389.615,221.548v-6.631c0-0.975-0.084-1.991-0.356-2.875c-1.106-3.675-4.919-6.791-9.684-6.791
			c-3.975,0-7.128,2.256-7.128,7.025c0,7.3,8.031,9.319,17.172,9.272H389.615L389.615,221.548z"/>
		<path fill="#3C3C3B" d="M554.868,292.206c-4.637,0-8.322-2.587-8.322-5.741l2.819-31.867c0.313-1.92,2.666-3.403,5.506-3.403
			c2.85,0.003,5.191,1.483,5.509,3.403l2.825,31.867c0,3.153-3.694,5.741-8.334,5.741H554.868z M509.003,266.643
			c-2.406-0.061-5.141-1.878-6.878-4.897c-2.325-4.013-1.913-8.495,0.806-10.073l29.003-13.506c1.813-0.675,4.278,0.612,5.7,3.069
			l0,0c1.431,2.473,1.319,5.247-0.191,6.478l-26.194,18.375C510.572,266.482,509.806,266.661,509.003,266.643L509.003,266.643z
			 M600.734,266.643c-0.8,0.017-1.563-0.161-2.244-0.555l-26.2-18.373c-1.494-1.233-1.609-4.006-0.184-6.48l0,0
			c1.431-2.456,3.884-3.744,5.697-3.069l29.016,13.506c2.734,1.578,3.122,6.061,0.813,10.073c-1.744,3.016-4.484,4.839-6.888,4.897
			H600.734L600.734,266.643z M533.018,224.592c-0.375,0.009-0.738-0.056-1.078-0.175l-29.006-13.494
			c-2.722-1.578-3.134-6.069-0.806-10.088c2.319-4.009,6.403-5.909,9.128-4.347l26.194,18.366c1.506,1.247,1.619,4.022,0.188,6.487
			l0.012-0.003C536.487,223.348,534.643,224.573,533.018,224.592L533.018,224.592z M576.728,224.592
			c-1.622-0.019-3.466-1.244-4.622-3.253l0.009,0.003c-1.428-2.466-1.316-5.241,0.181-6.487l26.197-18.366
			c2.719-1.563,6.809,0.337,9.138,4.347c2.309,4.019,1.916,8.509-0.816,10.088l-29.006,13.484
			C577.468,224.536,577.1,224.601,576.728,224.592L576.728,224.592z M554.865,211.382c-2.838,0-5.188-1.475-5.494-3.394
			l-2.819-31.862c0-3.159,3.688-5.741,8.319-5.741c4.641,0,8.334,2.581,8.334,5.741l-2.822,31.862
			c-0.313,1.919-2.659,3.394-5.509,3.394H554.865L554.865,211.382z"/>
	</g>
</g>
</svg>
