<?xml version="1.0" encoding="UTF-8"?>
<!-- Generator: Adobe Illustrator 21.1.0, SVG Export Plug-In . SVG Version: 6.00 Build 0)  -->
<svg version="1.1" id="Layer_1" xmlns="http://www.w3.org/2000/svg" xmlns:xlink="http://www.w3.org/1999/xlink" x="0px" y="0px" viewBox="0 0 260 100" style="enable-background:new 0 0 260 100;" xml:space="preserve">
<g>
	<g>
		<rect x="174.3" y="31.1" width="7.4" height="47.1"/>
	</g>
	<g>
		<rect x="174.3" y="14.2" width="7.4" height="7.4"/>
	</g>
	<g>
		<path d="M129.1,37.4c-4.4-4.2-10.3-6.8-16.8-6.8c-13.4,0-24.2,10.8-24.2,24.2c0,13.4,10.8,24.2,24.2,24.2c6.5,0,12.5-2.6,16.8-6.8    v6.1h7.4V31.1h-7.4V37.4z M129.1,55.2c-0.2,9.1-7.7,16.4-16.8,16.4c-9.3,0-16.8-7.5-16.8-16.8c0-9.3,7.5-16.8,16.8-16.8    c9.2,0,16.6,7.3,16.8,16.4V55.2z"/>
	</g>
	<g>
		<path d="M75.8,37.4c-4.4-4.2-10.3-6.8-16.8-6.8c-13.4,0-24.2,10.8-24.2,24.2c0,13.4,10.8,24.2,24.2,24.2c6.5,0,12.5-2.6,16.8-6.8    v6.1h7.4v-64h-7.4V37.4z M75.8,55.2c-0.2,9.1-7.7,16.4-16.8,16.4c-9.3,0-16.8-7.5-16.8-16.8c0-9.3,7.5-16.8,16.8-16.8    c9.2,0,16.6,7.3,16.8,16.4V55.2z"/>
	</g>
	<g>
		<path d="M149.2,31.1h-7.8v7.4h6.6v39.7h7.4V38.5h14v-7.4h-12.3c2.3-4.8,6.9-8.3,12.3-9.2v-7.4C159.9,15.6,152,22.2,149.2,31.1z"/>
	</g>
	<g>
		<rect x="217.9" y="31.1" width="7.4" height="47.1"/>
	</g>
	<g>
		<rect x="217.9" y="14.2" width="7.4" height="7.4"/>
	</g>
	<g>
		<path d="M198.9,14.2h-7.4v16.9h-5v7.4h5v14.7c0,0.4,0,0.6,0,0.9c0,12.4,9.3,22.6,21.3,24v-7.4c-7.9-1.3-13.9-8.1-14-16.4V38.5h14    v-7.4h-14V14.2z"/>
	</g>
</g>
</svg>