<?xml version="1.0" encoding="utf-8"?>
<!-- Generator: Adobe Illustrator 16.0.0, SVG Export Plug-In . SVG Version: 6.00 Build 0)  -->
<!DOCTYPE svg PUBLIC "-//W3C//DTD SVG 1.1//EN" "http://www.w3.org/Graphics/SVG/1.1/DTD/svg11.dtd">
<svg version="1.1"
	 id="svg2" xmlns:cc="http://creativecommons.org/ns#" xmlns:rdf="http://www.w3.org/1999/02/22-rdf-syntax-ns#" xmlns:dc="http://purl.org/dc/elements/1.1/" xmlns:svg="http://www.w3.org/2000/svg"
	 xmlns="http://www.w3.org/2000/svg" xmlns:xlink="http://www.w3.org/1999/xlink" x="0px" y="0px" width="265.063px"
	 height="102.719px" viewBox="0 0 265.063 102.719" enable-background="new 0 0 265.063 102.719" xml:space="preserve">
<g id="layer1" transform="translate(0,-949.64343)">
	<path id="rect3036" fill="#565656" d="M0,949.643v102.719h265.063V949.643H0z M182.625,974.706
		c17.988,0.12,35.949,0.125,53.938,0.125v4.313v5.031l-1.406-0.688h-30.594v14.188h25.094l1.938-0.813v11.031l-1.469-0.75h-25.188
		v16.875l0.406,1.438l-11.469-0.031l-11.25,0.063l0.656-1.375v-47.875L182.625,974.706L182.625,974.706z M24.469,974.831h21.5
		l13.375,18.719l13.594-18.719h10.281h10.844l-1.625,1.313l-22.781,28.719v19.25l0.906,1.375h-11.25H48.094l0.563-1.375v-19.969
		l-22.813-28.313L24.469,974.831z M108.344,974.831H128.5c20.199,0.009,26.417,0.217,28.813,0.938
		c3.074,0.924,6.838,3.219,8.656,5.281c2.356,2.673,2.994,5.061,2.813,10.438c-0.142,4.196-0.654,6.034-2.281,8.188
		c-1.932,2.555-5.658,5.023-8.688,5.719c-2.115,0.486-9.426,0.924-19.406,1.156l-7.75,0.156l-0.063,9.406l-0.063,7.781l0.813,1.594
		h-11.438h-11.875l1.25-1.844v-23.5v-23.219L108.344,974.831z M130.531,982.425v8.156v8.125h4.656
		c2.563-0.001,5.437-0.132,6.375-0.281c2.279-0.363,4.731-1.525,5.594-2.656c0.379-0.496,0.875-1.41,1.094-2.031
		c0.475-1.343,0.52-4.276,0.094-5.969c-0.424-1.685-2.236-3.52-4.219-4.25c-1.783-0.657-5.905-1.093-10.375-1.094H130.531
		L130.531,982.425z"/>
</g>
</svg>
