<?xml version="1.0" encoding="UTF-8" standalone="no"?>
<!-- Created with Inkscape (http://www.inkscape.org/) -->
<svg xmlns:svg="http://www.w3.org/2000/svg" xmlns="http://www.w3.org/2000/svg" version="1.0" width="788.31494" height="484.47638" id="svg3835" xml:space="preserve"><defs id="defs3838"><clipPath id="clipPath3850"><path d="M 0,792 L 612,792 L 612,0 L 0,0 L 0,792 z" id="path3852"/></clipPath></defs><g transform="matrix(1.25,0,0,-1.25,-0.2199509,990.04428)" id="g3844"><g transform="matrix(8.5944527,0,0,8.5944527,-293.59374,-5747.142)" id="g5151"><path d="M 75.576,737.579 C 74.318,737.038 74.409,736.67 70.332,737.622 C 69.645,737.782 68.071,737.716 67.257,737.617 C 66.948,737.58 66.581,737.771 66.88,738.6 C 67.332,739.85 67.931,739.893 68.419,740.594 C 68.635,740.902 68.617,741.616 69.335,742.074 C 69.8,742.371 70.223,742.66 70.727,743.255 C 70.965,743.567 71.747,744.778 72.969,743.07 C 73.221,742.74 74.354,743.396 74.662,740.632 C 74.785,739.515 75.704,739.522 75.704,738.663 C 75.704,738.332 76.141,737.821 75.576,737.579 M 92.792,740.28 C 94.007,742.482 94.678,741.996 95.423,742.034 C 97.71,742.152 97.614,741 98.877,739.995 C 99.345,739.624 99.913,737.104 99.285,737.146 C 98.139,737.223 97.173,736.917 96.821,736.917 C 95.056,736.917 93.939,737.641 92.497,737.666 C 91.743,737.68 91.368,737.813 91.368,738.408 C 91.621,739.136 92.475,739.705 92.792,740.28 M 103.623,727.732 C 102.951,727.681 100.979,726.641 100.162,725.596 C 99.095,724.229 98.528,723.528 96.466,723.62 C 94.702,723.699 94.079,724.867 93.163,725.366 C 92.029,725.983 91.715,727.272 91.549,727.882 C 91.095,729.544 90.388,729.292 90.388,730.611 C 90.388,731.537 90.291,730.528 90.605,731.387 C 91.048,731.387 91.441,731.597 91.883,731.593 C 92.893,731.585 92.716,731.272 93.535,731.272 C 94.354,731.272 95.082,732.061 96.619,731.757 C 97.898,731.503 97.939,732.057 99.438,731.074 C 100.511,730.346 101.426,731.252 103.943,731.052 C 105.279,730.946 105.979,731.747 105.923,733.316 C 105.848,735.478 105.646,735.936 105.646,736.587 C 105.646,737.975 105.998,740.09 105.352,741.853 C 104.208,744.969 103.328,744.6 102.434,745.44 C 101.171,746.627 101.696,746.936 100.498,747.729 C 99.427,748.456 99.153,748.883 98.522,748.883 C 97.577,749.148 96.923,749.073 96.229,748.805 C 95.6,748.562 95.182,748.354 93.857,748.354 C 92.849,748.354 92.532,748.632 91.775,748.302 C 90.894,747.905 89.238,746.93 88.672,746.004 C 87.474,744.021 88.438,745.16 87.492,743.837 C 86.673,742.78 85.789,742.735 85.41,741.545 C 84.906,740.157 85.364,739.686 85.085,739.243 C 84.921,738.981 84.423,738.658 84.423,737.798 C 83.918,737.534 83.844,737.458 83.46,737.499 C 82.833,737.564 82.09,737.446 82.065,737.79 C 82.005,738.611 81.718,739.463 81.568,739.791 C 80.793,741.491 81.579,742.979 80.832,744.33 C 79.939,745.944 79.359,745.908 77.656,747.759 C 76.521,749.016 75.883,749.884 74.685,749.884 C 73.55,749.884 71.985,750.378 70.787,749.915 C 68.833,749.254 69.01,749.544 68.321,748.747 C 67.257,747.513 66.703,747.805 65.97,747.619 C 64.384,747.219 63.64,745.84 63.41,745.379 C 63.026,744.61 62.901,743.348 61.421,742.277 C 60.443,741.57 60.433,740.233 60.316,739.099 C 60.176,737.718 60.253,736.763 60.296,736.763 C 59.976,736.762 59.442,736.751 58.873,736.733 C 54.774,736.602 53.863,735.315 53.863,732.869 C 53.863,730.489 53.433,730.529 53.009,729.579 C 51.444,726.076 51.958,725.17 51.808,724.596 C 51.233,722.395 49.972,723.777 48.128,723.757 C 46.28,723.737 45.573,723.313 45.573,726.419 C 45.573,727.941 45.982,728.712 45.604,730.167 C 45.226,731.753 45.468,733.874 46.079,735.261 C 46.823,736.948 46.741,737.586 46.362,739.569 C 46.048,740.957 45.886,741.281 45.886,741.81 C 45.886,742.735 45.681,744.866 45.568,745.424 C 45.521,745.664 44.931,747.779 45.541,748.553 C 45.868,748.968 47.433,750 47.709,750.945 C 48.134,752.402 46.653,753.871 46.321,754.521 C 45.591,755.942 44.493,756.155 43.231,755.971 C 42.732,755.898 42.166,755.759 41.661,755.759 C 40.968,755.759 40.525,755.279 39.832,755.279 C 39.013,755.279 38.676,754.87 37.873,754.578 C 37.642,754.493 36.652,753.437 36.399,752.709 C 36.085,751.784 36.11,751.492 36.427,750.566 C 36.427,749.972 37.024,749.708 37.403,749.179 C 37.8,748.679 37.985,748.795 38.194,748.09 C 38.27,747.836 38.327,747.509 38.327,747.178 C 38.579,746.517 38.454,746.054 38.542,745.256 C 38.613,744.614 39.136,743.725 39.136,743.262 C 39.136,742.469 39.14,742.867 39.14,742.074 C 39.14,741.413 39.015,741.083 39.015,740.487 C 39.015,740.024 39.454,739.457 39.454,738.994 C 39.454,738.465 39.452,738.069 39.452,737.54 C 39.452,736.614 39.291,736.173 39.138,735.468 C 38.911,734.434 38.51,733.809 38.446,732.752 C 38.323,730.696 38.662,730.246 38.662,729.544 C 38.662,728.156 38.579,728.316 38.579,726.928 C 38.579,726.068 39.048,725.328 38.956,723.854 C 38.905,723.063 38.763,722.439 38.446,721.712 C 38.194,721.051 37.72,720.535 37.627,719.993 C 37.571,719.667 37.69,719.465 37.69,719.134 C 37.69,718.342 38.292,717.979 38.858,717.517 C 39.3,717.187 39.831,716.758 40.274,716.697 C 41.029,716.594 41.536,716.926 42.356,716.926 C 42.987,716.926 43.44,717.286 44.058,717.415 C 44.499,717.508 44.782,717.644 45.224,717.644 C 46.044,717.644 46.64,717.27 47.46,717.27 C 48.153,717.27 48.532,717.349 49.226,717.349 C 50.172,717.349 50.093,717.583 51.038,717.583 C 51.858,717.583 53.399,717.442 53.952,717.31 C 54.491,717.18 55.656,717.084 56.476,717.746 C 57.231,718.342 57.624,719.213 57.792,720.224 C 57.892,720.823 57.923,722.14 57.923,723.329 C 57.923,724.321 57.952,725.237 58.271,725.948 C 58.56,726.594 58.626,726.848 58.94,727.442 C 59.62,728.675 59.354,728.861 59.536,729.602 L 59.942,730.174 C 60.194,730.174 60.479,730.245 60.671,730.152 C 60.956,730.017 61.226,729.838 61.177,729.197 C 61.06,727.622 61.359,727.266 61.359,726.539 C 61.359,726.009 61.521,725.552 61.898,725.089 C 61.898,724.824 62.312,724.789 62.527,724.555 C 62.707,724.36 62.745,724.077 62.843,723.762 C 63.098,722.938 63.187,722.308 63.501,721.514 C 63.501,721.415 64.099,720.444 64.256,720.253 C 64.668,719.754 64.862,719.559 65.241,719.228 C 65.493,719.228 65.68,718.936 65.995,718.936 C 66.31,718.936 66.627,718.645 66.941,718.645 C 67.257,718.645 67.444,718.208 67.759,718.208 C 68.138,718.208 68.359,717.76 68.675,717.76 C 69.116,717.76 69.432,717.183 69.868,717.115 C 71.325,716.893 71.275,716.664 72.362,717.415 C 73.233,718.019 75.121,717.684 76.681,718.447 C 78.518,719.346 79.494,719.221 80.305,722.969 C 80.503,723.888 80.107,727.479 78.813,727.653 C 78.217,727.733 77.811,727.686 77.171,726.912 C 77.128,726.86 76.039,726.396 75.446,725.547 C 74.587,724.317 74.735,724.458 73.686,723.96 C 72.706,723.495 70.389,724.038 70.03,724.167 C 69.174,724.476 69.016,724.621 68.831,725.15 C 68.679,725.587 68.264,726.406 67.886,727.001 C 67.192,728.059 67.44,727.983 67.253,729.559 C 67.19,730.077 66.622,731.145 67.063,731.409 C 67.063,731.409 67.446,731.502 67.759,731.572 C 68.755,731.793 71.294,730.077 74.001,731.166 C 75.288,731.684 76.558,731.861 78.769,731.558 C 80.433,731.331 80.676,731.052 82.826,731.563 C 83.562,731.738 83.897,731.726 84.527,731.726 C 84.389,731.726 84.435,731.464 84.403,730.571 C 84.364,729.44 84.499,728.526 84.813,727.336 C 85.13,726.411 85.793,725.676 86.039,724.991 C 86.225,724.479 86.744,723.154 86.857,722.969 C 87.299,722.175 88.04,722.073 88.938,720.452 C 89.38,719.652 89.829,719.531 91.21,718.342 C 91.566,718.033 92.539,717.524 93.222,717.233 C 95.314,716.342 95.241,716.86 96.188,716.943 C 97.383,717.048 98.227,716.652 99.405,717.548 C 100.521,718.395 100.446,718.201 101.107,718.407 C 101.982,718.681 102.723,719.358 103.811,720.279 C 107.827,723.68 104.521,727.799 103.623,727.732" id="path3856" style="fill:#231f20;fill-opacity:1;fill-rule:nonzero;stroke:none"/><path d="M 103.201,757.384 C 103.036,757.475 102.771,757.521 102.405,757.521 L 101.843,757.521 L 101.843,756.2 L 102.438,756.2 C 102.716,756.2 102.925,756.228 103.064,756.282 C 103.321,756.381 103.45,756.571 103.45,756.852 C 103.45,757.116 103.367,757.294 103.201,757.384 M 102.489,757.976 C 102.949,757.976 103.285,757.932 103.5,757.844 C 103.883,757.685 104.074,757.375 104.074,756.912 C 104.074,756.583 103.955,756.34 103.717,756.185 C 103.59,756.103 103.413,756.043 103.188,756.007 C 103.473,755.961 103.683,755.842 103.815,755.648 C 103.948,755.455 104.014,755.266 104.014,755.081 L 104.014,754.813 C 104.014,754.729 104.017,754.638 104.022,754.541 C 104.028,754.444 104.038,754.38 104.053,754.35 L 104.074,754.305 L 103.47,754.305 C 103.467,754.317 103.464,754.329 103.461,754.341 C 103.458,754.353 103.455,754.367 103.452,754.382 L 103.438,754.5 L 103.438,754.789 C 103.438,755.212 103.321,755.491 103.087,755.627 C 102.949,755.705 102.707,755.745 102.359,755.745 L 101.843,755.745 L 101.843,754.305 L 101.194,754.305 L 101.194,757.976 L 102.489,757.976 z M 100.514,758.161 C 99.951,757.598 99.671,756.919 99.671,756.123 C 99.671,755.321 99.95,754.638 100.508,754.073 C 101.07,753.507 101.752,753.225 102.555,753.225 C 103.356,753.225 104.038,753.507 104.6,754.073 C 105.161,754.638 105.441,755.321 105.441,756.123 C 105.441,756.919 105.161,757.598 104.6,758.161 C 104.035,758.726 103.354,759.008 102.555,759.008 C 101.758,759.008 101.077,758.726 100.514,758.161 M 104.929,753.753 C 104.274,753.097 103.483,752.769 102.556,752.769 C 101.628,752.769 100.838,753.097 100.187,753.753 C 99.539,754.407 99.215,755.198 99.215,756.128 C 99.215,757.048 99.542,757.835 100.196,758.489 C 100.848,759.139 101.634,759.464 102.556,759.464 C 103.483,759.464 104.274,759.139 104.929,758.489 C 105.582,757.838 105.91,757.051 105.91,756.128 C 105.91,755.201 105.582,754.41 104.929,753.753" id="path3858" style="fill:#231f20;fill-opacity:1;fill-rule:nonzero;stroke:none"/></g></g></svg>