<?xml version="1.0" encoding="utf-8"?>
<!-- Generator: Adobe Illustrator 16.0.0, SVG Export Plug-In . SVG Version: 6.00 Build 0)  -->
<!DOCTYPE svg PUBLIC "-//W3C//DTD SVG 1.1//EN" "http://www.w3.org/Graphics/SVG/1.1/DTD/svg11.dtd">
<svg version="1.1" id="Capa_1" xmlns="http://www.w3.org/2000/svg" xmlns:xlink="http://www.w3.org/1999/xlink" x="0px" y="0px"
	 width="908px" height="340px" viewBox="128.5 52.5 908 340" enable-background="new 128.5 52.5 908 340" xml:space="preserve">
<g transform="matrix(1.25 0 0 -1.25 -279.62 519.24)">
	<g transform="matrix(.25 0 0 .25 224.45 297.78)">
		<path fill="#FFF" d="M822.665-87.18c0,0,50.628-207.494,58.709-241.169c9.444-39.313,26.441-53.772,75.438-44.022
			l31.612,128.638c8.019,31.95,13.388,54.728,18.541,87.237h0.903c3.612-32.822,8.778-55.381,15.359-87.341
			c0,0,12.884-58.4,19.472-89.078c6.609-30.656,25-49.994,72.991-39.459l75.347,285.159h-60.831l-25.719-123.287
			c-6.916-35.894-13.194-63.941-18.037-96.753h-0.853c-4.391,32.5-9.981,59.422-17.016,94.391l-26.778,125.65h-63.369
			l-28.659-122.478c-8.097-37.237-15.691-67.284-20.531-98.991h-0.869c-4.938,29.856-11.522,67.641-18.662,103.659
			c0,0-17.016,87.606-22.984,117.809h-64.05L822.665-87.18z M1402.506-87.18v-285.181h57.909v60.556V-87.18H1402.506L1402.506-87.18
			z M2218.112-87.18v-210.375c0-29.016,5.459-49.344,17.144-61.756c10.191-10.853,27-17.897,47.144-17.897
			c17.116,0,33.966,3.259,41.897,6.203l-0.744,45.266c-5.906-1.441-12.7-2.609-21.994-2.609c-19.722,0-26.347,12.631-26.347,38.681
			v80.484h50.441v54.559h-50.441v67.444H2218.112L2218.112-87.18z M1273.084-153.299c-35.984,0-64.553-10.097-80.131-19.109
			l11.409-39.025c14.244,8.991,36.928,16.438,58.419,16.438c35.578,0.094,41.384-20.119,41.384-33.075v-3.069
			c-77.497,0.125-126.478-26.703-126.478-81.391c0-33.378,24.925-64.675,68.275-64.675c26.678,0,48.997,10.65,62.363,27.7h1.316
			c0,0,8.856-37.022,57.641-22.866c-2.566,15.406-3.391,31.844-3.391,51.638v76.181
			C1363.89-196.005,1343.156-153.299,1273.084-153.299L1273.084-153.299z M1619.5-153.299c-36.234,0-52.519-18.372-62.4-33.938
			h-0.863v29.088h-55.253v-214.222h58.219v125.641c0,5.878,0.669,12.116,2.731,17.531c4.816,12.653,16.584,27.447,35.372,27.447
			c23.494,0,34.484-19.853,34.484-48.522v-122.1h58.156v127.169c0,5.625,0.769,12.387,2.428,17.363
			c4.781,14.387,17.469,26.103,34.928,26.103c23.813,0,35.247-19.528,35.247-53.247v-117.384h58.209v126.188
			c0,66.528-33.797,92.884-71.941,92.884c-16.891,0-30.225-4.238-42.281-11.631c-10.128-6.228-19.203-15.072-27.122-26.691h-0.859
			c-9.225,23.094-30.866,38.322-59.069,38.322H1619.5L1619.5-153.299z M1939.203-153.299c-35.994,0-64.553-10.097-80.138-19.109
			l11.416-39.025c14.228,8.991,36.941,16.438,58.419,16.438c35.547,0.094,41.369-20.119,41.369-33.075v-3.069
			c-77.503,0.125-126.462-26.703-126.462-81.391c0-33.378,24.925-64.675,68.294-64.675c26.659,0,48.975,10.65,62.322,27.7h1.325
			c0,0,8.85-37.022,57.65-22.866c-2.575,15.406-3.387,31.844-3.387,51.638v76.181c0,48.547-20.744,91.253-90.819,91.253H1939.203
			L1939.203-153.299z M2180.959-153.299c-22.291,0-47.662-14.387-58.3-45.231h-1.625v40.403h-52.409v-214.244h59.744v109.697
			c0,5.922,0.363,11.084,1.288,15.819c4.428,22.978,21.997,37.669,47.222,37.669c6.931,0,11.888-0.744,17.247-1.513v56.075
			C2189.628-153.708,2186.559-153.299,2180.959-153.299L2180.959-153.299z M1306.043-269.099v-26.731
			c0-3.956-0.338-8.037-1.438-11.613c-4.484-14.828-19.859-27.384-39.084-27.384c-16.022,0-28.753,9.097-28.753,28.341
			C1236.768-277.049,1269.159-268.908,1306.043-269.099L1306.043-269.099z M1972.143-269.099v-26.731
			c0-3.956-0.341-8.037-1.428-11.613c-4.475-14.828-19.85-27.384-39.088-27.384c-16.022,0-28.762,9.097-28.762,28.341
			c0,29.438,32.413,37.578,69.288,37.387H1972.143L1972.143-269.099z"/>
		<path fill="#FFF" d="M2638.756,15.945c-18.694,0-33.553-10.444-33.553-23.159l11.353-128.553
			c1.256-7.741,10.747-13.725,22.216-13.725c11.497,0.009,20.938,5.984,22.219,13.725l11.403,128.553
			c0,12.716-14.884,23.159-33.622,23.159H2638.756z M2453.743-87.18c-9.712-0.234-20.734-7.572-27.753-19.753
			c-9.381-16.184-7.716-34.272,3.253-40.634l117.003-54.487c7.316-2.713,17.244,2.481,22.984,12.387l0,0
			c5.778,9.969,5.331,21.169-0.756,26.134l-105.672,74.119C2460.062-87.824,2456.981-87.108,2453.743-87.18L2453.743-87.18z
			 M2823.787-87.18c-3.241,0.072-6.325-0.644-9.059-2.231L2709.04-163.53c-6.044-4.966-6.494-16.166-0.747-26.125l0.009-0.009
			c5.76-9.897,15.65-15.103,22.963-12.369l117.062,54.466c11.025,6.363,12.597,24.453,3.281,40.638
			c-7.047,12.156-18.094,19.519-27.794,19.75H2823.787L2823.787-87.18z M2550.618-256.805c-1.509,0.022-2.972-0.219-4.359-0.716
			l-116.994-54.431c-10.981-6.375-12.647-24.475-3.26-40.691c9.359-16.162,25.838-23.85,36.809-17.509l105.681,74.069
			c6.081,5.025,6.525,16.216,0.75,26.166l0.05-0.022C2564.625-261.83,2557.175-256.886,2550.618-256.805L2550.618-256.805z
			 M2726.95-256.805c-6.556-0.081-13.988-5.025-18.663-13.134l0.038,0.022c-5.753-9.95-5.306-21.137,0.734-26.166l105.688-74.069
			c10.959-6.341,27.459,1.347,36.85,17.509c9.319,16.216,7.741,34.316-3.281,40.691l-117.019,54.412
			C2729.925-257.024,2728.453-256.783,2726.95-256.805L2726.95-256.805z M2638.74-310.09c-11.453,0-20.916-5.953-22.162-13.694
			l-11.363-128.544c0-12.738,14.859-23.159,33.556-23.159c18.738,0,33.625,10.422,33.625,23.159l-11.381,128.544
			c-1.275,7.741-10.738,13.694-22.228,13.694H2638.74L2638.74-310.09z"/>
	</g>
</g>
</svg>
