<?xml version="1.0" encoding="utf-8"?>
<!-- Generator: Adobe Illustrator 16.0.0, SVG Export Plug-In . SVG Version: 6.00 Build 0)  -->
<!DOCTYPE svg PUBLIC "-//W3C//DTD SVG 1.1//EN" "http://www.w3.org/Graphics/SVG/1.1/DTD/svg11.dtd">
<svg version="1.1" id="Capa_1" xmlns="http://www.w3.org/2000/svg" xmlns:xlink="http://www.w3.org/1999/xlink" x="0px" y="0px"
	 width="225px" height="150px" viewBox="0 0 225 150" enable-background="new 0 0 225 150" xml:space="preserve">
<g>
	<path fill="#3C3C3B" d="M81.315,90.16c-8.204-0.005-14.851-6.659-14.847-14.862c0.005-8.203,6.659-14.85,14.863-14.846
		c4.417,0.002,8.604,1.971,11.424,5.371l5.767-6.08c-8.594-9.498-23.262-10.229-32.759-1.633
		c-9.498,8.595-10.229,23.262-1.633,32.76c8.595,9.497,23.262,10.229,32.76,1.633c0.571-0.517,1.116-1.063,1.633-1.633l-5.767-6.09
		C89.938,88.193,85.741,90.167,81.315,90.16z"/>
	<polygon fill="#3C3C3B" points="104.46,78.086 93.096,80.1 81.73,78.086 81.73,70.503 104.46,70.503 	"/>
	<path fill="#3C3C3B" d="M117.132,73.291l-0.832,0.785c-0.471-0.508-1.133-0.796-1.824-0.794c-0.562-0.018-1.106,0.189-1.513,0.577
		c-0.401,0.353-0.626,0.865-0.615,1.398c0.011,0.545,0.256,1.059,0.672,1.409c0.424,0.397,0.988,0.611,1.568,0.596
		c0.357,0.011,0.709-0.074,1.022-0.245c0.297-0.181,0.531-0.448,0.671-0.767h-1.815v-1.021h3.091v0.246
		c-0.012,1.048-0.585,2.009-1.503,2.515c-0.479,0.255-1.017,0.382-1.56,0.37c-0.591,0.01-1.176-0.127-1.702-0.397
		c-0.495-0.26-0.908-0.653-1.19-1.135c-0.289-0.48-0.439-1.029-0.436-1.589c-0.012-0.754,0.277-1.482,0.804-2.023
		c0.646-0.685,1.556-1.06,2.496-1.03c0.515-0.003,1.025,0.094,1.503,0.283C116.408,72.661,116.804,72.941,117.132,73.291z"/>
	<path fill="#3C3C3B" d="M118.399,72.337h1.237c0.489-0.025,0.979,0.032,1.447,0.17c0.286,0.118,0.53,0.318,0.7,0.576
		c0.173,0.285,0.261,0.613,0.255,0.946c0.006,0.337-0.094,0.667-0.283,0.945c-0.229,0.277-0.535,0.481-0.88,0.586l1.456,2.609
		h-1.267l-1.381-2.448h-0.113v2.486h-1.172V72.337z M119.571,74.635h0.369c0.264,0.023,0.527-0.025,0.766-0.143
		c0.15-0.104,0.233-0.281,0.217-0.463c0.003-0.122-0.034-0.241-0.104-0.341c-0.072-0.093-0.172-0.162-0.284-0.198
		c-0.209-0.057-0.426-0.079-0.643-0.066h-0.321V74.635L119.571,74.635z"/>
	<path fill="#3C3C3B" d="M122.928,72.337h1.182v3.781c-0.013,0.233,0.017,0.468,0.086,0.69c0.061,0.142,0.167,0.258,0.303,0.331
		c0.323,0.163,0.706,0.163,1.03,0c0.134-0.079,0.239-0.198,0.303-0.34c0.071-0.262,0.101-0.533,0.085-0.804v-3.659h1.182v3.498
		c0.017,0.412-0.018,0.825-0.104,1.229c-0.085,0.25-0.224,0.479-0.407,0.671c-0.187,0.205-0.415,0.366-0.671,0.474
		c-0.287,0.106-0.592,0.157-0.898,0.151c-0.407,0.01-0.81-0.092-1.163-0.294c-0.304-0.17-0.551-0.427-0.709-0.737
		c-0.174-0.478-0.247-0.986-0.217-1.494L122.928,72.337L122.928,72.337z"/>
	<path fill="#3C3C3B" d="M128.146,72.337h1.229c0.489-0.027,0.979,0.033,1.447,0.179c0.293,0.11,0.542,0.313,0.709,0.577
		c0.176,0.283,0.265,0.612,0.255,0.946c0.017,0.37-0.105,0.733-0.34,1.021c-0.243,0.289-0.576,0.488-0.945,0.567
		c-0.408,0.08-0.824,0.112-1.238,0.095v2.486h-1.116L128.146,72.337L128.146,72.337z M129.319,74.635h0.378
		c0.204,0.012,0.409-0.011,0.606-0.067c0.234-0.063,0.39-0.286,0.368-0.528c0.01-0.203-0.097-0.395-0.274-0.492
		c-0.235-0.103-0.491-0.145-0.747-0.123h-0.331V74.635L129.319,74.635z"/>
	<path fill="#3C3C3B" d="M135.513,72.186c0.848-0.003,1.659,0.339,2.251,0.945c1.209,1.161,1.247,3.082,0.086,4.291
		c-0.028,0.029-0.058,0.059-0.086,0.087c-1.278,1.202-3.271,1.202-4.549,0c-0.606-0.561-0.949-1.35-0.945-2.175
		c-0.005-0.544,0.143-1.078,0.426-1.541c0.284-0.473,0.688-0.86,1.172-1.126C134.364,72.365,134.932,72.198,135.513,72.186z
		 M135.513,73.282c-0.536-0.013-1.055,0.191-1.438,0.567c-0.391,0.377-0.602,0.903-0.576,1.446c-0.017,0.6,0.254,1.172,0.729,1.541
		c0.372,0.29,0.833,0.443,1.304,0.436c0.531,0.011,1.042-0.194,1.419-0.567c0.783-0.782,0.784-2.052,0.001-2.835
		c0-0.001,0-0.001-0.001-0.002c-0.382-0.386-0.905-0.598-1.446-0.586H135.513z"/>
	<path fill="#3C3C3B" d="M147.219,73.367l-0.823,0.747c-0.486-0.53-1.171-0.835-1.891-0.842c-0.553-0.018-1.089,0.191-1.484,0.577
		c-0.395,0.365-0.614,0.881-0.605,1.418c-0.008,0.364,0.084,0.725,0.265,1.04c0.18,0.306,0.442,0.555,0.757,0.719
		c0.336,0.173,0.71,0.261,1.087,0.255c0.324,0.01,0.647-0.052,0.945-0.18c0.353-0.161,0.673-0.386,0.946-0.661l0.794,0.794
		c-0.371,0.37-0.807,0.669-1.286,0.879c-0.44,0.17-0.908,0.253-1.381,0.247c-0.868,0.029-1.714-0.283-2.354-0.87
		c-0.618-0.572-0.963-1.381-0.945-2.223c-0.007-0.552,0.137-1.094,0.416-1.569c0.291-0.467,0.703-0.846,1.191-1.097
		c0.972-0.516,2.127-0.554,3.13-0.104C146.453,72.69,146.876,72.987,147.219,73.367z"/>
	<path fill="#3C3C3B" d="M147.928,72.337h3.356v1.097h-2.194v1.059h2.194v1.078h-2.194v1.541h2.194v1.098h-3.356V72.337z"/>
	<path fill="#3C3C3B" d="M152.059,72.337h1.239c0.489-0.027,0.979,0.033,1.446,0.179c0.293,0.11,0.543,0.313,0.709,0.577
		c0.176,0.283,0.266,0.612,0.256,0.946c0.016,0.37-0.105,0.733-0.341,1.021c-0.243,0.289-0.576,0.488-0.945,0.567
		c-0.408,0.08-0.823,0.112-1.238,0.095v2.486h-1.125L152.059,72.337L152.059,72.337z M153.223,74.635h0.378
		c0.204,0.012,0.408-0.011,0.605-0.067c0.235-0.063,0.391-0.286,0.368-0.528c0.011-0.203-0.096-0.395-0.273-0.492
		c-0.235-0.104-0.492-0.146-0.747-0.123h-0.331V74.635z"/>
	<path fill="#3C3C3B" d="M157.458,72.394h1.183l2.363,5.871h-1.229l-0.482-1.2h-2.506l-0.5,1.2h-1.22L157.458,72.394z
		 M158.054,73.953l-0.822,2.014h1.645L158.054,73.953z"/>
	<path fill="#3C3C3B" d="M164.805,73.197l-0.87,0.728c-0.198-0.343-0.551-0.568-0.945-0.604c-0.135-0.007-0.269,0.033-0.378,0.113
		c-0.084,0.063-0.136,0.16-0.142,0.265c-0.004,0.104,0.033,0.206,0.104,0.283c0.267,0.271,0.551,0.524,0.852,0.757
		c0.281,0.21,0.553,0.434,0.813,0.671c0.209,0.188,0.382,0.413,0.511,0.662c0.096,0.214,0.145,0.446,0.142,0.681
		c0.014,0.455-0.177,0.892-0.52,1.191c-0.374,0.331-0.863,0.502-1.362,0.473c-0.401,0.009-0.798-0.098-1.144-0.303
		c-0.357-0.236-0.647-0.563-0.842-0.945l0.946-0.567c0.293,0.521,0.633,0.785,1.021,0.785c0.183,0.006,0.361-0.055,0.501-0.17
		c0.13-0.088,0.207-0.232,0.209-0.388c-0.009-0.146-0.064-0.287-0.161-0.397c-0.203-0.229-0.432-0.436-0.681-0.614
		c-0.484-0.345-0.919-0.751-1.296-1.21c-0.184-0.243-0.286-0.538-0.293-0.842c-0.002-0.406,0.179-0.791,0.492-1.05
		c0.328-0.295,0.759-0.451,1.2-0.435c0.305,0,0.604,0.068,0.88,0.198C164.205,72.653,164.533,72.897,164.805,73.197z"/>
	<path fill="#3C3C3B" d="M166.214,77.131c0.171,0,0.337,0.063,0.463,0.179c0.246,0.235,0.255,0.624,0.02,0.869
		c-0.007,0.007-0.013,0.014-0.02,0.021c-0.125,0.118-0.291,0.183-0.463,0.179c-0.176,0.007-0.346-0.058-0.473-0.179
		c-0.245-0.235-0.255-0.624-0.021-0.869c0.007-0.007,0.014-0.014,0.021-0.021C165.871,77.193,166.039,77.129,166.214,77.131z"/>
</g>
</svg>
