<?xml version="1.0" encoding="utf-8"?>
<!-- Generator: Adobe Illustrator 16.0.0, SVG Export Plug-In . SVG Version: 6.00 Build 0)  -->
<!DOCTYPE svg PUBLIC "-//W3C//DTD SVG 1.1//EN" "http://www.w3.org/Graphics/SVG/1.1/DTD/svg11.dtd">
<svg version="1.1" id="Capa_1" xmlns="http://www.w3.org/2000/svg" xmlns:xlink="http://www.w3.org/1999/xlink" x="0px" y="0px"
	 width="225px" height="150px" viewBox="0 0 225 150" enable-background="new 0 0 225 150" xml:space="preserve">
<g id="layer1" transform="translate(0,-949.64343)">
	<path id="rect3036" fill="#565656" d="M52.503,1001.142v46.501h119.994v-46.501H52.503z M135.178,1012.488
		c8.143,0.055,16.273,0.057,24.417,0.057v1.953v2.277l-0.636-0.312h-13.851v6.423h11.36l0.877-0.368v4.994l-0.665-0.34h-11.402v7.64
		l0.184,0.65l-5.191-0.015l-5.093,0.029l0.297-0.622v-21.673L135.178,1012.488L135.178,1012.488z M63.58,1012.545h9.733l6.055,8.474
		l6.153-8.474h4.655h4.908l-0.735,0.595l-10.313,13.001v8.715l0.409,0.622h-5.093h-5.078l0.255-0.622v-9.041l-10.328-12.816
		L63.58,1012.545z M101.55,1012.545h9.125c9.145,0.004,11.959,0.099,13.043,0.425c1.393,0.418,3.096,1.457,3.919,2.391
		c1.067,1.21,1.356,2.291,1.274,4.725c-0.064,1.899-0.297,2.731-1.033,3.707c-0.875,1.156-2.562,2.273-3.934,2.589
		c-0.957,0.22-4.267,0.418-8.784,0.523l-3.509,0.07l-0.028,4.258l-0.028,3.522l0.367,0.722h-5.178h-5.376l0.566-0.835v-10.639
		v-10.51L101.55,1012.545z M111.595,1015.983v3.692v3.678h2.107c1.16-0.001,2.462-0.06,2.886-0.128
		c1.032-0.164,2.142-0.69,2.532-1.202c0.172-0.225,0.396-0.638,0.496-0.919c0.215-0.608,0.234-1.936,0.042-2.702
		c-0.191-0.763-1.013-1.594-1.91-1.924c-0.807-0.298-2.673-0.495-4.696-0.495H111.595L111.595,1015.983z"/>
</g>
</svg>
