<?xml version="1.0" encoding="utf-8"?>
<!-- Generator: Adobe Illustrator 16.0.0, SVG Export Plug-In . SVG Version: 6.00 Build 0)  -->
<!DOCTYPE svg PUBLIC "-//W3C//DTD SVG 1.1//EN" "http://www.w3.org/Graphics/SVG/1.1/DTD/svg11.dtd">
<svg version="1.1" id="Capa_1" xmlns="http://www.w3.org/2000/svg" xmlns:xlink="http://www.w3.org/1999/xlink" x="0px" y="0px"
	 width="225px" height="150px" viewBox="0 0 225 150" enable-background="new 0 0 225 150" xml:space="preserve">
<g id="g47059" transform="matrix(100.30839,0,0,-100.30839,-1093.1742,475.41351)">
	<path id="path47061" inkscape:connector-curvature="0" fill="#3D3D3B" d="M11.743,3.958l0.019-0.171h0.489l0.019,0.171H11.743
		L11.743,3.958z"/>
</g>
<g id="g47071" transform="matrix(100.30839,0,0,-100.30839,1352.5669,717.15149)">
	<path id="path47073" inkscape:connector-curvature="0" fill="#3D3D3B" d="M-12.203,6.325c0,0-0.025,0.355-0.078,0.355
		c-0.063,0-0.066-0.334-0.066-0.334l-0.059,0c0,0-0.003,0.334-0.066,0.334c-0.053,0-0.078-0.355-0.078-0.355l-0.057,0
		c0,0,0.039,0.387,0.139,0.387c0.066,0,0.091-0.167,0.091-0.167s0.038,0.167,0.088,0.167c0.119,0,0.143-0.388,0.143-0.388
		L-12.203,6.325z"/>
</g>
<g id="g47075" transform="matrix(100.30839,0,0,-100.30839,381.50141,560.87101)">
	<path id="path47077" inkscape:connector-curvature="0" fill="#3D3D3B" d="M-2.696,4.795l-0.029-0.007l0.059,0L-2.696,4.795z"/>
</g>
<g id="g47079" transform="matrix(100.30839,0,0,-100.30839,1503.5009,678.41239)">
	<path id="path47081" inkscape:connector-curvature="0" fill="#3D3D3B" d="M-13.681,5.946l-0.027-0.007h0.057L-13.681,5.946z"/>
</g>
<g id="g47083" transform="matrix(100.30839,0,0,-100.30839,-761.8738,678.41239)">
	<path id="path47085" inkscape:connector-curvature="0" fill="#3D3D3B" d="M8.499,5.946L8.473,5.939l0.057,0L8.499,5.946z"/>
</g>
<g id="g47087" transform="matrix(100.30839,0,0,-100.30839,899.74471,-1362.5524)">
	<path id="path47089" inkscape:connector-curvature="0" fill="#3D3D3B" d="M-7.77-14.037c-0.078,0-0.092-0.343-0.092-0.343l0,0.193
		c0,0,0.038,0.167,0.088,0.167L-7.77-14.037z"/>
</g>
<g id="g47091" transform="matrix(100.30839,0,0,-100.30839,-152.79123,-1357.216)">
	<path id="path47093" inkscape:connector-curvature="0" fill="#3D3D3B" d="M2.536-13.985c0.076,0,0.095-0.342,0.095-0.342
		l-0.029-0.007c0,0-0.003,0.334-0.066,0.334L2.536-13.985z"/>
</g>
<g id="g47095" transform="matrix(100.30839,0,0,-100.30839,-761.8738,678.41239)">
	<path id="path47097" inkscape:connector-curvature="0" fill="#3D3D3B" d="M8.499,5.946c0,0,0.031,0.363,0.109,0.363l0.004,0.017
		c-0.1,0-0.139-0.387-0.139-0.387L8.499,5.946z"/>
</g>
<g id="g47099" transform="matrix(100.30839,0,0,-100.30839,1503.5009,678.41239)">
	<path id="path47101" inkscape:connector-curvature="0" fill="#3D3D3B" d="M-13.681,5.946c0,0-0.029,0.364-0.108,0.364l0.003-0.015
		c0.053,0,0.078-0.355,0.078-0.355L-13.681,5.946z"/>
</g>
<g id="g47145" transform="matrix(100.30839,0,0,-100.30839,1710.5575,882.96125)">
	<path id="path47147" inkscape:connector-curvature="0" fill="#FFFFFF" d="M-15.709,7.949l-0.002,0.008V7.949h-0.002v0.01h0.003
		l0.002-0.008l0.002,0.008h0.003v-0.01h-0.002v0.008l-0.002-0.008H-15.709z M-15.714,7.959V7.957h-0.003V7.949h-0.002v0.009h-0.003
		v0.002H-15.714z M-16.034,7.936h0.007c0.015,0,0.016-0.01,0.016-0.014c0-0.005-0.002-0.015-0.015-0.015h-0.008V7.936z
		 M-16.053,7.896h0.027c0.021,0,0.031,0.01,0.031,0.026c0,0.013-0.007,0.026-0.028,0.026h-0.031V7.896L-16.053,7.896z
		 M-15.762,7.948h0.013l-0.004-0.015h-0.009V7.948z M-15.957,7.919c0-0.005-0.001-0.012-0.009-0.012
		c-0.008,0-0.009,0.007-0.009,0.012c0,0.005,0.001,0.012,0.009,0.012C-15.958,7.931-15.957,7.924-15.957,7.919 M-15.941,7.919
		c0,0.012-0.008,0.023-0.025,0.023c-0.017,0-0.025-0.011-0.025-0.023c0-0.012,0.008-0.024,0.025-0.024
		C-15.949,7.896-15.941,7.907-15.941,7.919 M-15.936,7.896h0.016v0.023c0,0.007,0.004,0.008,0.007,0.008
		c0.005,0,0.007-0.003,0.007-0.008V7.896l0.016,0v0.029c0,0.008-0.006,0.015-0.016,0.015c-0.007,0-0.012-0.002-0.015-0.007v0.005
		h-0.015V7.896z M-15.841,7.924c0,0.005,0,0.017-0.021,0.017c-0.01,0-0.021-0.003-0.021-0.015h0.015
		c0,0.002,0.001,0.005,0.006,0.005c0.003,0,0.005-0.002,0.005-0.005c0-0.001-0.002-0.003-0.005-0.003
		c-0.009,0-0.024-0.001-0.024-0.015c0-0.009,0.006-0.014,0.015-0.014c0.005,0,0.009,0.002,0.013,0.005l0.001,0
		c0-0.001,0-0.002,0-0.004h0.016c-0.001,0.003,0,0.006,0,0.01V7.924L-15.841,7.924z M-15.857,7.913c0-0.003-0.004-0.006-0.008-0.006
		c-0.003,0-0.005,0.002-0.005,0.004c0,0.003,0.001,0.005,0.004,0.006c0.002,0,0.005,0.001,0.008,0.001V7.913z M-15.834,7.948h0.016
		V7.896h-0.016V7.948z M-15.782,7.918c0-0.005-0.001-0.011-0.008-0.011c-0.006,0-0.008,0.006-0.008,0.011
		c0,0.005,0.001,0.011,0.008,0.011C-15.783,7.928-15.782,7.923-15.782,7.918 M-15.766,7.948h-0.016V7.936h0
		c-0.002,0.004-0.007,0.005-0.012,0.005c-0.014,0-0.019-0.013-0.019-0.023c0-0.013,0.006-0.022,0.019-0.022
		c0.008,0,0.01,0.003,0.013,0.006h0V7.896h0.016V7.948z M-15.712,7.927c0,0.014-0.011,0.015-0.02,0.015
		c-0.007,0-0.019-0.002-0.019-0.014c0-0.008,0.005-0.012,0.016-0.014c0.007-0.001,0.008-0.003,0.008-0.005
		c0-0.003-0.003-0.004-0.005-0.004c-0.002,0-0.003,0.001-0.004,0.001c-0.001,0.001-0.002,0.003-0.002,0.005h-0.015
		c0-0.012,0.007-0.016,0.021-0.016c0.01,0,0.021,0.003,0.021,0.016c0,0.007-0.004,0.01-0.011,0.012
		c-0.005,0.001-0.01,0.002-0.013,0.003c-0.001,0-0.002,0.002-0.002,0.003c0,0.003,0.003,0.003,0.005,0.003
		c0.001,0,0.002,0,0.003-0.001c0.001-0.001,0.002-0.003,0.002-0.004H-15.712L-15.712,7.927z M-16.178,7.897h0.017
		c0,0,0.004,0.024,0.004,0.026l0.009-0.026h0.014l0.009,0.026l0.003-0.026h0.018l-0.009,0.052h-0.02c0,0-0.007-0.023-0.008-0.025
		h-0.001l-0.008,0.025h-0.02L-16.178,7.897z M-16.059,7.924c-0.001,0.012-0.011,0.017-0.022,0.017c-0.013,0-0.023-0.009-0.023-0.023
		c0-0.017,0.01-0.024,0.023-0.024c0.012,0,0.021,0.004,0.022,0.019h-0.016c0-0.003-0.002-0.007-0.006-0.007
		c-0.007,0-0.007,0.007-0.007,0.012c0,0.005,0,0.012,0.006,0.012c0.002,0,0.004-0.001,0.005-0.002
		c0.001-0.001,0.002-0.003,0.002-0.005H-16.059L-16.059,7.924z"/>
</g>
</svg>
