<?xml version="1.0" encoding="utf-8"?>
<!-- Generator: Adobe Illustrator 16.0.0, SVG Export Plug-In . SVG Version: 6.00 Build 0)  -->
<!DOCTYPE svg PUBLIC "-//W3C//DTD SVG 1.1//EN" "http://www.w3.org/Graphics/SVG/1.1/DTD/svg11.dtd">
<svg version="1.1" id="Capa_1" xmlns="http://www.w3.org/2000/svg" xmlns:xlink="http://www.w3.org/1999/xlink" x="0px" y="0px"
	 width="864.5px" height="434.5px" viewBox="0 0 864.5 434.5" enable-background="new 0 0 864.5 434.5" xml:space="preserve">
<title>grupo-cepas-hover</title>
<path fill="#9A9A9B" d="M250.805,306.896c-49.864-0.027-90.266-40.473-90.238-90.336c0.027-49.864,40.472-90.265,90.336-90.238
	c26.85,0.015,52.301,11.979,69.442,32.644l35.058-36.954c-52.245-57.729-141.396-62.174-199.125-9.929
	c-57.728,52.245-62.173,141.396-9.929,199.125c52.245,57.729,141.396,62.174,199.125,9.929c3.473-3.143,6.786-6.456,9.929-9.929
	l-35.058-37.012C303.217,294.941,277.707,306.938,250.805,306.896z"/>
<polygon fill="#DCDCDC" points="391.494,233.506 322.414,245.747 253.334,233.506 253.334,187.414 391.494,187.414 "/>
<path fill="#9A9A9B" d="M468.517,204.363l-5.058,4.771c-2.859-3.089-6.883-4.839-11.092-4.827c-3.41-0.108-6.723,1.154-9.195,3.506
	c-2.437,2.146-3.803,5.259-3.736,8.505c0.064,3.31,1.552,6.43,4.081,8.563c2.581,2.413,6.008,3.714,9.54,3.621
	c2.166,0.065,4.309-0.451,6.207-1.494c1.809-1.094,3.234-2.72,4.08-4.655H452.31v-6.207h18.793v1.494
	c-0.073,6.368-3.563,12.207-9.138,15.287c-2.916,1.548-6.182,2.32-9.482,2.241c-3.596,0.062-7.148-0.768-10.346-2.413
	c-3.012-1.576-5.52-3.966-7.24-6.896c-1.752-2.915-2.667-6.255-2.645-9.655c-0.072-4.586,1.686-9.013,4.885-12.299
	c3.929-4.163,9.452-6.443,15.173-6.265c3.128-0.017,6.231,0.568,9.138,1.724C464.119,200.533,466.523,202.234,468.517,204.363z"/>
<path fill="#9A9A9B" d="M476.218,198.558h7.528c2.969-0.152,5.941,0.197,8.793,1.035c1.738,0.716,3.219,1.938,4.254,3.506
	c1.051,1.73,1.588,3.723,1.551,5.747c0.035,2.048-0.567,4.057-1.724,5.747c-1.392,1.688-3.251,2.929-5.345,3.563l8.851,15.861
	h-7.701l-8.392-14.885h-0.689v15.115h-7.126V198.558z M483.344,212.524h2.242c1.602,0.144,3.211-0.154,4.654-0.862
	c0.914-0.634,1.418-1.708,1.322-2.815c0.013-0.739-0.209-1.464-0.633-2.069c-0.441-0.564-1.042-0.984-1.724-1.207
	c-1.271-0.348-2.592-0.483-3.907-0.402h-1.955V212.524z"/>
<path fill="#9A9A9B" d="M503.746,198.558h7.184v22.989c-0.078,1.418,0.098,2.839,0.518,4.195c0.369,0.858,1.017,1.567,1.84,2.012
	c1.969,0.993,4.294,0.993,6.264,0c0.813-0.481,1.457-1.205,1.84-2.069c0.436-1.59,0.611-3.239,0.517-4.885v-22.242h7.185v21.265
	c0.099,2.507-0.113,5.017-0.633,7.472c-0.515,1.524-1.358,2.918-2.471,4.08c-1.134,1.245-2.527,2.227-4.081,2.874
	c-1.745,0.649-3.599,0.961-5.46,0.919c-2.475,0.068-4.922-0.548-7.068-1.781c-1.85-1.034-3.35-2.595-4.311-4.482
	c-1.056-2.905-1.506-5.995-1.322-9.081V198.558z"/>
<path fill="#9A9A9B" d="M535.471,198.558h7.471c2.973-0.164,5.951,0.205,8.793,1.093c1.783,0.665,3.297,1.896,4.311,3.505
	c1.069,1.723,1.609,3.721,1.553,5.748c0.094,2.252-0.643,4.461-2.07,6.207c-1.479,1.755-3.501,2.968-5.746,3.448
	c-2.479,0.489-5.006,0.683-7.529,0.574v15.115h-6.781V198.558z M542.598,212.524h2.299c1.239,0.077,2.483-0.059,3.678-0.402
	c1.43-0.385,2.376-1.743,2.241-3.218c0.063-1.233-0.584-2.395-1.667-2.988c-1.428-0.623-2.988-0.88-4.54-0.748h-2.011V212.524z"/>
<path fill="#9A9A9B" d="M580.24,197.639c5.15-0.015,10.085,2.06,13.679,5.747c7.348,7.059,7.583,18.736,0.524,26.085
	c-0.172,0.178-0.346,0.353-0.524,0.524c-7.767,7.306-19.878,7.306-27.644,0c-3.687-3.404-5.771-8.201-5.748-13.219
	c-0.028-3.303,0.867-6.548,2.587-9.367c1.729-2.869,4.188-5.229,7.126-6.84C573.259,198.732,576.708,197.72,580.24,197.639z
	 M580.24,204.306c-3.258-0.078-6.408,1.166-8.735,3.448c-2.377,2.291-3.654,5.494-3.505,8.793c-0.096,3.647,1.546,7.125,4.425,9.367
	c2.265,1.76,5.063,2.692,7.931,2.645c3.223,0.065,6.333-1.179,8.621-3.448c4.761-4.756,4.766-12.47,0.01-17.231
	c-0.003-0.003-0.006-0.007-0.01-0.011c-2.318-2.344-5.498-3.632-8.793-3.563H580.24z"/>
<path fill="#9A9A9B" d="M651.391,204.824l-5,4.539c-2.959-3.222-7.121-5.074-11.494-5.114c-3.359-0.107-6.618,1.159-9.023,3.506
	c-2.396,2.22-3.732,5.354-3.678,8.62c-0.049,2.215,0.508,4.4,1.608,6.322c1.093,1.858,2.687,3.372,4.598,4.367
	c2.043,1.051,4.313,1.584,6.609,1.552c1.972,0.055,3.933-0.317,5.747-1.092c2.143-0.983,4.09-2.346,5.747-4.022l4.827,4.827
	c-2.25,2.252-4.9,4.064-7.815,5.345c-2.677,1.027-5.524,1.535-8.391,1.494c-5.28,0.186-10.42-1.714-14.311-5.287
	c-3.761-3.472-5.854-8.389-5.747-13.506c-0.045-3.352,0.83-6.65,2.529-9.54c1.768-2.835,4.27-5.139,7.24-6.667
	c5.904-3.133,12.924-3.367,19.023-0.632C646.736,200.708,649.311,202.517,651.391,204.824z"/>
<path fill="#9A9A9B" d="M655.7,198.558h20.402v6.667H662.77v6.437h13.333v6.552H662.77v9.368h13.333v6.667H655.7V198.558z"/>
<path fill="#9A9A9B" d="M680.815,198.558h7.528c2.973-0.164,5.951,0.205,8.793,1.093c1.782,0.665,3.297,1.896,4.311,3.505
	c1.069,1.723,1.609,3.721,1.552,5.748c0.095,2.252-0.642,4.461-2.068,6.207c-1.48,1.755-3.502,2.968-5.747,3.448
	c-2.479,0.489-5.006,0.683-7.529,0.574v15.115h-6.839V198.558z M687.885,212.524h2.299c1.239,0.077,2.483-0.059,3.678-0.402
	c1.431-0.385,2.376-1.743,2.241-3.218c0.064-1.233-0.583-2.395-1.666-2.988c-1.426-0.631-2.988-0.887-4.541-0.748h-2.011V212.524z"
	/>
<path fill="#9A9A9B" d="M713.632,198.904h7.184l14.368,35.689h-7.472l-2.931-7.299h-15.23l-3.046,7.299h-7.414L713.632,198.904z
	 M717.252,208.386l-5,12.241h10L717.252,208.386z"/>
<path fill="#9A9A9B" d="M758.287,203.789l-5.288,4.425c-1.204-2.087-3.348-3.458-5.747-3.678c-0.822-0.038-1.633,0.205-2.299,0.689
	c-0.509,0.386-0.823,0.974-0.862,1.609c-0.019,0.635,0.208,1.252,0.633,1.725c1.619,1.646,3.348,3.182,5.172,4.598
	c1.715,1.276,3.364,2.638,4.942,4.08c1.267,1.146,2.317,2.508,3.104,4.023c0.583,1.301,0.877,2.712,0.862,4.138
	c0.082,2.765-1.078,5.421-3.161,7.241c-2.271,2.013-5.246,3.046-8.275,2.874c-2.444,0.047-4.854-0.59-6.954-1.84
	c-2.174-1.44-3.937-3.421-5.115-5.747l5.747-3.448c1.782,3.161,3.851,4.771,6.207,4.771c1.107,0.038,2.191-0.33,3.046-1.034
	c0.784-0.53,1.257-1.411,1.265-2.356c-0.045-0.892-0.389-1.742-0.977-2.414c-1.233-1.398-2.622-2.651-4.139-3.735
	c-2.938-2.093-5.587-4.566-7.873-7.356c-1.117-1.476-1.741-3.266-1.782-5.115c-0.012-2.468,1.086-4.81,2.989-6.38
	c1.997-1.795,4.614-2.742,7.299-2.643c1.849,0.002,3.674,0.414,5.345,1.207C754.642,200.486,756.633,201.968,758.287,203.789z"/>
<path fill="#9A9A9B" d="M766.85,227.697c1.042,0.002,2.046,0.391,2.816,1.092c1.492,1.425,1.546,3.79,0.121,5.281
	c-0.04,0.041-0.08,0.082-0.121,0.121c-0.758,0.721-1.771,1.113-2.816,1.092c-1.065,0.037-2.102-0.356-2.873-1.092
	c-1.492-1.425-1.546-3.79-0.121-5.281c0.039-0.042,0.08-0.082,0.121-0.121C764.765,228.079,765.789,227.69,766.85,227.697z"/>
</svg>
