<?xml version="1.0" encoding="utf-8"?>
<!-- Generator: Adobe Illustrator 16.0.0, SVG Export Plug-In . SVG Version: 6.00 Build 0)  -->
<!DOCTYPE svg PUBLIC "-//W3C//DTD SVG 1.1//EN" "http://www.w3.org/Graphics/SVG/1.1/DTD/svg11.dtd">
<svg version="1.1" id="Capa_1" xmlns="http://www.w3.org/2000/svg" xmlns:xlink="http://www.w3.org/1999/xlink" x="0px" y="0px"
	 width="862.86px" height="355.93px" viewBox="0 0 862.86 355.93" enable-background="new 0 0 862.86 355.93" xml:space="preserve">
<g id="g6349" transform="matrix(3.630265,0,0,3.630265,0,4.4018555e-5)">
	<g id="g6351">
		<path id="path6353" inkscape:connector-curvature="0" fill="#606060" d="M78.776,41.621v5.214h11.022V57.74H78.776v12.917H67.459
			v-39.94c0-0.039,0.019-0.06,0.059-0.06h23.999l0.771,10.964H78.776z"/>
		<path id="path6355" inkscape:connector-curvature="0" fill="#606060" d="M124.6,36.807c3.755,3.832,5.633,8.459,5.633,13.878
			c0,5.46-1.878,10.105-5.633,13.938c-3.755,3.832-8.285,5.749-13.589,5.749c-5.343,0-9.892-1.917-13.647-5.749
			c-3.756-3.833-5.633-8.478-5.633-13.938c0-5.419,1.877-10.046,5.633-13.878c3.754-3.833,8.304-5.75,13.647-5.75
			C116.315,31.057,120.845,32.974,124.6,36.807L124.6,36.807z M107.76,58.7c0,0.891,0.328,1.665,0.986,2.322
			c0.658,0.659,1.452,0.988,2.381,0.988c0.93,0,1.713-0.329,2.352-0.988c0.639-0.657,0.959-1.431,0.959-2.322V42.497
			c0-0.929-0.319-1.722-0.959-2.381c-0.638-0.657-1.422-0.986-2.352-0.986c-0.929,0-1.723,0.329-2.381,0.986
			c-0.658,0.659-0.986,1.452-0.986,2.381V58.7L107.76,58.7z"/>
		<path id="path6357" inkscape:connector-curvature="0" fill="#606060" d="M147.891,70.776l-5.688-10.133l-5.511,10.133h-12.445
			l11.852-20.74l-11.2-19.379h12.8l4.681,8.653l4.741-8.653h12.385l-10.963,19.26l12.089,20.859H147.891L147.891,70.776z"/>
	</g>
</g>
</svg>
