<?xml version="1.0" encoding="utf-8"?>
<!-- Generator: Adobe Illustrator 16.0.0, SVG Export Plug-In . SVG Version: 6.00 Build 0)  -->
<!DOCTYPE svg PUBLIC "-//W3C//DTD SVG 1.1//EN" "http://www.w3.org/Graphics/SVG/1.1/DTD/svg11.dtd">
<svg version="1.1" id="Capa_1" xmlns="http://www.w3.org/2000/svg" xmlns:xlink="http://www.w3.org/1999/xlink" x="0px" y="0px"
	 width="225px" height="150px" viewBox="0 0 225 150" enable-background="new 0 0 225 150" xml:space="preserve">
<path id="path26_1_" inkscape:connector-curvature="0" fill="#3C3C3B" d="M58.595,67.898c1.026-1.426,2.253-2.498,3.684-3.219
	c1.428-0.721,3.032-1.083,4.809-1.083c3.024,0,5.409,0.873,7.158,2.618c1.751,1.741,2.625,4.12,2.625,7.132v17.137
	c0,1.479-0.325,2.586-0.974,3.315c-0.649,0.732-1.634,1.1-2.953,1.1c-1.283,0-2.263-0.375-2.938-1.124
	c-0.679-0.753-1.016-1.849-1.016-3.291V74.967c0-1.426-0.39-2.537-1.169-3.334c-0.777-0.793-1.864-1.192-3.257-1.192
	c-1.56,0-2.795,0.502-3.714,1.51c-0.914,1.004-1.373,2.383-1.373,4.136v14.396c0,1.462-0.333,2.563-0.992,3.303
	c-0.661,0.741-1.646,1.112-2.948,1.112c-1.307,0-2.279-0.367-2.921-1.1c-0.646-0.729-0.964-1.837-0.964-3.315V75.019
	c0-1.446-0.379-2.558-1.128-3.343c-0.753-0.789-1.825-1.179-3.217-1.179c-1.558,0-2.791,0.501-3.698,1.506
	c-0.906,1.004-1.36,2.382-1.36,4.14v14.34c0,1.462-0.331,2.563-0.988,3.303c-0.659,0.741-1.649,1.112-2.966,1.112
	c-1.301,0-2.277-0.371-2.938-1.112c-0.658-0.74-0.988-1.841-0.988-3.303V68.528c0-1.442,0.325-2.546,0.974-3.323
	c0.651-0.773,1.58-1.159,2.787-1.159c1.136,0,2.024,0.318,2.666,0.956c0.64,0.638,1.024,1.586,1.152,2.845
	c1.063-1.426,2.285-2.502,3.662-3.223c1.375-0.721,2.924-1.084,4.65-1.084c1.888,0,3.502,0.351,4.843,1.056
	C56.439,65.297,57.604,66.4,58.595,67.898L58.595,67.898"/>
<path id="path28_1_" inkscape:connector-curvature="0" fill="#3C3C3B" d="M99.13,79.74c-1.318,0.622-2.829,1.112-4.526,1.471
	c-1.695,0.354-2.57,0.542-2.626,0.558c-1.395,0.402-2.371,0.904-2.93,1.506c-0.56,0.602-0.839,1.431-0.839,2.486
	c0,1.132,0.367,2.013,1.1,2.638c0.733,0.63,1.761,0.944,3.082,0.944c2.036,0,3.668-0.613,4.896-1.845
	c1.229-1.231,1.843-2.877,1.843-4.937V79.74z M106.788,71.955v16.926c0,0.598,0.044,1.295,0.136,2.08
	c0.092,0.789,0.14,1.271,0.14,1.454c0,0.948-0.303,1.693-0.906,2.235c-0.604,0.538-1.444,0.805-2.524,0.805
	c-1.482,0-2.576-0.383-3.279-1.147c-0.705-0.769-1.068-1.977-1.086-3.622c-1.01,1.554-2.329,2.741-3.963,3.551
	c-1.633,0.813-3.534,1.219-5.697,1.219c-2.861,0-5.088-0.809-6.674-2.435c-1.588-1.626-2.383-3.9-2.383-6.821
	c0-2.741,0.671-4.837,2.01-6.287c1.341-1.451,3.616-2.515,6.827-3.188c1.227-0.26,2.793-0.502,4.692-0.729
	c1.898-0.228,3.134-0.435,3.703-0.613c0.421-0.147,0.733-0.415,0.935-0.798c0.201-0.382,0.303-0.864,0.303-1.449
	c0-1.203-0.376-2.068-1.13-2.586c-0.751-0.522-2.008-0.781-3.769-0.781c-0.916,0-1.757,0.127-2.518,0.382
	c-0.761,0.255-1.434,0.629-2.022,1.12c-0.201,0.184-0.504,0.494-0.909,0.933c-1.265,1.366-2.448,2.052-3.55,2.052
	c-0.918,0-1.684-0.314-2.297-0.944c-0.614-0.63-0.923-1.402-0.923-2.315c0-1.992,1.15-3.733,3.451-5.219
	c2.301-1.49,5.13-2.235,8.483-2.235c4.18,0,7.381,0.721,9.608,2.167C105.673,67.149,106.788,69.233,106.788,71.955L106.788,71.955"
	/>
<path id="path30_1_" inkscape:connector-curvature="0" fill="#3C3C3B" d="M120.093,90.486c0,1.442-0.333,2.538-1.003,3.287
	c-0.667,0.749-1.651,1.124-2.95,1.124c-1.281,0-2.237-0.367-2.868-1.096c-0.632-0.733-0.949-1.837-0.949-3.315V57.938
	c0-1.498,0.317-2.614,0.949-3.343c0.631-0.729,1.587-1.096,2.868-1.096c1.299,0,2.283,0.375,2.95,1.124
	c0.67,0.749,1.003,1.853,1.003,3.315v17.28l7.944-8.925c0.789-0.913,1.431-1.506,1.925-1.781c0.494-0.275,1.052-0.41,1.676-0.41
	c0.97,0,1.822,0.331,2.556,1c0.733,0.666,1.1,1.435,1.1,2.311s-0.749,2.132-2.253,3.753l-0.082,0.084l-4.151,4.406l7.04,12.061
	c0.556,0.896,0.923,1.578,1.098,2.045c0.174,0.462,0.266,0.908,0.266,1.326c0,1.116-0.361,2.028-1.076,2.741
	c-0.718,0.714-1.636,1.068-2.755,1.068c-0.975,0-1.813-0.211-2.521-0.634c-0.705-0.418-1.319-1.084-1.833-1.996l-5.909-10.555
	l-3.023,3.263V90.486"/>
<path id="path32_1_" inkscape:connector-curvature="0" fill="#3C3C3B" d="M149.194,70.206c0.81-1.932,1.815-3.446,3.024-4.53
	c1.211-1.087,2.492-1.629,3.849-1.629c1.319,0,2.355,0.362,3.108,1.096c0.749,0.729,1.126,1.733,1.126,3.012
	c0,0.637-0.106,1.203-0.317,1.697s-0.534,0.932-0.976,1.315c-0.515,0.438-1.429,0.686-2.75,0.741
	c-0.769,0.036-1.356,0.087-1.757,0.163c-1.558,0.291-2.733,0.988-3.532,2.096c-0.799,1.104-1.197,2.598-1.197,4.479v11.842
	c0,1.458-0.335,2.559-1.004,3.303c-0.666,0.737-1.67,1.108-3.005,1.108c-1.32,0-2.314-0.371-2.982-1.108
	c-0.667-0.744-1.002-1.845-1.002-3.303v-21.95c0-1.498,0.323-2.622,0.975-3.367c0.651-0.749,1.615-1.124,2.898-1.124
	c1.116,0,1.986,0.311,2.61,0.932c0.621,0.618,0.932,1.486,0.932,2.602V70.206"/>
<path id="path34_1_" inkscape:connector-curvature="0" fill="#3C3C3B" d="M175.486,70.27c-2.256,0-3.99,0.801-5.21,2.398
	c-1.218,1.598-1.829,3.865-1.829,6.806c0,2.956,0.611,5.235,1.829,6.845c1.22,1.606,2.954,2.407,5.21,2.407
	c2.217,0,3.935-0.801,5.153-2.407c1.22-1.609,1.829-3.889,1.829-6.845c0-2.94-0.609-5.208-1.829-6.806
	C179.421,71.07,177.703,70.27,175.486,70.27L175.486,70.27z M175.488,63.54c4.689,0,8.387,1.415,11.088,4.248
	c2.704,2.829,4.057,6.722,4.057,11.671c0,4.968-1.353,8.865-4.057,11.694c-2.701,2.832-6.398,4.247-11.088,4.247
	c-4.71,0-8.411-1.415-11.104-4.247c-2.694-2.829-4.041-6.727-4.041-11.694c0-4.949,1.347-8.842,4.041-11.671
	C167.077,64.954,170.778,63.54,175.488,63.54L175.488,63.54"/>
</svg>
