<?xml version="1.0" encoding="utf-8"?>
<!-- Generator: Adobe Illustrator 16.0.0, SVG Export Plug-In . SVG Version: 6.00 Build 0)  -->
<!DOCTYPE svg PUBLIC "-//W3C//DTD SVG 1.1//EN" "http://www.w3.org/Graphics/SVG/1.1/DTD/svg11.dtd">
<svg version="1.1" id="Capa_1" xmlns="http://www.w3.org/2000/svg" xmlns:xlink="http://www.w3.org/1999/xlink" x="0px" y="0px"
	 width="862.86px" height="355.93px" viewBox="0 0 862.86 355.93" enable-background="new 0 0 862.86 355.93" xml:space="preserve">
<g>
	<g>
		<path id="XMLID_12_" fill="#3C3C3B" d="M149.633,178.217c0,10.305,8.355,18.66,18.664,18.66c10.306,0,18.666-8.354,18.666-18.66
			c0-10.309-8.359-18.667-18.666-18.667C157.988,159.551,149.633,167.908,149.633,178.217z"/>
		<path fill="#3C3C3B" d="M224.139,177.802c0.037,15.278-5.898,29.667-16.697,40.501c-10.823,10.848-25.189,16.811-40.459,16.811
			h-35.612c-0.754,0-1.429-0.311-1.919-0.879c-0.481-0.57-0.698-1.314-0.584-2.056c1.041-6.606,4.445-12.653,9.589-17.029
			c5.144-4.366,11.657-6.776,18.344-6.776h10.182c15.715,0,29.031-12.266,30.299-27.935c0.069-0.809,0.103-1.681,0.103-2.788
			c-0.013-0.64-0.034-1.225-0.08-1.785c-1.097-15.872-14.572-28.298-30.689-28.298H156.8c-7.554,0-14.654-2.948-20.001-8.284
			c-4.171-4.173-6.983-9.681-7.922-15.509c-0.111-0.77,0.093-1.499,0.561-2.068c0.493-0.572,1.202-0.892,1.944-0.892h35.029
			C198.149,120.815,224.047,146.38,224.139,177.802z"/>
		<path fill="#3C3C3B" d="M529.716,211.288L529.716,211.288c-4.567-3.892-10.364-6.034-16.322-6.034h-9.074
			c-14.001,0-25.845-10.924-26.972-24.873c-0.068-0.782-0.099-1.612-0.089-2.458c0.006-0.575,0.034-1.108,0.068-1.619
			c0.979-14.122,12.979-25.19,27.329-25.19h8.739c6.727,0,13.047-2.618,17.805-7.37c3.711-3.711,6.216-8.622,7.049-13.826
			c0.108-0.655-0.079-1.323-0.51-1.828c-0.428-0.505-1.05-0.794-1.712-0.794h-31.196c-28.261,0-51.313,22.765-51.389,50.743
			c-0.043,13.595,5.241,26.402,14.869,36.055c9.628,9.657,22.417,14.974,36.009,14.974h31.713c0.658,0,1.283-0.29,1.71-0.791
			c0.431-0.505,0.616-1.167,0.511-1.825C537.328,220.571,534.295,215.187,529.716,211.288z M732.608,127.088h-22.041
			c-1.276,0-1.97,0.472-2.41,1.654c-1.907,5.294-22.814,67.763-22.814,67.763l-22.719-67.81c-0.425-1.135-1.055-1.607-2.19-1.607
			h-22.529c-0.804,0-1.134,0.693-0.866,1.292l37.243,97.483c0.466,1.221,1.637,2.027,2.943,2.027h16.337
			c1.304,0,2.473-0.803,2.941-2.021l37.445-97.441C733.948,128.427,734.499,127.088,732.608,127.088z M239.219,128.664v97.651
			c0,0.87,0.706,1.575,1.576,1.575h20.86c0.871,0,1.576-0.706,1.576-1.575v-97.651c0-0.87-0.706-1.575-1.576-1.575h-20.86
			C239.925,127.088,239.219,127.793,239.219,128.664z M626.324,126.978H550.62c-0.866,0-1.575,0.708-1.575,1.575v17.788
			c0,0.867,0.709,1.576,1.575,1.576h25.776v78.303c0,0.87,0.705,1.576,1.575,1.576h20.86c0.87,0,1.575-0.706,1.575-1.576v-78.303
			h25.917c0.866,0,1.576-0.708,1.576-1.576v-17.788C627.9,127.687,627.19,126.978,626.324,126.978z M442.099,147.996
			c0.867,0,1.576-0.709,1.576-1.576v-17.756c0-0.867-0.709-1.575-1.576-1.575h-58.861c-0.788,0-1.04,0.267-1.119,0.378
			c-0.11,0.11-0.41,0.425-0.41,1.307v97.43c0,0.871,0.706,1.576,1.576,1.576h58.641c0.962,0,1.749-0.787,1.749-1.749v-17.425
			c0-0.961-0.787-1.749-1.749-1.749h-36.237v-20.923h25.886c0.866,0,1.576-0.709,1.576-1.576v-14.416
			c0-0.867-0.709-1.576-1.576-1.576h-25.886v-20.371H442.099z M366.096,225.573l-19.883-37.528l1.292-0.725
			c2.395-1.386,4.632-3.072,6.648-4.994c2.032-1.938,3.797-4.127,5.246-6.475c1.466-2.379,2.632-4.947,3.451-7.689
			c0.803-2.694,1.229-5.593,1.229-8.618c0-4.442-0.866-8.665-2.568-12.572c-1.702-3.908-4.081-7.389-7.043-10.335
			c-2.978-2.915-6.523-5.278-10.508-6.979c-3.986-1.717-8.335-2.568-12.903-2.568h-45.155c-0.867,0-1.576,0.708-1.576,1.575v97.651
			c0,0.866,0.709,1.575,1.576,1.575h20.86c0.867,0,1.576-0.709,1.576-1.575v-80.619l18.827,0.094c1.781,0.268,3.419,0.851,4.9,1.749
			c1.449,0.882,2.71,1.985,3.75,3.293c1.024,1.275,1.843,2.726,2.41,4.27c0.567,1.543,0.851,3.135,0.851,4.726
			c0,1.639-0.252,3.277-0.772,4.853c-0.504,1.56-1.276,3.009-2.269,4.301c-1.008,1.292-2.252,2.378-3.718,3.246
			c-1.48,0.866-3.167,1.417-5.01,1.638c-0.804,0.095-1.544,0.158-2.222,0.206c-0.646,0.047-1.418,0.079-2.347,0.079h-5.924
			c-0.946,0-1.813,0.488-2.3,1.292c-0.489,0.82-0.521,1.797-0.079,2.632l25.411,48.55c0.408,0.779,1.214,1.268,2.094,1.268h22.77
			C365.892,227.89,366.647,226.629,366.096,225.573z"/>
	</g>
</g>
</svg>
