<?xml version="1.0" encoding="utf-8"?>
<!-- Generator: Adobe Illustrator 16.0.0, SVG Export Plug-In . SVG Version: 6.00 Build 0)  -->
<!DOCTYPE svg PUBLIC "-//W3C//DTD SVG 1.1//EN" "http://www.w3.org/Graphics/SVG/1.1/DTD/svg11.dtd">
<svg version="1.1" id="Capa_1" xmlns="http://www.w3.org/2000/svg" xmlns:xlink="http://www.w3.org/1999/xlink" x="0px" y="0px"
	 width="862.86px" height="355.93px" viewBox="0 0 862.86 355.93" enable-background="new 0 0 862.86 355.93" xml:space="preserve">
<path id="path26" inkscape:connector-curvature="0" fill="#5C5C5C" d="M210.143,149.229c4.483-6.226,9.847-10.917,16.086-14.066
	c6.242-3.155,13.245-4.729,21.005-4.729c13.211,0,23.632,3.807,31.271,11.43c7.648,7.61,11.468,18,11.468,31.161v74.844
	c0,6.466-1.419,11.304-4.26,14.48c-2.836,3.203-7.134,4.803-12.891,4.803c-5.6,0-9.882-1.636-12.836-4.908
	c-2.961-3.28-4.438-8.076-4.438-14.376v-67.773c0-6.23-1.705-11.082-5.103-14.553c-3.401-3.472-8.15-5.208-14.23-5.208
	c-6.811,0-12.216,2.197-16.22,6.587c-4,4.39-6,10.412-6,18.069v62.878c0,6.388-1.449,11.2-4.334,14.428
	c-2.888,3.237-7.184,4.855-12.88,4.855c-5.699,0-9.948-1.601-12.756-4.803c-2.812-3.176-4.211-8.014-4.211-14.48V180.32
	c0-6.304-1.645-11.172-4.925-14.601c-3.286-3.433-7.969-5.147-14.049-5.147c-6.805,0-12.193,2.193-16.152,6.579
	c-3.958,4.394-5.94,10.417-5.94,18.082v62.636c0,6.388-1.444,11.2-4.32,14.428c-2.88,3.237-7.201,4.855-12.957,4.855
	c-5.677,0-9.95-1.618-12.835-4.855c-2.874-3.228-4.315-8.041-4.315-14.428v-95.893c0-6.292,1.419-11.125,4.254-14.506
	c2.841-3.38,6.901-5.074,12.18-5.074c4.96,0,8.836,1.393,11.633,4.177c2.797,2.789,4.478,6.927,5.04,12.422
	c4.645-6.23,9.975-10.925,15.984-14.079c6.009-3.15,12.778-4.726,20.31-4.726c8.257,0,15.307,1.536,21.159,4.608
	C200.728,137.869,205.814,142.681,210.143,149.229L210.143,149.229"/>
<path id="path28" inkscape:connector-curvature="0" fill="#5C5C5C" d="M387.204,200.948c-5.77,2.724-12.358,4.855-19.772,6.422
	c-7.409,1.549-11.233,2.376-11.472,2.445c-6.091,1.749-10.356,3.942-12.803,6.57c-2.44,2.627-3.662,6.248-3.662,10.869
	c0,4.933,1.601,8.78,4.807,11.512c3.204,2.759,7.689,4.133,13.459,4.133c8.894,0,16.02-2.688,21.389-8.066
	c5.364-5.377,8.054-12.557,8.054-21.554V200.948z M420.644,166.951v73.922c0,2.619,0.2,5.664,0.601,9.093
	c0.401,3.438,0.601,5.543,0.601,6.343c0,4.143-1.32,7.396-3.955,9.764c-2.638,2.35-6.314,3.524-11.03,3.524
	c-6.475,0-11.249-1.671-14.323-5.021c-3.08-3.358-4.661-8.632-4.738-15.811c-4.409,6.779-10.178,11.965-17.313,15.498
	c-7.125,3.559-15.43,5.334-24.883,5.334c-12.501,0-22.221-3.542-29.149-10.643c-6.937-7.101-10.403-17.038-10.403-29.786
	c0-11.973,2.926-21.127,8.775-27.471c5.855-6.336,15.79-10.982,29.816-13.923c5.369-1.123,12.199-2.185,20.497-3.177
	c8.298-1,13.684-1.897,16.174-2.688c1.838-0.645,3.2-1.802,4.084-3.472c0.884-1.671,1.323-3.785,1.323-6.339
	c0-5.261-1.645-9.029-4.93-11.304c-3.286-2.276-8.773-3.406-16.468-3.406c-4.005,0-7.672,0.553-10.996,1.67
	c-3.325,1.118-6.272,2.75-8.837,4.899c-0.883,0.796-2.207,2.153-3.969,4.068c-5.528,5.973-10.697,8.962-15.507,8.962
	c-4.005,0-7.351-1.375-10.033-4.129c-2.685-2.75-4.027-6.126-4.027-10.112c0-8.702,5.023-16.298,15.07-22.803
	c10.052-6.504,22.401-9.754,37.052-9.754c18.257,0,32.246,3.15,41.974,9.459C415.779,145.957,420.644,155.055,420.644,166.951
	L420.644,166.951"/>
<path id="path30" inkscape:connector-curvature="0" fill="#5C5C5C" d="M478.764,247.886c0,6.3-1.458,11.085-4.381,14.358
	c-2.915,3.271-7.211,4.908-12.888,4.908c-5.594,0-9.772-1.601-12.531-4.786c-2.759-3.194-4.137-8.024-4.137-14.48v-142.17
	c0-6.543,1.378-11.408,4.137-14.598c2.759-3.188,6.937-4.786,12.531-4.786c5.677,0,9.973,1.636,12.888,4.908
	c2.923,3.267,4.381,8.092,4.381,14.475v75.488l34.697-38.993c3.442-3.99,6.245-6.579,8.402-7.775
	c2.163-1.201,4.603-1.796,7.324-1.796c4.238,0,7.96,1.453,11.164,4.368c3.201,2.91,4.804,6.274,4.804,10.103
	s-3.272,9.298-9.844,16.394l-0.356,0.356l-18.134,19.258l30.752,52.681c2.427,3.906,4.03,6.883,4.796,8.918
	c0.757,2.028,1.155,3.968,1.155,5.796c0,4.873-1.572,8.858-4.696,11.974c-3.135,3.115-7.146,4.664-12.037,4.664
	c-4.255,0-7.917-0.914-11.008-2.759c-3.085-1.827-5.756-4.742-8.001-8.728l-25.814-46.103l-13.203,14.253V247.886"/>
<path id="path32" inkscape:connector-curvature="0" fill="#5C5C5C" d="M605.874,159.31c3.532-8.453,7.927-15.053,13.208-19.796
	c5.292-4.747,10.887-7.119,16.813-7.119c5.762,0,10.286,1.593,13.574,4.786c3.272,3.189,4.916,7.571,4.916,13.157
	c0,2.794-0.461,5.264-1.383,7.418s-2.331,4.068-4.263,5.744c-2.246,1.91-6.24,2.993-12.01,3.232
	c-3.357,0.157-5.923,0.392-7.675,0.714c-6.805,1.279-11.938,4.324-15.427,9.15c-3.488,4.833-5.229,11.351-5.229,19.565v51.724
	c0,6.378-1.464,11.182-4.387,14.428c-2.907,3.22-7.294,4.838-13.121,4.838c-5.771,0-10.113-1.618-13.028-4.838
	c-2.915-3.246-4.378-8.05-4.378-14.428v-95.872c0-6.54,1.411-11.446,4.258-14.715c2.844-3.268,7.054-4.904,12.659-4.904
	c4.873,0,8.677,1.357,11.4,4.068c2.715,2.71,4.071,6.5,4.071,11.365V159.31"/>
<path id="path34" inkscape:connector-curvature="0" fill="#5C5C5C" d="M720.711,159.588c-9.849,0-17.429,3.49-22.753,10.468
	c-5.317,6.979-7.988,16.882-7.988,29.726c0,12.914,2.671,22.877,7.988,29.899c5.324,7.014,12.904,10.512,22.753,10.512
	c9.687,0,17.187-3.498,22.512-10.512c5.325-7.022,7.988-16.986,7.988-29.899c0-12.844-2.663-22.747-7.988-29.726
	C737.897,163.078,730.397,159.588,720.711,159.588L720.711,159.588z M720.722,130.189c20.483,0,36.635,6.183,48.433,18.548
	c11.809,12.364,17.716,29.354,17.716,50.975c0,21.703-5.907,38.732-17.716,51.088c-11.798,12.374-27.95,18.552-48.433,18.552
	c-20.571,0-36.739-6.178-48.504-18.552c-11.766-12.356-17.648-29.386-17.648-51.088c0-21.62,5.882-38.61,17.648-50.975
	C683.983,136.373,700.151,130.189,720.722,130.189L720.722,130.189"/>
</svg>
