<?xml version="1.0" encoding="utf-8"?>
<!-- Generator: Adobe Illustrator 16.0.0, SVG Export Plug-In . SVG Version: 6.00 Build 0)  -->
<!DOCTYPE svg PUBLIC "-//W3C//DTD SVG 1.1//EN" "http://www.w3.org/Graphics/SVG/1.1/DTD/svg11.dtd">
<svg version="1.1"
	 id="svg40450" sodipodi:docname="lider.svg" inkscape:version="0.91 r13725" xmlns:cc="http://creativecommons.org/ns#" xmlns:rdf="http://www.w3.org/1999/02/22-rdf-syntax-ns#" xmlns:dc="http://purl.org/dc/elements/1.1/" xmlns:svg="http://www.w3.org/2000/svg" xmlns:inkscape="http://www.inkscape.org/namespaces/inkscape" xmlns:sodipodi="http://sodipodi.sourceforge.net/DTD/sodipodi-0.dtd"
	 xmlns="http://www.w3.org/2000/svg" xmlns:xlink="http://www.w3.org/1999/xlink" x="0px" y="0px" width="3000px"
	 height="2933.21px" viewBox="0 0 3000 2933.21" enable-background="new 0 0 3000 2933.21" xml:space="preserve">
<title  id="title55047">McDonald&apos;s</title>
<sodipodi:namedview  units="px" id="base" inkscape:showpageshadow="false" fit-margin-bottom="20" inkscape:document-units="px" fit-margin-right="20" inkscape:window-width="1366" inkscape:window-x="-8" inkscape:pageshadow="2" inkscape:current-layer="layer1" inkscape:pageopacity="0.0" inkscape:window-maximized="1" inkscape:window-height="715" inkscape:window-y="-8" inkscape:zoom="0.11215765" inkscape:cy="1897.9261" pagecolor="#ffffff" inkscape:cx="1234.1269" borderopacity="1.0" bordercolor="#666666" showgrid="false" fit-margin-left="20" fit-margin-top="20">
	</sodipodi:namedview>
<g id="g47059" transform="matrix(100.30839,0,0,-100.30839,-1093.1742,475.41351)">
	<path id="path47061" inkscape:connector-curvature="0" fill="#747474" d="M11.098-14.715l1.066-9.588h27.378l1.065,9.588H11.098z"
		/>
</g>
<g id="g47071" transform="matrix(100.30839,0,0,-100.30839,1352.5669,717.15149)">
	<path id="path47073" inkscape:connector-curvature="0" fill="#BEBEBE" d="M11.098-14.715c0,0-1.385,19.868-4.368,19.868
		c-3.515,0-3.675-18.696-3.675-18.696l-3.276-0.027c0,0-0.16,18.696-3.675,18.696c-2.983,0-4.368-19.868-4.368-19.868l-3.209,0.014
		c0,0,2.156,21.633,7.763,21.66c3.689,0.018,5.113-9.317,5.113-9.317S3.548,6.95,6.318,6.95c6.658,0,7.989-21.678,7.989-21.678
		L11.098-14.715z"/>
</g>
<g id="g47075" transform="matrix(100.30839,0,0,-100.30839,381.50141,560.87101)">
	<path id="path47077" inkscape:connector-curvature="0" fill="#CDCDCD" d="M11.098-14.715L9.46-15.128l3.276,0.027L11.098-14.715z"
		/>
</g>
<g id="g47079" transform="matrix(100.30839,0,0,-100.30839,1503.5009,678.41239)">
	<path id="path47081" inkscape:connector-curvature="0" fill="#CDCDCD" d="M11.098-14.715l-1.491-0.399h3.196L11.098-14.715z"/>
</g>
<g id="g47083" transform="matrix(100.30839,0,0,-100.30839,-761.8738,678.41239)">
	<path id="path47085" inkscape:connector-curvature="0" fill="#CDCDCD" d="M11.098-14.715l-1.491-0.399l3.209-0.014L11.098-14.715z"
		/>
</g>
<g id="g47087" transform="matrix(100.30839,0,0,-100.30839,899.74471,-1362.5524)">
	<path id="path47089" inkscape:connector-curvature="0" fill="#CDCDCD" d="M11.098-14.715c-4.368,0-5.167-19.175-5.167-19.175
		L5.917-23.118c0,0,2.145,9.335,4.915,9.335L11.098-14.715z"/>
</g>
<g id="g47091" transform="matrix(100.30839,0,0,-100.30839,-152.79123,-1357.216)">
	<path id="path47093" inkscape:connector-curvature="0" fill="#CDCDCD" d="M11.098-14.715c4.261,0,5.326-19.122,5.326-19.122
		l-1.637-0.413c0,0-0.16,18.696-3.676,18.696L11.098-14.715z"/>
</g>
<g id="g47095" transform="matrix(100.30839,0,0,-100.30839,-761.8738,678.41239)">
	<path id="path47097" inkscape:connector-curvature="0" fill="#CDCDCD" d="M11.098-14.715c0,0,1.758,20.294,6.072,20.294
		l0.199,0.967c-5.607-0.027-7.762-21.66-7.762-21.66L11.098-14.715z"/>
</g>
<g id="g47099" transform="matrix(100.30839,0,0,-100.30839,1503.5009,678.41239)">
	<path id="path47101" inkscape:connector-curvature="0" fill="#CDCDCD" d="M11.098-14.715c0,0-1.598,20.347-6.019,20.347
		l0.147-0.866c2.982,0,4.367-19.867,4.367-19.867L11.098-14.715z"/>
</g>
<g id="g47103" transform="matrix(100.30839,0,0,-100.30839,-254.15286,1019.0196)">
</g>
<g id="g47107" transform="matrix(100.30839,0,0,-100.30839,-923.59099,1174.3772)">
</g>
<g id="g47111" transform="matrix(100.30839,0,0,-100.30839,1688.4395,1004.1338)">
</g>
<g id="g47115" transform="matrix(100.30839,0,0,-100.30839,1300.9783,1055.4114)">
</g>
<g id="g47121" transform="matrix(100.30839,0,0,-100.30839,965.14578,1021.9586)">
</g>
<g id="g47125" transform="matrix(100.30839,0,0,-100.30839,434.53446,1176.7344)">
</g>
<g id="g47129" transform="matrix(100.30839,0,0,-100.30839,316.22071,1048.6707)">
</g>
<g id="g47133" transform="matrix(100.30839,0,0,-100.30839,1412.3005,885.39875)">
</g>
<g id="g47137" transform="matrix(100.30839,0,0,-100.30839,-117.54286,952.54518)">
</g>
<g id="g47141" transform="matrix(100.30839,0,0,-100.30839,1681.8292,824.71217)">
</g>
<g id="g47145" transform="matrix(100.30839,0,0,-100.30839,1710.5575,882.96125)">
	<path id="path47147" inkscape:connector-curvature="0" fill="#FFFFFF" d="M11.098-14.715l-0.104,0.47v-0.47h-0.119v0.581h0.174
		l0.109-0.446l0.108,0.446h0.175v-0.581h-0.12v0.47l-0.104-0.47H11.098z M10.811-14.134v-0.1h-0.17v-0.481h-0.119v0.481h-0.176v0.1
		H10.811z M-7.127-15.409h0.371c0.844,0,0.918-0.57,0.918-0.775c0-0.306-0.106-0.812-0.833-0.812h-0.456V-15.409z M-8.144-17.632
		h1.528c1.197,0,1.754,0.56,1.754,1.441c0,0.724-0.404,1.432-1.547,1.432h-1.735V-17.632L-8.144-17.632z M8.124-14.739h0.741
		l-0.246-0.838H8.124V-14.739z M-2.803-16.367c0-0.286-0.056-0.672-0.476-0.672c-0.42,0-0.476,0.386-0.476,0.672
		c0,0.286,0.056,0.667,0.476,0.667C-2.859-15.7-2.803-16.081-2.803-16.367 M-1.896-16.366c0,0.695-0.431,1.313-1.386,1.313
		c-0.956,0-1.387-0.618-1.387-1.313c0-0.696,0.431-1.319,1.387-1.319C-2.327-17.685-1.896-17.062-1.896-16.366 M-1.623-17.644h0.882
		v1.266c0,0.384,0.241,0.463,0.398,0.463c0.268,0,0.385-0.195,0.385-0.473v-1.257l0.892,0.001v1.645
		c0,0.449-0.355,0.813-0.884,0.814c-0.365,0-0.657-0.125-0.828-0.365v0.305h-0.845V-17.644z M3.666-16.101
		c-0.019,0.287-0.002,0.97-1.148,0.97c-0.569,0-1.193-0.146-1.193-0.82h0.856c0.005,0.102,0.082,0.283,0.31,0.283
		c0.147,0,0.29-0.096,0.297-0.257c0.003-0.08-0.134-0.155-0.261-0.153c-0.519,0.009-1.32-0.064-1.32-0.838
		c0-0.504,0.361-0.766,0.823-0.766c0.296,0,0.523,0.089,0.725,0.274L2.8-17.426c-0.005-0.064-0.014-0.131,0.009-0.196h0.874
		c-0.063,0.169-0.017,0.356-0.017,0.537V-16.101L3.666-16.101z M2.791-16.716c-0.009-0.145-0.228-0.345-0.42-0.344
		c-0.167,0-0.254,0.097-0.254,0.208c0,0.162,0.037,0.273,0.219,0.31c0.125,0.025,0.3,0.045,0.455,0.048V-16.716z M4.057-14.739
		h0.915v-2.903H4.057V-14.739z M7.014-16.434c0-0.286-0.08-0.595-0.436-0.595c-0.355,0-0.435,0.309-0.435,0.595
		c0,0.281,0.08,0.59,0.435,0.59C6.934-15.844,7.014-16.153,7.014-16.434 M7.87-14.739H6.989v-0.689h-0.01
		c-0.138,0.204-0.419,0.279-0.692,0.279c-0.804,0-1.056-0.729-1.056-1.293c0-0.701,0.31-1.256,1.045-1.254
		c0.448,0.002,0.587,0.171,0.702,0.324h0.009v-0.264H7.87V-14.739z M10.877-15.923c-0.018,0.756-0.634,0.817-1.12,0.829
		c-0.382,0.009-1.069-0.138-1.069-0.773c0-0.431,0.265-0.664,0.92-0.79c0.4-0.077,0.435-0.16,0.441-0.268
		c0.007-0.145-0.143-0.236-0.256-0.236c-0.104,0-0.186,0.029-0.23,0.072c-0.065,0.063-0.102,0.18-0.107,0.267H8.592
		c0.013-0.649,0.409-0.886,1.168-0.887c0.547,0,1.19,0.177,1.19,0.876c0,0.364-0.246,0.564-0.592,0.655
		c-0.296,0.078-0.576,0.123-0.719,0.191c-0.048,0.024-0.126,0.091-0.126,0.164c0,0.165,0.144,0.191,0.26,0.194
		c0.07,0.002,0.139,0.005,0.191-0.044c0.057-0.043,0.096-0.168,0.1-0.25H10.877L10.877-15.923z M-15.163-17.62h0.924
		c0,0,0.214,1.364,0.222,1.479l0.509-1.479h0.793l0.519,1.479l0.163-1.479h0.995l-0.5,2.888h-1.126c0,0-0.4-1.283-0.42-1.409h-0.028
		l-0.42,1.409h-1.139L-15.163-17.62z M-8.489-16.071C-8.544-15.41-9.081-15.1-9.709-15.1c-0.721,0-1.296-0.504-1.299-1.262
		c-0.003-0.947,0.578-1.319,1.299-1.319c0.647,0,1.161,0.201,1.248,1.041h-0.874c-0.018-0.19-0.092-0.401-0.356-0.401
		c-0.404,0-0.402,0.388-0.402,0.679s0.01,0.648,0.361,0.648c0.097,0,0.221-0.039,0.277-0.09c0.06-0.051,0.088-0.17,0.097-0.267
		H-8.489L-8.489-16.071z"/>
</g>
</svg>
