<?xml version="1.0" encoding="utf-8"?>
<!-- Generator: Adobe Illustrator 16.0.0, SVG Export Plug-In . SVG Version: 6.00 Build 0)  -->
<!DOCTYPE svg PUBLIC "-//W3C//DTD SVG 1.1//EN" "http://www.w3.org/Graphics/SVG/1.1/DTD/svg11.dtd">
<svg version="1.1" id="Capa_1" xmlns="http://www.w3.org/2000/svg" xmlns:xlink="http://www.w3.org/1999/xlink" x="0px" y="0px"
	 width="1200px" height="1200px" viewBox="0 0 1200 1200" enable-background="new 0 0 1200 1200" xml:space="preserve">
<g>
	<path fill="#5C8D04" d="M142.771,614.32l15.65-103.71h31.927v146.071h-21.703V551.927l-15.858,104.754h-21.703l-17.11-103.292
		v103.292H93.941V510.61h31.927L142.771,614.32z"/>
	<path fill="#5C8D04" d="M229.972,572.167h31.51v20.868h-31.51v42.779h39.647v20.867h-62.602V510.61h62.602v20.869h-39.647V572.167z
		"/>
	<path fill="#5C8D04" d="M318.227,575.299h32.137v46.322c0,23.375-11.688,36.729-34.224,36.729
		c-22.537,0-34.223-13.354-34.223-36.729v-75.955c0-23.37,11.687-36.727,34.223-36.727c22.536,0,34.224,13.357,34.224,36.727v14.19
		H328.66v-15.651c0-10.433-4.59-14.399-11.896-14.399c-7.301,0-11.894,3.966-11.894,14.399v78.876
		c0,10.436,4.593,14.192,11.894,14.192c7.306,0,11.896-3.756,11.896-14.192v-26.915h-10.433V575.299z"/>
	<path fill="#5C8D04" d="M439.241,656.681h-23.164l-3.963-26.5h-28.171l-3.965,26.5h-21.075l23.371-146.071h33.596L439.241,656.681z
		 M386.867,610.354h22.117l-11.06-73.868L386.867,610.354z"/>
	<path fill="#494A49" d="M497.863,656.681c-1.251-3.756-2.087-6.05-2.087-17.946v-22.954c0-13.564-4.59-18.571-15.023-18.571h-7.931
		v59.471h-22.952V510.61h34.638c23.788,0,34.014,11.06,34.014,33.596v11.477c0,15.024-4.8,24.833-15.026,29.633
		c11.479,4.798,15.232,15.855,15.232,31.089v22.537c0,7.096,0.209,12.313,2.507,17.739H497.863z M472.822,531.479v44.862h8.973
		c8.556,0,13.773-3.756,13.773-15.441V546.5c0-10.434-3.548-15.022-11.687-15.022H472.822z"/>
	<path fill="#494A49" d="M556.69,572.167h31.51v20.868h-31.51v42.779h39.649v20.867h-62.603V510.61h62.603v20.869H556.69V572.167z"
		/>
	<path fill="#494A49" d="M641.397,508.939c22.329,0,33.806,13.357,33.806,36.727v4.59H653.5v-6.051
		c0-10.433-4.174-14.399-11.479-14.399c-7.302,0-11.473,3.966-11.473,14.399c0,30.048,44.861,35.684,44.861,77.416
		c0,23.375-11.684,36.729-34.223,36.729c-22.537,0-34.221-13.354-34.221-36.729v-8.971h21.7v10.432
		c0,10.436,4.593,14.192,11.894,14.192c7.307,0,11.898-3.756,11.898-14.192c0-30.047-44.866-35.682-44.866-77.416
		C607.593,522.296,619.07,508.939,641.397,508.939z"/>
	<path fill="#494A49" d="M711.495,572.167h31.508v20.868h-31.508v42.779h39.648v20.867h-62.599V510.61h62.599v20.869h-39.648
		V572.167z"/>
	<path fill="#494A49" d="M839.607,656.681h-23.166l-3.962-26.5h-28.172l-3.965,26.5h-21.077l23.371-146.071h33.598L839.607,656.681z
		 M787.23,610.354h22.118l-11.06-73.868L787.23,610.354z"/>
	<path fill="#494A49" d="M898.229,656.681c-1.251-3.756-2.089-6.05-2.089-17.946v-22.954c0-13.564-4.589-18.571-15.021-18.571
		h-7.933v59.471h-22.952V510.61h34.638c23.79,0,34.017,11.06,34.017,33.596v11.477c0,15.024-4.8,24.833-15.026,29.633
		c11.477,4.798,15.233,15.855,15.233,31.089v22.537c0,7.096,0.209,12.313,2.503,17.739H898.229z M873.185,531.479v44.862h8.976
		c8.554,0,13.772-3.756,13.772-15.441V546.5c0-10.434-3.547-15.022-11.687-15.022H873.185z"/>
	<path fill="#494A49" d="M1000.668,602.217v19.405c0,23.375-11.686,36.729-34.221,36.729c-22.54,0-34.226-13.354-34.226-36.729
		v-75.955c0-23.37,11.687-36.727,34.226-36.727c22.535,0,34.221,13.357,34.221,36.727v14.19h-21.703v-15.651
		c0-10.433-4.59-14.399-11.894-14.399c-7.303,0-11.895,3.966-11.895,14.399v78.876c0,10.436,4.592,14.192,11.895,14.192
		c7.304,0,11.894-3.756,11.894-14.192v-20.865H1000.668z"/>
	<path fill="#494A49" d="M1037.585,656.681h-22.955V510.61h22.955v62.601h26.086V510.61h23.371v146.071h-23.371v-62.603h-26.086
		V656.681z"/>
</g>
</svg>
