<?xml version="1.0" encoding="utf-8"?>
<!-- Generator: Adobe Illustrator 16.0.0, SVG Export Plug-In . SVG Version: 6.00 Build 0)  -->
<!DOCTYPE svg PUBLIC "-//W3C//DTD SVG 1.1//EN" "http://www.w3.org/Graphics/SVG/1.1/DTD/svg11.dtd">
<svg version="1.1" id="Capa_1" xmlns="http://www.w3.org/2000/svg" xmlns:xlink="http://www.w3.org/1999/xlink" x="0px" y="0px"
	 width="238.136px" height="51.695px" viewBox="0 0 238.136 51.695" enable-background="new 0 0 238.136 51.695"
	 xml:space="preserve">
<g>
	<path fill="#FFFFFF" d="M21.475,32.839l3.428-22.715h6.993v31.993h-4.753V19.173l-3.473,22.944h-4.753l-3.748-22.624v22.624H10.78
		V10.124h6.993L21.475,32.839z"/>
	<path fill="#FFFFFF" d="M40.574,23.606h6.901v4.571h-6.901v9.369h8.684v4.57H35.546V10.124h13.711v4.57h-8.684V23.606z"/>
	<path fill="#FFFFFF" d="M59.903,24.292h7.039v10.145c0,5.121-2.56,8.045-7.496,8.045c-4.936,0-7.496-2.924-7.496-8.045V17.802
		c0-5.119,2.56-8.044,7.496-8.044c4.936,0,7.496,2.925,7.496,8.044v3.107h-4.753v-3.428c0-2.285-1.005-3.153-2.605-3.153
		c-1.599,0-2.605,0.868-2.605,3.153v17.276c0,2.285,1.006,3.109,2.605,3.109c1.6,0,2.605-0.824,2.605-3.109v-5.895h-2.285V24.292z"
		/>
	<path fill="#FFFFFF" d="M86.408,42.117h-5.073l-0.868-5.805h-6.17l-0.869,5.805h-4.616l5.119-31.993h7.358L86.408,42.117z
		 M74.937,31.97h4.844l-2.422-16.179L74.937,31.97z"/>
	<path fill="#FFFFFF" d="M99.248,42.117c-0.274-0.822-0.457-1.326-0.457-3.932v-5.027c0-2.971-1.005-4.066-3.291-4.066h-1.737
		v13.025h-5.027V10.124h7.586c5.21,0,7.45,2.422,7.45,7.357v2.514c0,3.291-1.051,5.439-3.291,6.491
		c2.514,1.051,3.336,3.473,3.336,6.809v4.938c0,1.553,0.046,2.695,0.549,3.885H99.248z M93.763,14.694v9.826h1.965
		c1.874,0,3.017-0.823,3.017-3.383v-3.153c0-2.285-0.777-3.29-2.56-3.29H93.763z"/>
	<path fill="#FFFFFF" d="M112.132,23.606h6.901v4.571h-6.901v9.369h8.684v4.57h-13.711V10.124h13.711v4.57h-8.684V23.606z"/>
	<path fill="#FFFFFF" d="M130.685,9.758c4.891,0,7.404,2.925,7.404,8.044v1.006h-4.754v-1.326c0-2.285-0.914-3.153-2.514-3.153
		s-2.513,0.868-2.513,3.153c0,6.582,9.825,7.816,9.825,16.956c0,5.121-2.559,8.045-7.495,8.045s-7.495-2.924-7.495-8.045v-1.965
		h4.753v2.285c0,2.285,1.006,3.109,2.604,3.109c1.601,0,2.606-0.824,2.606-3.109c0-6.58-9.827-7.814-9.827-16.956
		C123.28,12.683,125.794,9.758,130.685,9.758z"/>
	<path fill="#FFFFFF" d="M146.038,23.606h6.9v4.571h-6.9v9.369h8.684v4.57h-13.711V10.124h13.711v4.57h-8.684V23.606z"/>
	<path fill="#FFFFFF" d="M174.097,42.117h-5.074l-0.867-5.805h-6.17l-0.869,5.805h-4.615l5.118-31.993h7.358L174.097,42.117z
		 M162.625,31.97h4.845l-2.423-16.179L162.625,31.97z"/>
	<path fill="#FFFFFF" d="M186.937,42.117c-0.274-0.822-0.458-1.326-0.458-3.932v-5.027c0-2.971-1.005-4.066-3.29-4.066h-1.737
		v13.025h-5.026V10.124h7.586c5.211,0,7.45,2.422,7.45,7.357v2.514c0,3.291-1.052,5.439-3.291,6.491
		c2.514,1.051,3.337,3.473,3.337,6.809v4.938c0,1.553,0.045,2.695,0.548,3.885H186.937z M181.451,14.694v9.826h1.966
		c1.873,0,3.016-0.823,3.016-3.383v-3.153c0-2.285-0.776-3.29-2.559-3.29H181.451z"/>
	<path fill="#FFFFFF" d="M209.373,30.187v4.25c0,5.121-2.561,8.045-7.496,8.045c-4.937,0-7.495-2.924-7.495-8.045V17.802
		c0-5.119,2.559-8.044,7.495-8.044c4.936,0,7.496,2.925,7.496,8.044v3.107h-4.754v-3.428c0-2.285-1.006-3.153-2.605-3.153
		s-2.604,0.868-2.604,3.153v17.276c0,2.285,1.005,3.109,2.604,3.109s2.605-0.824,2.605-3.109v-4.57H209.373z"/>
	<path fill="#FFFFFF" d="M217.458,42.117h-5.027V10.124h5.027v13.711h5.714V10.124h5.118v31.993h-5.118V28.406h-5.714V42.117z"/>
</g>
</svg>
