<?xml version="1.0" encoding="utf-8"?>
<!-- Generator: Adobe Illustrator 16.0.0, SVG Export Plug-In . SVG Version: 6.00 Build 0)  -->
<!DOCTYPE svg PUBLIC "-//W3C//DTD SVG 1.1//EN" "http://www.w3.org/Graphics/SVG/1.1/DTD/svg11.dtd">
<svg version="1.1" id="Capa_1" xmlns="http://www.w3.org/2000/svg" xmlns:xlink="http://www.w3.org/1999/xlink" x="0px" y="0px"
	 width="225px" height="150px" viewBox="0 0 225 150" enable-background="new 0 0 225 150" xml:space="preserve">
<path id="path363" fill="#494949" d="M113,101.23c14.08,0,25.493-11.413,25.493-25.492S127.079,50.246,113,50.246
	c-14.079,0-25.492,11.413-25.492,25.492S98.921,101.23,113,101.23"/>
<path id="path365" fill="#FFFFFF" d="M91.779,70.409c0,0,9.971,28.22,9.899,28.184c0.296,0.144,1.049,0.472,1.596,0.712
	l7.537-23.796c0.916-3.024,2.234-5.071,4.996-5.071l4.001,0.009v20.641h-4.12c0,0-0.8,0.007-0.8,0.898c0,0.829,0.8,0.883,0.8,0.883
	h12.657c0,0,0.812-0.054,0.812-0.894c0-0.861-0.812-0.888-0.812-0.888h-4.074V70.447h4.074c0,0,0.812-0.038,0.812-0.899
	c0-0.883-0.812-0.885-0.812-0.885h-4.074v-9.729c0.084-1.946,1.408-2.675,2.586-2.675c1.09,0,2.594,0.288,2.724,2.739
	c0,0-0.049-0.309-0.859-0.309c-0.953,0-1.921,0.75-1.854,2.34c0.043,1.059,0.904,1.942,2.158,1.942c1.16,0,2.048-1.145,2.134-1.933
	c0.277-2.549-0.897-3.803-1.29-4.314c-0.266-0.42-1.061-1.038-1.547-1.286c-0.485-0.237-1.031-0.392-1.778-0.392
	c-3.439,0-6.723,2.884-6.723,6.985c0,1.761,0.002,6.633,0.002,6.633h-13.418c0,0-0.806,0.024-0.806,0.863
	c0,0.883,0.806,0.893,0.806,0.893c3.415,0.019,3.902,1.227,2.43,5.672l-4.956,15.885l-7.152-21.551l2.404-0.015
	c0,0,0.817,0,0.817-0.883c0-0.838-0.817-0.882-0.817-0.882H88.507c-0.179,0.484-0.388,1.424-0.448,1.765H91.779L91.779,70.409z"/>
</svg>
